<?xml version="1.0" standalone="no"?>
<!DOCTYPE svg PUBLIC "-//W3C//DTD SVG 1.1//EN" "http://www.w3.org/Graphics/SVG/1.1/DTD/svg11.dtd" >
<svg xmlns="http://www.w3.org/2000/svg" xmlns:xlink="http://www.w3.org/1999/xlink" version="1.1">
<metadata></metadata>
<defs>
<font id="dinbekregular" horiz-adv-x="1069" >
<font-face units-per-em="2048" ascent="1638" descent="-410" />
<missing-glyph horiz-adv-x="509" />
<glyph horiz-adv-x="0" />
<glyph horiz-adv-x="682" />
<glyph horiz-adv-x="1406" d="M80 676v121h160v661h501q276 0 420 -219q31 -49 49.5 -90t27.5 -95.5t11 -130t2 -194.5q0 -125 -3 -205t-12 -135t-27.5 -94t-47.5 -80q-66 -92 -173 -153.5t-259 -61.5h-489v676h-160zM397 137h316q217 0 319 152q23 35 35 66.5t18.5 77.5t8.5 114t2 174q0 102 -2 173 t-9.5 121t-21.5 86t-41 73q-59 80 -132 113.5t-177 33.5h-316v-524h330v-121h-330v-539z" />
<glyph horiz-adv-x="1085" d="M135 500q0 115 22.5 218t98.5 179q96 98 250 109q39 2 79 -1.5t74 -19.5l-118 203h-238v106h180l-96 168h154l96 -168h168v-106h-111l129 -227q41 -72 66.5 -127.5t39 -107.5t18.5 -105t5 -121q0 -117 -22.5 -219.5t-100.5 -180.5q-51 -53 -122.5 -82.5t-163.5 -29.5 t-164 29.5t-123 82.5q-78 78 -99.5 180.5t-21.5 219.5zM283 500q0 -86 12 -169t67 -138q74 -74 181 -74q109 0 182 74q55 55 67.5 138t12.5 169q0 43 -2 86t-10.5 83t-23.5 76.5t-44 63.5q-74 74 -182 74q-106 0 -181 -74q-27 -27 -43 -63.5t-24 -76.5t-10 -83t-2 -86z" />
<glyph horiz-adv-x="1191" d="M80 498v137l149 94v729h158v-631l315 201v-135l-315 -201v-553h743v-139h-901v592z" />
<glyph horiz-adv-x="645" d="M76 621v127l129 79v631h147v-540l166 102v-127l-166 -102v-517q0 -74 29 -110.5t106 -36.5h82v-127h-106q-131 0 -194.5 77t-63.5 191v432z" />
<glyph horiz-adv-x="1204" d="M86 180l107 107q90 -90 182 -125t215 -35q160 0 252 70.5t92 199.5q0 57 -17.5 104.5t-52.5 78.5t-72.5 44t-117.5 25l-170 27q-174 29 -268 110q-111 98 -111 273q0 92 32.5 169t93 130t146.5 82.5t195 29.5q139 0 239.5 -37.5t194.5 -121.5l-100 -101q-68 61 -146 93 t-194 32q-147 0 -227 -73.5t-80 -196.5q0 -111 65 -168q35 -29 87 -49.5t110 -30.5l159 -24q102 -14 162 -38t105 -65q123 -105 123 -289q0 -96 -36 -172.5t-102.5 -130t-159 -82t-206.5 -28.5q-164 0 -281 45t-219 147zM266 1913h142l184 -215l184 215h142l-256 -313h-140z " />
<glyph horiz-adv-x="1015" d="M88 133l98 98q59 -63 139.5 -89.5t174.5 -26.5q125 0 196.5 44t71.5 134q0 66 -40 102.5t-128 44.5l-166 15q-147 12 -224 78.5t-77 191.5q0 70 27.5 124t77 92t118 58.5t148.5 20.5q109 0 202 -26.5t160 -82.5l-96 -96q-53 41 -121.5 60.5t-146.5 19.5 q-111 0 -168.5 -44t-57.5 -122q0 -66 40 -102.5t137 -44.5l161 -15q66 -6 121.5 -22.5t94 -49t60 -80.5t21.5 -120q0 -74 -29.5 -130t-84 -96t-129 -60.5t-166.5 -20.5q-129 0 -229.5 32.5t-184.5 112.5zM180 1530h142l184 -215l184 215h142l-256 -313h-140z" />
<glyph horiz-adv-x="1054" d="M16 1458h168l344 -698l340 698h168l-430 -856v-602h-155v602zM426 1600l180 313h176l-221 -313h-135z" />
<glyph horiz-adv-x="913" d="M23 1008h159l277 -809l274 809h160l-459 -1252q-29 -80 -72 -118q-41 -39 -92 -54.5t-104 -15.5h-64v131h45q39 0 65 6t44 21.5t31.5 39t25.5 58.5l72 196zM359 1217l180 313h176l-221 -313h-135z" />
<glyph horiz-adv-x="1314" d="M211 0v1458h156v-293h387q100 0 183 -30.5t142.5 -86t92 -135.5t32.5 -178t-32.5 -177t-92 -135t-142.5 -86t-183 -30h-387v-307h-156zM367 446h372q137 0 223.5 72t86.5 217t-86 217t-224 72h-372v-578z" />
<glyph horiz-adv-x="1118" d="M184 -451v1909h148v-567q61 78 130.5 103.5t153.5 25.5q78 0 141.5 -23.5t104.5 -64.5q39 -39 62.5 -88t37 -105.5t18.5 -116t5 -118.5t-5 -118.5t-18.5 -116t-37 -105.5t-62.5 -88q-41 -41 -104.5 -64.5t-141.5 -23.5q-84 0 -153.5 26.5t-130.5 104.5v-570h-148z M332 504q0 -74 9 -143.5t35.5 -123t77 -86t132.5 -32.5t132 32.5t76.5 86t35 123t8.5 143.5t-8.5 143.5t-35 122.5t-76.5 86t-132 33t-132.5 -33t-77 -86t-35.5 -122.5t-9 -143.5z" />
<glyph horiz-adv-x="1138" d="M117 0v147l729 1172h-701v139h877v-131l-735 -1188h735v-139h-905zM256 1913h142l184 -215l184 215h142l-256 -313h-140z" />
<glyph horiz-adv-x="940" d="M102 0v127l562 750h-531v131h701v-125l-564 -752h564v-131h-732zM159 1530h142l184 -215l184 215h142l-256 -313h-140z" />
<glyph horiz-adv-x="1617" d="M88 1178v135l170 145h117v-874h-117v743zM330 0l682 1458h123l-682 -1458h-123zM1016 0v106l338 414q25 31 36 57.5t11 61.5q0 61 -35 99t-98 38q-53 0 -93 -30.5t-40 -106.5h-119q0 111 70.5 177.5t181.5 66.5t181.5 -65.5t70.5 -178.5q0 -57 -19.5 -98t-60.5 -90 l-281 -345h361v-106h-504z" />
<glyph horiz-adv-x="1591" d="M88 1178v135l170 145h117v-874h-117v743zM354 0l682 1458h123l-682 -1458h-123zM946 131v109l309 634h127l-307 -634h223v215h115v-215h96v-109h-96v-131h-115v131h-352z" />
<glyph horiz-adv-x="534" d="M88 1178v135l170 145h117v-874h-117v743z" />
<glyph horiz-adv-x="1683" d="M98 817h119q4 -72 48 -104.5t102 -32.5q63 0 105 39t42 110q0 70 -38 110t-116 40h-18v102h18q72 0 106 38t34 102q0 70 -40 104.5t-95 34.5q-59 0 -96.5 -35t-41.5 -94h-116q6 111 77.5 173t176.5 62q111 0 181 -66.5t70 -176.5q0 -72 -28.5 -118t-81.5 -71 q59 -25 92 -74t33 -131q0 -63 -20.5 -110t-56.5 -80t-84 -49.5t-103 -16.5q-51 0 -99.5 14.5t-85.5 44.5t-59.5 76t-24.5 109zM461 0l684 1458h123l-684 -1458h-123zM1038 131v109l310 634h127l-310 -634h226v215h114v-215h97v-109h-97v-131h-114v131h-353z" />
<glyph horiz-adv-x="729" d="M98 817h119q4 -72 48 -104.5t102 -32.5q63 0 105 39t42 110q0 70 -38 110t-116 40h-18v102h18q72 0 106 38t34 102q0 70 -40 104.5t-95 34.5q-59 0 -96.5 -35t-41.5 -94h-116q6 111 77.5 173t176.5 62q111 0 181 -66.5t70 -176.5q0 -72 -28.5 -118t-81.5 -71 q59 -25 92 -74t33 -131q0 -63 -20.5 -110t-56.5 -80t-84 -49.5t-103 -16.5q-51 0 -99.5 14.5t-85.5 44.5t-59.5 76t-24.5 109z" />
<glyph horiz-adv-x="700" d="M98 584v106l338 414q25 31 36 57.5t11 61.5q0 61 -34.5 99t-98.5 38q-53 0 -93 -31t-40 -106h-119q0 111 71 177t181 66q111 0 181.5 -65.5t70.5 -177.5q0 -57 -19.5 -98.5t-60.5 -90.5l-282 -344h362v-106h-504z" />
<glyph horiz-adv-x="686" d="M260 -152v717h148v-717h-148zM260 893v717h148v-717h-148z" />
<glyph d="M106 483v138h857v-138h-857z" />
<glyph d="M133 244l309 309l-309 309l92 92l310 -311l309 311l92 -92l-311 -309l311 -309l-92 -92l-309 309l-310 -309z" />
<glyph unicode=" "  horiz-adv-x="509" />
<glyph unicode="&#x09;" horiz-adv-x="509" />
<glyph unicode="&#xa0;" horiz-adv-x="509" />
<glyph unicode="!" horiz-adv-x="647" d="M266 0v172h176v-172h-176zM270 1458h170l-22 -1048h-127z" />
<glyph unicode="&#x22;" horiz-adv-x="866" d="M180 1110v348h162v-348h-162zM524 1110v348h162v-348h-162z" />
<glyph unicode="#" horiz-adv-x="1337" d="M158 465v131h204l48 289h-189v135h207l70 440h153l-71 -440h325l70 440h149l-69 -440h178v-135h-197l-47 -289h182v-131h-202l-74 -465h-152l74 465h-328l-71 -465h-152l74 465h-182zM512 596h326l47 289h-326z" />
<glyph unicode="$" horiz-adv-x="1220" d="M86 180l107 107q82 -82 164.5 -118t187.5 -40v543l-41 6q-84 8 -153.5 40t-112.5 68q-113 100 -113 273q0 174 109.5 283.5t302.5 125.5v183h122v-183q119 -6 207 -44t174 -113l-100 -101q-59 53 -125.5 85t-161.5 38v-530l64 -8q102 -16 159.5 -40t104.5 -65 q59 -51 92 -124t33 -165q0 -88 -32 -160.5t-90 -126t-140 -85t-185 -37.5v-225h-122v221q-145 6 -250 51t-201 141zM279 1065q0 -111 65 -168q43 -35 95.5 -53.5t105.5 -26.5v516q-129 -10 -197.5 -81.5t-68.5 -186.5zM653 129q139 10 218 79.5t79 188.5q0 57 -18.5 104.5 t-52.5 78.5q-51 45 -105.5 55t-120.5 20v-526z" />
<glyph unicode="%" horiz-adv-x="1705" d="M133 981v215q0 127 78 202t199 75q119 0 197.5 -75t78.5 -202v-215q0 -125 -79 -199.5t-197 -74.5q-121 0 -199 74.5t-78 199.5zM250 985q0 -84 38 -130t122 -46t121.5 47t37.5 129v207q0 82 -37.5 130t-121.5 48q-86 0 -123 -47t-37 -131v-207zM451 0l684 1458h122 l-684 -1458h-122zM1022 262v215q0 127 78 202t198 75q119 0 198 -75t79 -202v-215q0 -127 -79 -201.5t-198 -74.5q-121 0 -198.5 74.5t-77.5 201.5zM1139 266q0 -84 36.5 -131t122.5 -47q84 0 122 48t38 130v207q0 82 -38 130t-122 48q-86 0 -122.5 -47t-36.5 -131v-207z " />
<glyph unicode="&#x26;" horiz-adv-x="1513" d="M158 412q0 82 26.5 145.5t70.5 114.5t101.5 94t116.5 82q-27 33 -54.5 67.5t-51 73.5t-38 83t-14.5 93q0 66 23.5 121t67 96t102.5 64.5t129 23.5q68 0 126 -23.5t101 -64.5t66.5 -97t23.5 -122q0 -88 -46 -150.5t-115 -109.5q-20 -12 -41 -26q-16 -12 -35 -24.5 t-33 -23.5l373 -448q23 35 38 67.5t24 71.5t14.5 86t5.5 109h147q-2 -139 -32.5 -250t-102.5 -197l223 -268h-194l-131 160q-23 -20 -60 -50t-90 -56.5t-122.5 -46t-158.5 -19.5q-106 0 -191 30.5t-144.5 86t-92 134t-32.5 173.5zM309 416q0 -66 22.5 -119t63.5 -92 t97.5 -59.5t123.5 -20.5q82 0 166 28.5t179 112.5l-402 484q-47 -33 -92 -66t-80 -72t-56.5 -87t-21.5 -109zM469 1167q0 -51 29.5 -101t101.5 -138q10 6 23.5 14t25.5 19q14 10 29 20q51 35 91 77t40 105q0 74 -49 124t-123 50q-76 0 -122 -48t-46 -122z" />
<glyph unicode="'" horiz-adv-x="522" d="M180 1110v348h162v-348h-162z" />
<glyph unicode="(" horiz-adv-x="610" d="M188 195v1069q0 53 7.5 106t35.5 105q29 51 64 89t84 87l100 -101q-35 -35 -62.5 -63.5t-47.5 -69.5q-33 -66 -33 -166v-1044q0 -100 33 -166q20 -41 47.5 -69.5t62.5 -63.5l-100 -101q-49 49 -84 87t-64 90q-29 51 -36 104t-7 107z" />
<glyph unicode=")" horiz-adv-x="610" d="M127 -88l63.5 63.5t49.5 69.5q16 31 22 72t6 90v1044q0 49 -6 90t-22 72q-20 41 -49 69.5t-64 63.5l104 105q49 -49 84 -87t64 -89t35 -104.5t6 -106.5v-1069q0 -53 -6 -106.5t-35 -104.5t-63.5 -89t-84.5 -88z" />
<glyph unicode="*" horiz-adv-x="970" d="M137 967l246 133l-246 135l60 98l237 -145l-8 280h119l-8 -280l239 145l58 -98l-246 -135l246 -133l-58 -101l-239 146l8 -281h-119l8 281l-237 -146z" />
<glyph unicode="+" d="M106 479v137h361v357h137v-357h359v-137h-359v-360h-137v360h-361z" />
<glyph unicode="," horiz-adv-x="540" d="M180 180h180v-313l-180 -162v475z" />
<glyph unicode="-" horiz-adv-x="872" d="M156 483v138h561v-138h-561z" />
<glyph unicode="." horiz-adv-x="552" d="M180 0v193h193v-193h-193z" />
<glyph unicode="/" horiz-adv-x="727" d="M0 -152l584 1762h145l-584 -1762h-145z" />
<glyph unicode="0" d="M135 389v680q0 90 31 165t84 127t126 80.5t159 28.5t158.5 -28.5t125.5 -80.5t84 -127t31 -165v-680q0 -90 -31 -164.5t-84 -127t-125.5 -81t-158.5 -28.5t-159 28.5t-126 81t-84 127t-31 164.5zM283 397q0 -121 64.5 -199.5t187.5 -78.5t187 78.5t64 199.5v664 q0 121 -64.5 199.5t-186.5 78.5q-123 0 -187.5 -78.5t-64.5 -199.5v-664z" />
<glyph unicode="1" d="M256 1055v168l272 235h148v-1458h-148v1294z" />
<glyph unicode="2" d="M139 0v131l576 731q41 53 61.5 104.5t20.5 110.5q0 119 -66.5 190.5t-187.5 71.5q-51 0 -97.5 -14t-81 -47t-55 -82t-20.5 -121h-148q0 86 29 159t81 125t126 81.5t166 29.5q90 0 163.5 -27.5t127 -78.5t82 -124t28.5 -163q0 -88 -28.5 -152.5t-88.5 -142.5l-510 -651 h627v-131h-805z" />
<glyph unicode="3" d="M86 371h147q4 -68 30 -116t64 -79t87 -45t100 -14q119 0 200 73.5t81 208.5q0 133 -69 208t-218 75h-31v129h31q135 0 197.5 70.5t62.5 193.5q0 131 -73.5 198.5t-180.5 67.5q-117 0 -184.5 -65.5t-77.5 -177.5h-148q6 88 40 157.5t88.5 117.5t127 74t154.5 26 q90 0 164 -29t126 -80t81.5 -124t29.5 -163q0 -233 -196 -323q223 -85 223 -357q0 -100 -34 -177t-91 -129t-135 -78.5t-168 -26.5q-86 0 -162 22.5t-133 70.5t-93 120.5t-40 171.5z" />
<glyph unicode="4" d="M82 231v134l526 1093h158l-526 -1093h424v413h145v-413h178v-134h-178v-231h-145v231h-582z" />
<glyph unicode="5" d="M143 344h148q14 -111 72.5 -169t175.5 -58q113 0 180 67q29 29 45 64t23.5 73.5t9.5 79.5t2 80q0 68 -9.5 131.5t-35 112.5t-73.5 80t-128 31q-96 0 -157.5 -39t-84.5 -105h-133v766h737v-131h-604v-463q43 47 109.5 74t152.5 27q82 0 145.5 -25t106.5 -68 q41 -39 64.5 -86t36 -98t16.5 -103.5t4 -103.5q0 -111 -19.5 -210t-97.5 -177q-51 -51 -121.5 -79.5t-168.5 -28.5q-96 0 -171 28.5t-122 75.5q-47 49 -71.5 112.5t-31.5 141.5z" />
<glyph unicode="6" d="M133 408q0 78 22.5 156.5t69.5 170.5l359 723h151l-325 -655q68 31 153 31q86 0 155.5 -31t119 -86t77 -131t27.5 -166q0 -92 -28.5 -172t-81 -137.5t-127 -90t-166.5 -32.5t-168 29.5t-128.5 85t-81 133t-28.5 172.5zM281 414q0 -135 69.5 -215t186.5 -80t187.5 80 t70.5 215q0 61 -16.5 114.5t-49.5 93.5t-81 63.5t-111 23.5q-117 0 -186.5 -80t-69.5 -215z" />
<glyph unicode="7" d="M156 1098v360h809v-131l-506 -1327h-156l506 1327h-508v-229h-145z" />
<glyph unicode="8" d="M104 401q0 129 63.5 215t156.5 140q-86 49 -138.5 129t-52.5 194q0 86 30 158t84 124t128 80.5t160 28.5t159.5 -28.5t128 -80.5t84 -124t29.5 -158q0 -115 -51 -194.5t-137 -128.5q92 -53 154.5 -139.5t62.5 -215.5q0 -92 -33 -167.5t-91.5 -131t-137 -85t-168.5 -29.5 t-169 29.5t-137.5 85t-91.5 131t-33 167.5zM252 403q0 -61 21.5 -112t59.5 -90t90 -60.5t112 -21.5q59 0 111 21.5t90 60.5t59.5 90t21.5 112t-21.5 112.5t-59.5 90.5t-90 60.5t-111 21.5t-111.5 -21.5t-90.5 -60.5t-59.5 -90t-21.5 -113zM281 1077q0 -117 70.5 -188.5 t183.5 -71.5t183 71.5t70 188.5q0 115 -70.5 188.5t-182.5 73.5q-113 0 -183.5 -73.5t-70.5 -188.5z" />
<glyph unicode="9" d="M127 1038q0 92 28.5 172t81 137.5t127 90t166.5 32.5t168 -29.5t128.5 -85t81 -133t28.5 -171.5q0 -78 -22.5 -157t-69.5 -171l-359 -723h-153l327 655q-68 -31 -155 -30q-86 0 -155.5 30.5t-119 86t-76 131t-26.5 165.5zM274 1044q0 -61 16.5 -114t49.5 -93t80 -63.5 t110 -23.5q117 0 187.5 79.5t70.5 214.5t-70.5 215t-187.5 80t-186.5 -79.5t-69.5 -215.5z" />
<glyph unicode=":" horiz-adv-x="608" d="M236 0v193h192v-193h-192zM236 616v193h192v-193h-192z" />
<glyph unicode=";" horiz-adv-x="608" d="M236 616v193h192v-193h-192zM240 180h180v-313l-180 -162v475z" />
<glyph unicode="&#x3c;" horiz-adv-x="2103" d="M113 551l817 817h192l-747 -745h1616v-144h-1616l747 -745h-192z" />
<glyph unicode="=" d="M106 309v135h857v-135h-857zM106 655v138h857v-138h-857z" />
<glyph unicode="&#x3e;" horiz-adv-x="2103" d="M113 479v144h1616l-748 745h193l817 -817l-817 -817h-193l748 745h-1616z" />
<glyph unicode="?" horiz-adv-x="1017" d="M156 1096q0 78 28.5 146.5t80.5 119.5t123 79.5t153 28.5q80 0 150.5 -27.5t121.5 -76.5t81 -117.5t30 -150.5q0 -72 -26 -130.5t-67 -117.5l-167 -242q-18 -29 -27.5 -61.5t-9.5 -57.5v-79h-148v82q0 59 15.5 102t48.5 90l166 240q29 43 48 81.5t19 92.5 q0 104 -65.5 172.5t-169.5 68.5q-55 0 -99.5 -19.5t-75 -53t-47 -77.5t-16.5 -93h-147zM465 0v172h176v-172h-176z" />
<glyph unicode="@" horiz-adv-x="1460" d="M147 328v688q0 213 115 330q113 115 316 114h303q201 0 315 -114q117 -117 117 -330v-1018l-142 2v113q-51 -66 -115.5 -96.5t-158.5 -30.5q-86 0 -158.5 32.5t-120.5 92.5q-51 66 -70.5 151.5t-19.5 224.5q0 135 18.5 223.5t65.5 151.5q45 59 119 93t164 34t155.5 -31.5 t118.5 -97.5v160q0 82 -17 134t-62 99q-43 43 -99.5 62.5t-128.5 19.5h-266q-72 0 -125 -18.5t-98 -63.5q-47 -47 -64.5 -97t-17.5 -136v-690q0 -49 5 -84t18.5 -62.5t36 -51t57.5 -50.5l-101 -100q-47 35 -77.5 67.5t-49 71.5t-26 89t-7.5 118zM674 487q0 -72 8 -139 t34.5 -119.5t76 -84t129.5 -31.5t129 31.5t75.5 84t34.5 119.5t8 139t-8 139.5t-34.5 120t-76 84t-128.5 31.5q-80 0 -129.5 -31.5t-76 -84t-34.5 -120t-8 -139.5z" />
<glyph unicode="A" horiz-adv-x="1251" d="M25 0l536 1458h131l535 -1458h-166l-117 330h-637l-117 -330h-165zM354 465h545l-270 770z" />
<glyph unicode="B" horiz-adv-x="1368" d="M211 0v1458h549q96 0 175 -26.5t135 -76.5t88 -122t32 -164q0 -117 -61.5 -201t-153.5 -118q104 -39 170.5 -127.5t66.5 -219.5q0 -98 -31.5 -173.5t-89 -127t-137.5 -77t-176 -25.5h-567zM367 139h397q135 0 214 73t79 196t-79 194.5t-214 71.5h-397v-535zM367 813h381 q61 0 113 15.5t90 46t60.5 78.5t22.5 114t-22.5 113t-60.5 77.5t-90 46t-113 15.5h-381v-506z" />
<glyph unicode="C" horiz-adv-x="1304" d="M156 729q0 117 2 204t15 155.5t41 124t79 106.5q74 74 169 112.5t204 38.5q98 0 182 -29.5t150.5 -85t110.5 -136t62 -183.5h-159q-29 135 -119 215t-227 80q-72 0 -138.5 -26.5t-113.5 -75.5q-35 -35 -55.5 -75t-31 -96.5t-13.5 -135t-3 -193.5t3 -193.5t13.5 -135 t31 -96.5t55.5 -75q47 -49 113.5 -75.5t138.5 -26.5q137 0 229 80t121 215h155q-18 -102 -62 -183t-110.5 -136.5t-150.5 -85t-182 -29.5q-109 0 -204 39t-169 112q-51 51 -79 106.5t-41 124t-15 155.5t-2 204z" />
<glyph unicode="D" horiz-adv-x="1378" d="M211 0v1458h500q115 0 209 -34.5t159 -100.5q57 -57 87 -126t42.5 -143.5t13.5 -153.5t1 -155t-1 -159.5t-13.5 -164.5t-42 -154.5t-87.5 -131.5q-66 -66 -160 -100.5t-208 -34.5h-500zM367 139h317q86 0 157.5 23.5t129.5 83.5q37 39 57.5 97t28.5 125t9 138t1 139 t-1 134.5t-9 127t-28.5 114t-57.5 91.5q-57 59 -129 83t-158 24h-317v-1180z" />
<glyph unicode="E" horiz-adv-x="1228" d="M211 0v1458h905v-139h-749v-514h639v-139h-639v-527h749v-139h-905z" />
<glyph unicode="F" horiz-adv-x="1187" d="M211 0v1458h905v-139h-749v-537h639v-139h-639v-643h-156z" />
<glyph unicode="G" horiz-adv-x="1331" d="M156 729q0 117 2 204t15 155.5t41 124t79 106.5q151 151 370 151h3q104 0 191 -31.5t152.5 -90t107.5 -138.5t59 -176h-156q-31 139 -124 218t-230 79q-72 0 -138.5 -27.5t-113.5 -76.5q-35 -35 -55.5 -75t-31 -95.5t-13.5 -134t-3 -193.5t3 -193.5t13.5 -135t31 -96.5 t55.5 -75q47 -49 113.5 -75.5t138.5 -26.5q80 0 152.5 31.5t123.5 93.5q45 53 63.5 115.5t18.5 148.5v111h-358v137h514v-232q0 -127 -29 -216t-96 -160q-78 -84 -177.5 -126t-211.5 -42q-109 0 -204 39t-169 112q-51 51 -79 106.5t-41 124t-15 155.5t-2 204z" />
<glyph unicode="H" horiz-adv-x="1425" d="M211 0v1458h156v-653h692v653h155v-1458h-155v666h-692v-666h-156z" />
<glyph unicode="I" horiz-adv-x="577" d="M211 0v1458h156v-1458h-156z" />
<glyph unicode="J" horiz-adv-x="1026" d="M47 119l105 104q20 -20 41.5 -37.5t48 -31t60.5 -20.5t79 -7q143 0 221 87t78 249v995h156v-1016q0 -104 -34 -189t-94.5 -143.5t-143.5 -90t-183 -31.5q-104 0 -185 31.5t-149 99.5z" />
<glyph unicode="K" horiz-adv-x="1331" d="M211 0v1458h156v-837l680 837h190l-459 -563l525 -895h-185l-444 776l-307 -368v-408h-156z" />
<glyph unicode="L" horiz-adv-x="1173" d="M211 0v1458h156v-1319h745v-139h-901z" />
<glyph unicode="M" horiz-adv-x="1671" d="M211 0v1458h156l475 -1034l463 1034h155v-1458h-155v1108l-400 -879h-133l-405 879v-1108h-156z" />
<glyph unicode="N" horiz-adv-x="1499" d="M211 0v1458h147l775 -1165v1165h155v-1458h-147l-774 1169v-1169h-156z" />
<glyph unicode="O" horiz-adv-x="1331" d="M156 729q0 117 2 204t15 155.5t41 124t79 106.5q151 151 370 151h3q221 0 372 -151q51 -51 79 -106.5t41 -124t15.5 -155.5t2.5 -204t-2.5 -204t-15.5 -155.5t-40.5 -124t-79.5 -106.5q-74 -74 -168 -112.5t-204 -38.5q-221 0 -373 151q-51 51 -79 106.5t-41 124 t-15 155.5t-2 204zM311 729q0 -115 3 -193.5t13.5 -134t31 -95.5t55.5 -75q47 -49 113.5 -76.5t138.5 -27.5t138 27.5t114 76.5q35 35 55 75t30.5 95.5t13.5 134t3 193.5t-3 193.5t-13.5 134t-31 95.5t-54.5 75q-47 49 -114 76.5t-138 27.5q-72 0 -138.5 -27.5t-113.5 -76.5 q-35 -35 -55.5 -75t-31 -95.5t-13.5 -134t-3 -193.5z" />
<glyph unicode="P" horiz-adv-x="1290" d="M211 0v1458h543q100 0 183 -29.5t142.5 -86t92 -135.5t32.5 -177t-32.5 -178t-92 -135t-142.5 -86t-183 -31h-387v-600h-156zM367 739h372q137 0 223.5 73t86.5 218t-86 217t-224 72h-372v-580z" />
<glyph unicode="Q" horiz-adv-x="1329" d="M156 729q0 117 2 204t15 155.5t41 124t79 106.5q151 151 370 151h3q221 0 372 -151q51 -51 79 -106.5t41 -124t15.5 -155.5t2.5 -204q0 -104 -2.5 -185t-11.5 -145.5t-29.5 -117t-57.5 -99.5l160 -159l-94 -95l-162 162q-133 -102 -313 -102q-221 0 -373 151 q-51 51 -79 106.5t-41 124t-15 155.5t-2 204zM311 729q0 -115 3 -193.5t13.5 -134t31 -95.5t55.5 -75q47 -49 113.5 -76.5t138.5 -27.5q115 0 206 70l-184 184l94 94l179 -178q20 33 31.5 72t17.5 89t8 116.5t2 154.5q0 115 -3 193.5t-13.5 134t-31 95.5t-54.5 75 q-47 49 -114 76.5t-138 27.5q-72 0 -138.5 -27.5t-113.5 -76.5q-35 -35 -55.5 -75t-31 -95.5t-13.5 -134t-3 -193.5z" />
<glyph unicode="R" horiz-adv-x="1343" d="M211 0v1458h559q96 0 175 -27.5t136.5 -80t89 -128t31.5 -169.5q0 -160 -88 -261.5t-229 -129.5l346 -662h-182l-332 647h-350v-647h-156zM367 784h389q129 0 210 66t81 201t-81 201.5t-210 66.5h-389v-535z" />
<glyph unicode="S" horiz-adv-x="1204" d="M86 180l107 107q90 -90 182 -125t215 -35q160 0 252 70.5t92 199.5q0 57 -17.5 104.5t-52.5 78.5t-72.5 44t-117.5 25l-170 27q-174 29 -268 110q-111 98 -111 273q0 92 32.5 169t93 130t146.5 82.5t195 29.5q139 0 239.5 -37.5t194.5 -121.5l-100 -101q-68 61 -146 93 t-194 32q-147 0 -227 -73.5t-80 -196.5q0 -111 65 -168q35 -29 87 -49.5t110 -30.5l159 -24q102 -14 162 -38t105 -65q123 -105 123 -289q0 -96 -36 -172.5t-102.5 -130t-159 -82t-206.5 -28.5q-164 0 -281 45t-219 147z" />
<glyph unicode="T" horiz-adv-x="1122" d="M61 1319v139h1000v-139h-422v-1319h-156v1319h-422z" />
<glyph unicode="U" horiz-adv-x="1398" d="M190 481v977h156v-964q0 -82 25.5 -151t71.5 -116t110.5 -73.5t144.5 -26.5t145.5 26.5t111.5 73.5t72 116t26 151v964h155v-977q0 -109 -37.5 -200t-106.5 -156.5t-162 -101t-204 -35.5t-204 35.5t-160.5 101t-105.5 157t-38 199.5z" />
<glyph unicode="V" horiz-adv-x="1118" d="M16 1458h164l379 -1179l379 1179h164l-479 -1458h-127z" />
<glyph unicode="W" horiz-adv-x="1748" d="M33 1458h166l284 -1175l322 1175h139l322 -1175l284 1175h166l-373 -1458h-145l-324 1167l-323 -1167h-145z" />
<glyph unicode="X" horiz-adv-x="1128" d="M31 0l446 748l-418 710h181l323 -575l324 575h180l-420 -710l451 -748h-180l-355 612l-356 -612h-176z" />
<glyph unicode="Y" horiz-adv-x="1052" d="M16 1458h168l344 -698l340 698h168l-430 -856v-602h-155v602z" />
<glyph unicode="Z" horiz-adv-x="1138" d="M117 0v147l729 1172h-701v139h877v-131l-735 -1188h735v-139h-905z" />
<glyph unicode="[" horiz-adv-x="641" d="M188 -152v1762h363v-131h-215v-1499h215v-132h-363z" />
<glyph unicode="\" horiz-adv-x="727" d="M0 1604h145l582 -1756h-145z" />
<glyph unicode="]" horiz-adv-x="641" d="M90 -25h221v1508h-221v127h363v-1762h-363v127z" />
<glyph unicode="^" horiz-adv-x="1099" d="M147 846l336 624h135l334 -624h-151l-250 467l-252 -467h-152z" />
<glyph unicode="_" horiz-adv-x="1099" d="M0 -233h1100v-105h-1100v105z" />
<glyph unicode="`" horiz-adv-x="1024" d="M256 1530h176l180 -313h-135z" />
<glyph unicode="a" horiz-adv-x="1077" d="M104 285q0 133 89.5 211.5t259.5 78.5h303v97q0 111 -59.5 166t-198.5 55q-98 0 -153.5 -25.5t-100.5 -89.5l-101 92q68 88 151 119t206 31q205 0 304 -85t99 -251v-684h-147v96q-31 -31 -61.5 -51t-64.5 -33.5t-74 -18.5t-91 -5q-104 0 -171 21.5t-114 70.5 q-37 37 -56.5 91t-19.5 114zM248 287q0 -88 55 -130t176 -42q66 0 122 10t104 57q51 49 51 174v109h-283q-225 0 -225 -178z" />
<glyph unicode="b" horiz-adv-x="1116" d="M184 0v1458h148v-567q61 78 130.5 103.5t153.5 25.5q78 0 141.5 -23.5t104.5 -64.5q39 -39 62.5 -88t37 -105.5t18.5 -116t5 -118.5t-5 -118.5t-18.5 -116t-37 -105.5t-62.5 -88q-41 -41 -104.5 -64.5t-141.5 -23.5q-84 0 -153.5 26.5t-130.5 106.5v-121h-148zM332 504 q0 -74 9 -143.5t35.5 -123t77 -86t132.5 -32.5t132 32.5t76.5 86t35 123t8.5 143.5t-8.5 143.5t-35 122.5t-76.5 86t-132 33t-132.5 -33t-77 -86t-35.5 -122.5t-9 -143.5z" />
<glyph unicode="c" horiz-adv-x="1003" d="M129 504q0 129 34 226t94 161.5t142 96.5t176 32q104 0 179 -33t153 -117l-100 -94q-57 63 -108.5 88t-123.5 25q-74 0 -133 -29t-100 -86q-35 -49 -50.5 -111.5t-15.5 -158.5t15.5 -158.5t50.5 -112.5q41 -57 100.5 -85.5t132.5 -28.5q72 0 123.5 25.5t108.5 88.5 l100 -96q-78 -84 -152.5 -116.5t-179.5 -32.5q-94 0 -176 32.5t-142 97t-94 161t-34 225.5z" />
<glyph unicode="d" horiz-adv-x="1116" d="M131 504q0 59 5 118.5t18.5 116t37 105.5t62.5 88q41 41 104.5 64.5t141.5 23.5q84 0 153.5 -25.5t130.5 -103.5v567h148v-1458h-146v121q-61 -80 -131.5 -106.5t-154.5 -26.5q-78 0 -141.5 23.5t-104.5 64.5q-39 39 -62.5 88t-37 105.5t-18.5 115.5t-5 119zM279 504 q0 -74 9 -143.5t35.5 -123t77 -86t131.5 -32.5q82 0 132.5 32.5t77 86t34.5 123t8 143.5t-8 143.5t-34.5 122.5t-77 86t-132.5 33t-132 -33t-76.5 -86t-35.5 -122.5t-9 -143.5z" />
<glyph unicode="e" horiz-adv-x="1085" d="M129 504q0 246 110.5 381t303.5 135q197 0 305 -131t108 -357v-67h-680q0 -166 76 -257t221 -91q88 0 146.5 27.5t118.5 86.5l100 -88q-39 -39 -77 -67.5t-81 -48t-94 -29.5t-117 -10q-100 0 -181 30.5t-138 94t-89 161t-32 230.5zM276 575h533q-2 61 -8 94t-23 74 q-29 70 -92 111t-143 41t-143.5 -41t-92.5 -111q-8 -20 -13 -37.5t-8 -36t-5 -41t-5 -53.5z" />
<glyph unicode="f" horiz-adv-x="643" d="M88 889v112h129v191q0 55 15.5 104.5t48 86t81 58t111.5 21.5h107v-127h-80q-72 0 -103.5 -39t-31.5 -108v-187h215v-112h-215v-889h-148v889h-129z" />
<glyph unicode="g" horiz-adv-x="1112" d="M131 512q0 123 23.5 233.5t99.5 186.5q41 41 104.5 64.5t141.5 23.5q84 0 152.5 -25.5t129.5 -105.5v119h146v-1039q0 -94 -29 -173t-82 -136t-132 -90t-177 -33q-57 0 -102.5 7t-85 23.5t-76.5 42t-78 62.5l96 95q29 -25 53.5 -43.5t52 -32t60.5 -19.5t76 -6 q74 0 126 24.5t86 65.5t49 97.5t15 121.5v158q-61 -78 -130.5 -104.5t-151.5 -26.5q-78 0 -140.5 24.5t-103.5 65.5q-76 76 -99.5 186.5t-23.5 233.5zM279 512q0 -70 8 -138.5t34.5 -120.5t77 -85t131.5 -33q82 0 131.5 33t76 85t34.5 120.5t8 138.5q0 72 -8 139.5 t-34.5 119.5t-76 85t-131.5 33t-132 -33t-76.5 -85t-34.5 -119.5t-8 -139.5z" />
<glyph unicode="h" horiz-adv-x="1150" d="M184 0v1458h148v-561q109 123 282 123q172 0 267.5 -100.5t95.5 -272.5v-647h-148v623q0 133 -65.5 199.5t-179.5 66.5q-115 0 -183.5 -67.5t-68.5 -198.5v-623h-148z" />
<glyph unicode="i" horiz-adv-x="518" d="M176 1294v166h166v-166h-166zM184 0v1008h148v-1008h-148z" />
<glyph unicode="j" horiz-adv-x="518" d="M-31 -324h80q78 0 106.5 37t28.5 111v1177h148v-1183q0 -115 -61.5 -193t-194.5 -78h-107v129zM176 1294v166h166v-166h-166z" />
<glyph unicode="k" horiz-adv-x="1097" d="M184 0v1458h148v-975l454 525h185l-342 -385l401 -623h-182l-320 516l-196 -225v-291h-148z" />
<glyph unicode="l" horiz-adv-x="608" d="M180 268v1190h148v-1184q0 -74 28.5 -110.5t106.5 -36.5h80v-127h-107q-131 0 -193.5 77t-62.5 191z" />
<glyph unicode="m" horiz-adv-x="1800" d="M184 0v1008h148v-111q53 61 125.5 92t158.5 31q104 0 183.5 -42t126.5 -126q119 168 331 168q82 0 147.5 -24.5t113.5 -69.5q109 -104 108 -281v-645h-147v621q0 135 -66.5 201.5t-181.5 66.5q-111 0 -181.5 -65.5t-70.5 -186.5v-637h-148v621q0 135 -66.5 201.5 t-180.5 66.5q-115 0 -183.5 -67.5t-68.5 -200.5v-621h-148z" />
<glyph unicode="n" horiz-adv-x="1150" d="M184 0v1008h148v-111q109 123 282 123q164 0 258 -94q104 -102 105 -281v-645h-148v621q0 135 -66.5 201.5t-180.5 66.5q-115 0 -182.5 -67.5t-67.5 -200.5v-621h-148z" />
<glyph unicode="o" horiz-adv-x="1085" d="M131 504q0 117 23.5 220t99.5 181q53 53 125 84t164 31t163.5 -31t124.5 -84q39 -39 63 -85t37 -96t18 -105.5t5 -114.5q0 -57 -5 -113.5t-18 -107t-37 -96.5t-63 -85q-53 -53 -124.5 -83.5t-163.5 -30.5t-164 30.5t-125 83.5q-76 78 -99.5 181.5t-23.5 220.5zM279 504 q0 -43 2 -86t11 -84t25.5 -77t42.5 -64q74 -74 183 -74q111 0 184 74q29 29 44 64.5t23.5 76.5t10.5 84t2 86t-2 86t-10.5 84t-23.5 77.5t-44 63.5q-74 74 -184 74q-109 0 -183 -74q-27 -27 -43 -63.5t-25 -77.5t-11 -84t-2 -86z" />
<glyph unicode="p" horiz-adv-x="1116" d="M184 -451v1459h148v-119q61 80 130.5 105.5t153.5 25.5q78 0 141.5 -23.5t104.5 -64.5q39 -39 62.5 -88t37 -105.5t18.5 -116t5 -118.5t-5 -118.5t-18.5 -116t-37 -105.5t-62.5 -88q-41 -41 -104.5 -64.5t-141.5 -23.5q-84 0 -153.5 26.5t-130.5 104.5v-570h-148z M332 504q0 -74 9 -143.5t35.5 -123t77 -86t132.5 -32.5t132 32.5t76.5 86t35 123t8.5 143.5t-8.5 143.5t-35 122.5t-76.5 86t-132 33t-132.5 -33t-77 -86t-35.5 -122.5t-9 -143.5z" />
<glyph unicode="q" horiz-adv-x="1116" d="M131 504q0 59 5 118.5t18.5 116t37 105.5t62.5 88q41 41 104.5 64.5t141.5 23.5q84 0 154.5 -25.5t131.5 -105.5v119h146v-1459h-148v570q-61 -78 -130.5 -104.5t-153.5 -26.5q-78 0 -141.5 23.5t-104.5 64.5q-39 39 -62.5 88t-37 105.5t-18.5 115.5t-5 119zM279 504 q0 -74 9 -143.5t35.5 -123t77 -86t131.5 -32.5q82 0 132.5 32.5t77 86t34.5 123t8 143.5t-8 143.5t-34.5 122.5t-77 86t-132.5 33t-132 -33t-76.5 -86t-35.5 -122.5t-9 -143.5z" />
<glyph unicode="r" horiz-adv-x="862" d="M184 0v1008h148v-123q41 63 117.5 99t164.5 36q72 0 130.5 -20.5t111.5 -73.5l-108 -111q-41 41 -78 57.5t-97 16.5q-55 0 -100 -20.5t-75.5 -57.5t-48 -86t-17.5 -107v-618h-148z" />
<glyph unicode="s" horiz-adv-x="1015" d="M88 133l98 98q59 -63 139.5 -89.5t174.5 -26.5q125 0 196.5 44t71.5 134q0 66 -40 102.5t-128 44.5l-166 15q-147 12 -224 78.5t-77 191.5q0 70 27.5 124t77 92t118 58.5t148.5 20.5q109 0 202 -26.5t160 -82.5l-96 -96q-53 41 -121.5 60.5t-146.5 19.5 q-111 0 -168.5 -44t-57.5 -122q0 -66 40 -102.5t137 -44.5l161 -15q66 -6 121.5 -22.5t94 -49t60 -80.5t21.5 -120q0 -74 -29.5 -130t-84 -96t-129 -60.5t-166.5 -20.5q-129 0 -229.5 32.5t-184.5 112.5z" />
<glyph unicode="t" horiz-adv-x="679" d="M82 889v112h127v316h147v-316h215v-112h-215v-615q0 -70 33 -108.5t105 -38.5h77v-127h-104q-63 0 -112.5 21.5t-81 58.5t-48 86t-16.5 104v619h-127z" />
<glyph unicode="u" horiz-adv-x="1150" d="M174 365v643h148v-621q0 -135 65.5 -201.5t179.5 -66.5q115 0 183.5 67.5t68.5 200.5v621h148v-1008h-146v113q-53 -61 -125.5 -93t-158.5 -32q-166 0 -261 94q-53 53 -77.5 123.5t-24.5 159.5z" />
<glyph unicode="v" horiz-adv-x="915" d="M23 1008h159l275 -809l276 809h160l-371 -1008h-131z" />
<glyph unicode="w" horiz-adv-x="1482" d="M23 1008h159l232 -809l264 809h127l266 -809l229 809h160l-317 -1008h-137l-265 782l-262 -782h-137z" />
<glyph unicode="x" horiz-adv-x="978" d="M68 0l342 514l-328 494h178l232 -373l227 373h178l-328 -494l342 -514h-178l-241 391l-246 -391h-178z" />
<glyph unicode="y" horiz-adv-x="915" d="M23 1008h159l277 -809l274 809h160l-459 -1252q-29 -80 -72 -118q-41 -39 -92 -54.5t-104 -15.5h-64v131h45q39 0 65 6t44 21.5t31.5 39t25.5 58.5l72 196z" />
<glyph unicode="z" horiz-adv-x="940" d="M102 0v127l562 750h-531v131h701v-125l-564 -752h564v-131h-732z" />
<glyph unicode="{" horiz-adv-x="724" d="M98 664v131h54q29 0 52 10t40 26q37 37 37 123v392q0 80 13 123.5t48 78.5q33 33 81 47.5t126 14.5h76v-131h-47q-53 0 -79 -5.5t-42 -21.5t-22.5 -47t-6.5 -86v-385q0 -88 -35 -132t-94 -73q59 -29 94 -73t35 -132v-385q0 -55 6 -85.5t23 -47.5q16 -16 41.5 -21t79.5 -5 h47v-132h-76q-78 0 -126 14.5t-81 47.5q-35 35 -48 79t-13 124v391q0 86 -37 123q-16 16 -40 26.5t-52 10.5h-54z" />
<glyph unicode="|" horiz-adv-x="667" d="M260 -152v1762h148v-1762h-148z" />
<glyph unicode="}" horiz-adv-x="724" d="M98 -20h49q53 0 78 5t41 21t23.5 47t7.5 86v385q0 88 35 132t94 73q-59 29 -94 73t-35 132v385q0 55 -7 86t-24 47q-16 16 -40.5 21.5t-78.5 5.5h-49v131h78q78 0 126 -14.5t81 -47.5q35 -35 48 -79t13 -123v-392q0 -86 37 -123q16 -16 40 -26t52 -10h52v-131h-52 q-29 0 -52 -10.5t-40 -26.5q-37 -37 -37 -123v-391q0 -80 -13 -124t-48 -79q-33 -33 -81 -47.5t-126 -14.5h-78v132z" />
<glyph unicode="~" horiz-adv-x="1103" d="M100 543q43 43 77 70.5t63.5 43t59.5 20.5t65 5q53 0 104 -18.5t111 -45.5q43 -20 80.5 -34.5t78.5 -14.5q23 0 40.5 3t37 13.5t42 28t52.5 48.5l93 -93q-43 -43 -77 -69.5t-63.5 -42t-59.5 -21.5t-65 -6q-53 0 -105 18.5t-112 45.5q-43 20 -81 34.5t-79 14.5 q-20 0 -38.5 -3t-38 -13.5t-42 -28t-53.5 -47.5z" />
<glyph horiz-adv-x="1251" d="M25 0l536 1458h131l535 -1458h-166l-117 330h-637l-117 -330h-165zM354 465h545l-270 770zM376 1776q0 49 19.5 93t52.5 77t77 52.5t93 19.5t93 -18.5t77 -51.5t52.5 -77t19.5 -95q0 -49 -19.5 -94t-52.5 -78t-77 -52.5t-93 -19.5t-93 19.5t-77 52.5t-52.5 78t-19.5 94z M477 1776q0 -59 41 -100t100 -41t100 41t41 100t-41 99t-100 40t-100 -40t-41 -99z" />
<glyph horiz-adv-x="1011" d="M129 504q0 129 34 226t94 161.5t142 96.5t176 32q104 0 179 -33t153 -117l-100 -94q-57 63 -108.5 88t-123.5 25q-74 0 -133 -29t-100 -86q-35 -49 -50.5 -111.5t-15.5 -158.5t15.5 -158.5t50.5 -112.5q41 -57 100.5 -85.5t132.5 -28.5q72 0 123.5 25.5t108.5 88.5 l100 -96q-66 -72 -126 -104.5t-138 -40.5v-217h-143v219q-80 12 -148.5 49t-118 101.5t-77 153.5t-27.5 206z" />
<glyph horiz-adv-x="1085" d="M129 504q0 246 110.5 381t303.5 135q197 0 305 -131t108 -357v-67h-680q0 -166 76 -257t221 -91q88 0 146.5 27.5t118.5 86.5l100 -88q-39 -39 -77 -67.5t-81 -48t-94 -29.5t-117 -10q-100 0 -181 30.5t-138 94t-89 161t-32 230.5zM276 575h533q-2 61 -8 94t-23 74 q-29 70 -92 111t-143 41t-143.5 -41t-92.5 -111q-8 -20 -13 -37.5t-8 -36t-5 -41t-5 -53.5zM449 1217l180 313h176l-221 -313h-135z" />
<glyph horiz-adv-x="1085" d="M129 504q0 246 110.5 381t303.5 135q197 0 305 -131t108 -357v-67h-680q0 -166 76 -257t221 -91q88 0 146.5 27.5t118.5 86.5l100 -88q-39 -39 -77 -67.5t-81 -48t-94 -29.5t-117 -10q-100 0 -181 30.5t-138 94t-89 161t-32 230.5zM276 575h533q-2 61 -8 94t-23 74 q-29 70 -92 111t-143 41t-143.5 -41t-92.5 -111q-8 -20 -13 -37.5t-8 -36t-5 -41t-5 -53.5zM293 1530h176l180 -313h-135z" />
<glyph horiz-adv-x="1085" d="M129 504q0 246 110.5 381t303.5 135q197 0 305 -131t108 -357v-67h-680q0 -166 76 -257t221 -91q88 0 146.5 27.5t118.5 86.5l100 -88q-39 -39 -77 -67.5t-81 -48t-94 -29.5t-117 -10q-100 0 -181 30.5t-138 94t-89 161t-32 230.5zM223 1217l256 313h140l256 -313h-142 l-184 213l-184 -213h-142zM276 575h533q-2 61 -8 94t-23 74q-29 70 -92 111t-143 41t-143.5 -41t-92.5 -111q-8 -20 -13 -37.5t-8 -36t-5 -41t-5 -53.5z" />
<glyph horiz-adv-x="1153" d="M174 365v643h148v-621q0 -135 65.5 -201.5t179.5 -66.5q115 0 183.5 67.5t68.5 200.5v621h148v-1008h-146v113q-53 -61 -125.5 -93t-158.5 -32q-166 0 -261 94q-53 53 -77.5 123.5t-24.5 159.5zM313 1530h176l180 -313h-135z" />
<glyph horiz-adv-x="1153" d="M174 365v643h148v-621q0 -135 65.5 -201.5t179.5 -66.5q115 0 183.5 67.5t68.5 200.5v621h148v-1008h-146v113q-53 -61 -125.5 -93t-158.5 -32q-166 0 -261 94q-53 53 -77.5 123.5t-24.5 159.5zM243 1217l256 313h140l256 -313h-142l-184 213l-184 -213h-142z" />
<glyph unicode="&#xa0;" horiz-adv-x="1239" d="M152 911v131h391v416h147v-416h397v-131h-397v-911h-147v911h-391z" />
<glyph unicode="&#xa1;" horiz-adv-x="948" d="M137 1141q0 70 26.5 131t73 106t108 72t130.5 27q70 0 131.5 -27t106.5 -72t71.5 -106t26.5 -131t-26.5 -131.5t-71.5 -106.5t-106.5 -71.5t-131.5 -26.5t-131 26.5t-107.5 71.5t-73 106.5t-26.5 131.5zM262 1141q0 -45 16.5 -85t45 -70t67.5 -46t84 -16t84 16t66.5 46 t44 70t16.5 85q0 47 -16.5 86t-45 68.5t-67.5 46t-84 16.5t-84 -16.5t-66.5 -46t-44 -68.5t-16.5 -86z" />
<glyph unicode="&#xa2;" horiz-adv-x="1019" d="M129 750q0 223 100.5 354t270.5 156v198h121v-194q92 -6 158.5 -40t138.5 -112l-101 -94q-51 57 -97 82.5t-108 29.5v-761q61 4 107.5 29.5t97.5 82.5l101 -94q-72 -78 -138.5 -111.5t-158.5 -39.5v-236h-121v240q-170 25 -270.5 155.5t-100.5 354.5zM276 750 q0 -96 16.5 -159t51.5 -112q63 -88 164 -106v753q-100 -18 -164 -106q-35 -49 -51.5 -111.5t-16.5 -158.5z" />
<glyph unicode="&#xa3;" horiz-adv-x="1122" d="M96 676v110h129v230q0 104 34 189t94.5 143.5t144.5 90t184 31.5q104 0 185 -31.5t149 -99.5l-107 -104q-39 41 -88 68.5t-139 27.5q-143 0 -221 -87t-78 -249v-209h299v-110h-299v-537h633v-139h-791v676h-129z" />
<glyph unicode="&#xa4;" horiz-adv-x="1140" d="M178 516q0 63 18.5 115.5t48 95.5t68.5 73.5t80 51.5q-88 41 -139 105.5t-51 177.5q0 74 27.5 136t76.5 106t117 68.5t147 24.5q80 0 147.5 -22.5t117 -63.5t78 -101t30.5 -134h-147q-8 102 -67.5 146t-158.5 44q-104 0 -162.5 -51t-58.5 -151q0 -82 47 -128t125 -69 l160 -45q135 -39 208 -137.5t73 -237.5q0 -63 -18.5 -115.5t-48.5 -95.5t-67.5 -73.5t-78.5 -51.5q88 -33 143 -107.5t55 -187.5q0 -80 -29.5 -145.5t-80 -111.5t-119 -70.5t-148.5 -24.5q-76 0 -144.5 20.5t-120.5 62.5t-85 103.5t-37 143.5h150q10 -96 71.5 -145.5 t165.5 -49.5t166 55.5t62 159.5q0 72 -47 128.5t-134 80.5l-159 45q-135 39 -208 136.5t-73 238.5zM328 518q0 -66 19.5 -111t47.5 -77q68 -74 176 -74q109 0 177 74q31 35 48 78.5t17 109.5q0 59 -13.5 104.5t-51.5 84.5q-74 74 -177 73q-109 0 -176 -73q-35 -39 -51 -82 t-16 -107z" />
<glyph unicode="&#xa5;" horiz-adv-x="1089" d="M211 684q0 70 26.5 130t71.5 105.5t105.5 72t130.5 26.5t130 -26.5t105 -72t72 -105.5t27 -130t-27 -130t-72 -105.5t-105.5 -72t-129.5 -26.5q-70 0 -130.5 26.5t-105.5 72t-71.5 105.5t-26.5 130z" />
<glyph unicode="&#xa6;" horiz-adv-x="1234" d="M86 1061q0 82 29.5 154.5t87 126t140.5 85t187 31.5h494v-1909h-147v1770h-240v-1770h-148v1119q-92 0 -166.5 32.5t-127 88t-81 126t-28.5 146.5z" />
<glyph unicode="&#xa7;" horiz-adv-x="1138" d="M184 0v1073q0 193 111 296.5t301 103.5q82 0 153.5 -20.5t126 -61.5t85 -105.5t30.5 -152.5q0 -86 -33.5 -144.5t-95.5 -99.5q74 -39 101.5 -93.5t27.5 -152.5v-354q0 -141 -80 -215q-41 -39 -90 -56.5t-121 -17.5h-110v127h82q45 0 69.5 9t51.5 32q51 41 51 137v346 q0 84 -43 127t-121 43h-90v123h74q80 0 130 50t50 136q0 45 -17.5 85t-46.5 69q-61 59 -192 59q-137 0 -195.5 -76.5t-58.5 -199.5v-1067h-150z" />
<glyph unicode="&#xa8;" horiz-adv-x="1804" d="M160 729q0 154 58 289t158.5 235.5t236 158.5t288.5 58q154 0 289 -58t235.5 -158.5t158.5 -235.5t58 -289t-58 -289t-158.5 -235.5t-235.5 -158.5t-289 -58t-289 58t-235.5 158.5t-158.5 235.5t-58 289zM279 729q0 -131 49 -245.5t133 -200.5t197.5 -136.5t242.5 -50.5 t242.5 50.5t198.5 136.5t134.5 200.5t49.5 245.5t-49.5 246t-134.5 201t-198.5 136t-242.5 50t-242.5 -50t-197.5 -136t-133 -201t-49 -246zM659 324v813h277q53 0 99 -18.5t81 -51.5t55.5 -78t20.5 -96q0 -90 -49 -145.5t-125 -77.5l194 -346h-131l-186 331h-123v-331h-113 zM772 752h152q68 0 110.5 40t42.5 101t-43 102t-110 41h-152v-284z" />
<glyph unicode="&#xa9;" horiz-adv-x="1804" d="M160 729q0 154 58 289t158.5 235.5t236 158.5t288.5 58q154 0 289 -58t235.5 -158.5t158.5 -235.5t58 -289t-58 -289t-158.5 -235.5t-235.5 -158.5t-289 -58t-289 58t-235.5 158.5t-158.5 235.5t-58 289zM281 729q0 -129 48 -243.5t133 -200.5t197.5 -136.5t241.5 -50.5 t242.5 50.5t197.5 136.5t133.5 200.5t49.5 243.5t-49.5 243.5t-133.5 201t-197.5 136.5t-242.5 50t-241.5 -50t-197.5 -136.5t-133 -201t-48 -243.5zM547 729q0 90 23.5 167t69.5 132t114.5 87t156.5 32q86 0 145.5 -26.5t123.5 -82.5l-74 -73q-51 45 -94 62t-101 17 q-70 0 -118 -24.5t-76.5 -67.5t-41.5 -100t-13 -123q0 -63 13 -120.5t41.5 -100.5t77 -67.5t117.5 -24.5q57 0 100.5 16.5t94.5 61.5l74 -74q-59 -53 -121 -80t-148 -27q-88 0 -156.5 32t-114.5 87t-69.5 131t-23.5 166z" />
<glyph unicode="&#xaa;" horiz-adv-x="1718" d="M74 1350v108h604v-108h-244v-766h-119v766h-241zM831 584v874h119l267 -530l266 530h116v-874h-116v630l-209 -413h-115l-209 413v-630h-119z" />
<glyph unicode="&#xab;" horiz-adv-x="1024" d="M412 1217l180 313h176l-221 -313h-135z" />
<glyph unicode="&#xac;" horiz-adv-x="1024" d="M221 1233v182h148v-182h-148zM655 1233v182h148v-182h-148z" />
<glyph unicode="&#xad;" horiz-adv-x="1099" d="M106 164l138 145h-138v135h259l202 211h-461v138h582l213 227l92 -84l-137 -143h137v-138h-258l-200 -211h458v-135h-581l-211 -227z" />
<glyph unicode="&#xae;" horiz-adv-x="1888" d="M16 0l770 1458h990v-139h-750v-518h639v-139h-639v-523h750v-139h-904v346h-505l-181 -346h-170zM434 481h438v838z" />
<glyph unicode="&#xaf;" horiz-adv-x="1335" d="M156 729q0 117 2 204t15 155.5t41 124t79 106.5q152 152 373 151q143 0 256 -63l69 141h133l-102 -213l8 -8l8 -8q51 -51 79 -106.5t41 -124t15.5 -155.5t2.5 -204t-2.5 -204t-15.5 -155.5t-40.5 -124t-79.5 -106.5q-74 -74 -168 -112.5t-204 -38.5q-143 0 -258 65 l-68 -143h-133l102 213l-16 16q-51 51 -79 106.5t-41 124t-15 155.5t-2 204zM311 729q0 -100 2 -172t10.5 -126t21.5 -92t38 -71l479 1004q-43 29 -93 44t-103 15q-72 0 -138.5 -27.5t-113.5 -76.5q-35 -35 -55.5 -75t-31 -95.5t-13.5 -134t-3 -193.5zM469 186 q43 -29 93 -44t104 -15q72 0 138 27.5t114 76.5q35 35 54 75t29.5 95.5t13.5 134t3 193.5q0 100 -2 172t-9.5 126t-20.5 92t-38 71z" />
<glyph unicode="&#xb0;" horiz-adv-x="1654" d="M137 547q0 70 23.5 129t66.5 103t103.5 69.5t134.5 25.5q102 0 186 -53t176 -164q92 111 174 164t191 53q74 0 133 -25.5t102 -69.5t66 -103t23 -129t-23 -129.5t-66 -103.5t-102 -68.5t-133 -24.5q-106 0 -190 51.5t-175 161.5q-90 -111 -174 -163t-188 -52 q-74 0 -134.5 25.5t-103.5 69.5t-66.5 103.5t-23.5 129.5zM279 545q0 -86 53 -138.5t137 -52.5q76 0 134 52.5t130 138.5q-72 86 -130 139t-134 53q-84 0 -137 -53t-53 -139zM920 545q72 -86 131 -138.5t135 -52.5q84 0 136 52.5t52 138.5t-52 138t-136 52q-76 0 -135.5 -52 t-130.5 -138z" />
<glyph unicode="&#xb1;" d="M106 0v137h857v-137h-857zM106 592v137h361v358h137v-358h359v-137h-359v-363h-137v363h-361z" />
<glyph unicode="&#xb2;" horiz-adv-x="2103" d="M387 59v1155h1157l135 -137l-1054 2l1140 -1142l-100 -101l-1141 1143v-1057z" />
<glyph unicode="&#xb3;" horiz-adv-x="2103" d="M338 -63l1141 1142l-1055 -2l135 137h1157v-1155l-137 -137v1057l-1141 -1143z" />
<glyph unicode="&#xb4;" horiz-adv-x="1052" d="M16 1458h168l344 -698l342 698h166l-321 -637h205v-110h-261l-53 -109v-106h314v-113h-314v-383h-157v383h-316v113h316v106l-54 109h-262v110h205z" />
<glyph unicode="&#xb5;" horiz-adv-x="1148" d="M170 -451v1459h147v-621q0 -135 67 -201.5t181 -66.5q115 0 183.5 67.5t68.5 200.5v621h148v-1008h-148v113q-109 -125 -282 -125q-135 0 -218 75v-514h-147z" />
<glyph unicode="&#xb6;" horiz-adv-x="1114" d="M135 500q0 125 21.5 227t95.5 178q41 43 108.5 76t157.5 33q74 0 138.5 -23.5t123.5 -95.5v143q0 61 -15 116.5t-49 97.5t-86 66.5t-126 24.5q-43 0 -76 -7t-60.5 -19t-52 -31.5t-53.5 -44.5l-94 94q41 37 77 62.5t75.5 42t85 23.5t102.5 7q102 0 181 -31.5t132 -90 t80 -140.5t27 -180v-528q0 -117 -21.5 -219.5t-95.5 -180.5q-49 -53 -118.5 -82.5t-160.5 -29.5q-90 0 -160.5 29.5t-119.5 82.5q-74 78 -95.5 180.5t-21.5 219.5zM283 500q0 -43 2 -86t10 -83t22.5 -75t40.5 -63q70 -74 174 -74q102 0 173 74q27 29 42 63.5t22 74.5t9 83 t2 86t-2 86t-9 83t-22.5 76.5t-41.5 63.5q-70 74 -173 74q-104 0 -174 -74q-27 -27 -41 -63.5t-22 -76.5t-10 -83t-2 -86z" />
<glyph unicode="&#xb8;" horiz-adv-x="1425" d="M211 -451v2007h1003v-2007h-155v1868h-692v-1868h-156z" />
<glyph unicode="&#xb9;" horiz-adv-x="1210" d="M207 0v1008h797v-1008h-142v874h-512v-874h-143z" />
<glyph unicode="&#xba;" horiz-adv-x="761" d="M76 -319h80q76 0 112.5 40.5t36.5 116.5v1340q0 131 73 208.5t206 77.5h100v-127h-78q-76 0 -112.5 -41t-36.5 -116v-1340q0 -131 -73 -208.5t-206 -77.5h-102v127z" />
<glyph unicode="&#xbb;" horiz-adv-x="919" d="M115 879q0 106 70.5 169.5t205.5 63.5h236v74q0 86 -44 129t-155 43q-76 0 -120 -19.5t-81 -70.5l-84 75q55 72 122 97.5t165 25.5q162 0 240 -69.5t78 -200.5v-543h-119v74q-47 -47 -98.5 -65.5t-129.5 -18.5q-84 0 -135 17.5t-90 56.5q-61 66 -61 162zM236 883 q0 -68 41.5 -100.5t134.5 -32.5q51 0 95 8t81 43q39 37 39 137v82h-219q-172 0 -172 -137z" />
<glyph unicode="&#xbc;" horiz-adv-x="931" d="M137 1055q0 92 18.5 174t80.5 145q41 41 98 66.5t131 25.5t131 -25.5t98 -66.5q61 -63 80 -145t19 -174q0 -94 -18.5 -175t-80.5 -145q-41 -41 -98 -65.5t-131 -24.5t-131.5 24.5t-97.5 65.5q-61 63 -80 144.5t-19 175.5zM260 1055q0 -66 9.5 -132.5t52.5 -109.5 q29 -29 65.5 -44t77.5 -15t78 15t65 44q43 43 53.5 109.5t10.5 132.5t-10.5 133t-53.5 110q-57 57 -143 58q-86 0 -143 -58q-43 -43 -52.5 -110.5t-9.5 -132.5z" />
<glyph unicode="&#xbd;" horiz-adv-x="1331" d="M156 0v137h168q-41 35 -68 68t-45 69q-23 43 -34 96.5t-16 112t-5 121v125.5q0 117 2 204t15 155.5t41 124t79 106.5q152 152 373 151q221 0 372 -151q51 -51 79 -106.5t41 -124t15.5 -155.5t2.5 -204v-125.5t-5.5 -121t-16.5 -112t-34 -96.5q-18 -37 -45.5 -69.5 t-68.5 -67.5h170v-137h-400v131q61 29 107.5 63.5t81.5 92.5q35 57 44 161.5t9 276.5q0 115 -3 194.5t-13.5 136t-30 96.5t-53.5 75q-49 49 -115 76.5t-137 27.5q-72 0 -137.5 -27.5t-114.5 -76.5q-33 -35 -53.5 -75t-32 -96.5t-14.5 -136t-3 -194.5q0 -172 10.5 -276.5 t45.5 -161.5t81 -92t107 -64v-131h-399z" />
<glyph unicode="&#xbe;" horiz-adv-x="1710" d="M104 285q0 133 89.5 211.5t259.5 78.5h303v97q0 111 -59.5 166t-198.5 55q-98 0 -153.5 -25.5t-100.5 -89.5l-101 92q68 88 151 119t206 31q270 0 354 -158q106 158 315 158q197 0 305.5 -131t108.5 -357v-67h-682q0 -166 77 -257t222 -91q88 0 145.5 27.5t116.5 86.5 l103 -88q-76 -76 -160 -115.5t-213 -39.5q-119 0 -211 42t-147 132q-70 -98 -154 -136t-215 -38q-104 0 -171 21.5t-114 70.5q-37 37 -56.5 91t-19.5 114zM248 287q0 -88 55 -130t176 -42q66 0 122 10t104 57q51 49 51 174v109h-283q-225 0 -225 -178zM901 575h535 q-2 61 -8.5 94t-22.5 74q-29 70 -92.5 111t-143.5 41t-143 -41t-92 -111q-16 -41 -22.5 -73.5t-10.5 -94.5z" />
<glyph unicode="&#xbf;" horiz-adv-x="1085" d="M131 504q0 117 23.5 220t99.5 181q53 53 125 84t164 31q63 0 116.5 -14.5t98.5 -40.5l80 133h114l-116 -197q74 -78 96 -179t22 -218q0 -57 -5 -113.5t-18 -107t-37 -96.5t-63 -85q-53 -53 -124.5 -83.5t-163.5 -30.5q-63 0 -116.5 14t-98.5 41l-78 -133h-117l117 196 q-74 78 -96.5 179.5t-22.5 218.5zM279 504q0 -72 8 -144.5t43 -128.5l360 615q-61 43 -147 43q-109 0 -183 -74q-27 -27 -43 -63.5t-25 -77.5t-11 -84t-2 -86zM395 164q63 -45 148 -45q111 0 184 74q29 29 44 64.5t23.5 76.5t10.5 84t2 86q0 72 -7 144.5t-42 127.5z" />
<glyph unicode="&#xc0;" horiz-adv-x="1017" d="M94 -88q0 72 26.5 129t67.5 117l168 241q18 29 27.5 62t9.5 57v82h148v-84q0 -59 -16.5 -102t-49.5 -90l-166 -238q-29 -43 -48 -82t-19 -92q0 -104 66.5 -173t170.5 -69q55 0 98.5 19.5t74 53.5t47 77t16.5 92h147q0 -78 -28.5 -146.5t-80 -120t-121 -80t-153.5 -28.5 q-80 0 -150.5 27.5t-122.5 78t-82 119t-30 150.5zM379 836v172h174v-172h-174z" />
<glyph unicode="&#xc1;" horiz-adv-x="647" d="M203 836v172h176v-172h-176zM207 -451l20 1049h127l23 -1049h-170z" />
<glyph unicode="&#xc2;" d="M104 492v137h861v-418h-138v281h-723z" />
<glyph unicode="&#xc3;" horiz-adv-x="1150" d="M16 1008h162l236 -729l377 1179h299v-139h-183l-432 -1319h-125z" />
<glyph unicode="&#xc4;" horiz-adv-x="825" d="M61 676v110h222l69 406q10 55 35 104.5t63.5 86t91 58t115.5 21.5h107v-127h-102q-72 0 -111 -39t-51 -108l-70 -402h215v-110h-235l-199 -1127h-148l199 1127h-201z" />
<glyph unicode="&#xc5;" horiz-adv-x="1103" d="M100 360q43 43 77 71t63.5 43t59.5 20.5t65 5.5q53 0 105 -18.5t112 -45.5q43 -20 79.5 -34.5t77.5 -14.5q23 0 40.5 3t37 13.5t42 28t52.5 47.5l93 -92q-43 -43 -77 -69.5t-63.5 -42t-59.5 -21.5t-65 -6q-53 0 -105 18.5t-112 44.5q-43 20 -79.5 34.5t-77.5 14.5 q-20 0 -39 -3t-38.5 -13t-42 -27.5t-52.5 -48.5zM100 723q43 43 77 70.5t63.5 43t59.5 21.5t65 6q53 0 104 -19.5t111 -45.5q43 -20 80.5 -33.5t78.5 -13.5q23 0 40.5 3t37 12t42 26.5t52.5 48.5l93 -92q-43 -43 -77 -70t-63.5 -42t-59.5 -21.5t-65 -6.5q-53 0 -105 19.5 t-112 46.5q-43 20 -81 33.5t-79 13.5q-20 0 -38.5 -3t-38 -12.5t-42 -26.5t-53.5 -48z" />
<glyph unicode="&#xc6;" horiz-adv-x="1234" d="M16 0l537 1458h129l535 -1458h-1201zM221 135h793l-396 1100z" />
<glyph unicode="&#xc7;" horiz-adv-x="1134" d="M82 549l430 430v-184l-246 -246l246 -248v-182zM545 549l430 430v-184l-248 -246l248 -248v-182z" />
<glyph unicode="&#xc8;" horiz-adv-x="1134" d="M160 119v182l248 248l-248 246v184l430 -430zM623 119v182l245 248l-245 246v184l430 -430z" />
<glyph unicode="&#xc9;" horiz-adv-x="1550" d="M180 0v188h189v-188h-189zM680 0v188h188v-188h-188zM1182 0v188h188v-188h-188z" />
<glyph unicode="&#xca;" horiz-adv-x="509" />
<glyph unicode="&#xcb;" horiz-adv-x="1251" d="M25 0l536 1458h131l535 -1458h-166l-117 330h-637l-117 -330h-165zM354 465h545l-270 770zM362 1913h176l180 -313h-135z" />
<glyph unicode="&#xcc;" horiz-adv-x="1251" d="M25 0l536 1458h131l535 -1458h-166l-117 330h-637l-117 -330h-165zM288 1726q35 35 62.5 55.5t50 32t43 14.5t39.5 3q45 0 75.5 -13.5t69.5 -35.5q33 -20 58.5 -30.5t56.5 -10.5q23 0 49.5 10t71.5 55l76 -73q-70 -70 -115 -87.5t-80 -17.5q-43 0 -76 12.5t-69 34.5 q-29 16 -56.5 29.5t-58.5 13.5q-12 0 -23.5 -2t-26 -8t-31.5 -19.5t-40 -35.5zM354 465h545l-270 770z" />
<glyph unicode="&#xcd;" horiz-adv-x="1331" d="M156 729q0 117 2 204t15 155.5t41 124t79 106.5q152 152 373 151q221 0 372 -151q51 -51 79 -106.5t41 -124t15.5 -155.5t2.5 -204t-2.5 -204t-15.5 -155.5t-40.5 -124t-79.5 -106.5q-74 -74 -168 -112.5t-204 -38.5q-221 0 -373 151q-51 51 -79 106.5t-41 124t-15 155.5 t-2 204zM311 729q0 -115 3 -193.5t13.5 -134t31 -95.5t55.5 -75q47 -49 113.5 -76.5t138.5 -27.5t138 27.5t114 76.5q35 35 55 75t30.5 95.5t13.5 134t3 193.5t-3 193.5t-13.5 134t-31 95.5t-54.5 75q-47 49 -114 76.5t-138 27.5q-72 0 -138.5 -27.5t-113.5 -76.5 q-35 -35 -55.5 -75t-31 -95.5t-13.5 -134t-3 -193.5zM336 1726q35 35 62.5 55.5t50 32t43 14.5t39.5 3q45 0 75.5 -13.5t69.5 -35.5q33 -20 58.5 -30.5t56.5 -10.5q23 0 49.5 10t71.5 55l76 -73q-70 -70 -115 -87.5t-80 -17.5q-43 0 -76 12.5t-69 34.5q-29 16 -56.5 29.5 t-58.5 13.5q-12 0 -23.5 -2t-26 -8t-31.5 -19.5t-40 -35.5z" />
<glyph unicode="&#xce;" horiz-adv-x="2025" d="M156 729q0 117 2 204t15 156.5t41 124t79 105.5q152 152 371 151q109 0 197.5 -39.5t156.5 -123.5v151h889v-137h-733q0 -121 1 -261t1 -259h622v-131h-622q0 -123 -1 -266.5t-1 -266.5h737v-137h-893v152q-68 -84 -161 -124t-193 -40q-219 0 -371 151q-51 51 -79 105.5 t-41 124t-15 156.5t-2 204zM311 729q0 -115 3 -193.5t13.5 -134t31 -95.5t55.5 -75q47 -49 113.5 -76.5t138.5 -27.5t138 27.5t114 76.5q35 35 54 75t29.5 95.5t13.5 134t3 193.5t-3 193.5t-13.5 134t-30 95.5t-53.5 75q-47 49 -114 76.5t-138 27.5q-72 0 -138.5 -27.5 t-113.5 -76.5q-35 -35 -55.5 -75t-31 -95.5t-13.5 -134t-3 -193.5z" />
<glyph unicode="&#xcf;" horiz-adv-x="1763" d="M131 504q0 117 23.5 220t99.5 181q53 53 125 84t164 31q115 0 206 -51t138 -144q104 195 334 195q197 0 305 -131t108 -357v-67h-680q0 -166 76 -257t221 -91q88 0 146.5 27.5t118.5 86.5l100 -88q-39 -39 -77 -67.5t-81 -48t-94 -29.5t-117 -10q-254 0 -362 194 q-47 -92 -137.5 -143t-204.5 -51q-92 0 -164 30.5t-125 83.5q-76 78 -99.5 181.5t-23.5 220.5zM279 504q0 -43 2 -86t11 -84t25.5 -77t42.5 -64q74 -74 183 -74q111 0 184 74q29 29 44 64.5t23.5 76.5t10.5 84t2 86t-2 86t-10.5 84t-23.5 77.5t-44 63.5q-74 74 -184 74 q-109 0 -183 -74q-27 -27 -43 -63.5t-25 -77.5t-11 -84t-2 -86zM954 575h535q-4 61 -10 94t-23 74q-29 70 -92.5 111t-142.5 41q-80 0 -143.5 -41t-92.5 -111q-8 -20 -13 -37.5t-8 -36t-5.5 -41t-4.5 -53.5z" />
<glyph unicode="&#xd0;" d="M106 483v138h857v-138h-857z" />
<glyph unicode="&#xd1;" horiz-adv-x="1871" d="M156 483v140h1560v-140h-1560z" />
<glyph unicode="&#xd2;" horiz-adv-x="888" d="M180 1286v172l178 162v-334h-178zM528 1286v172l181 162v-334h-181z" />
<glyph unicode="&#xd3;" horiz-adv-x="888" d="M180 1124v334h178v-172zM528 1124v334h181v-172z" />
<glyph unicode="&#xd4;" horiz-adv-x="538" d="M180 1286v172l178 162v-334h-178z" />
<glyph unicode="&#xd5;" horiz-adv-x="538" d="M180 1124v334h178v-172z" />
<glyph unicode="&#xd6;" d="M104 483v138h861v-138h-861zM446 100v176h177v-176h-177zM446 827v177h177v-177h-177z" />
<glyph unicode="&#xd7;" horiz-adv-x="1329" d="M137 721l529 745l526 -745l-526 -746zM303 721l363 -522l360 522l-360 518z" />
<glyph unicode="&#xd8;" horiz-adv-x="913" d="M23 1008h159l277 -809l274 809h160l-459 -1252q-29 -80 -72 -118q-41 -39 -92 -54.5t-104 -15.5h-64v131h45q39 0 65 6t44 21.5t31.5 39t25.5 58.5l72 196zM168 1233v182h148v-182h-148zM602 1233v182h148v-182h-148z" />
<glyph unicode="&#xd9;" horiz-adv-x="1054" d="M16 1458h168l344 -698l340 698h168l-430 -856v-602h-155v602zM235 1616v182h148v-182h-148zM669 1616v182h148v-182h-148z" />
<glyph unicode="&#xda;" horiz-adv-x="1331" d="M156 729q0 117 2 204t15 155.5t41 124t79 106.5q152 152 373 151q104 0 191 -31.5t152.5 -90t107.5 -138.5t59 -176h-156q-31 139 -124 218t-230 79q-72 0 -138.5 -27.5t-113.5 -76.5q-35 -35 -55.5 -75t-31 -95.5t-13.5 -134t-3 -193.5t3 -193.5t13.5 -135t31 -96.5 t55.5 -75q47 -49 113.5 -75.5t138.5 -26.5q80 0 152.5 31.5t123.5 93.5q45 53 63.5 115.5t18.5 148.5v111h-358v137h514v-232q0 -127 -29 -216t-96 -160q-78 -84 -177.5 -126t-211.5 -42q-109 0 -204 39t-169 112q-51 51 -79 106.5t-41 124t-15 155.5t-2 204zM297 1608v137 h686v-137h-686z" />
<glyph unicode="&#xdb;" horiz-adv-x="1112" d="M131 512q0 123 23.5 233.5t99.5 186.5q41 41 104.5 64.5t141.5 23.5q84 0 152.5 -25.5t129.5 -105.5v119h146v-1039q0 -94 -29 -173t-82 -136t-132 -90t-177 -33q-57 0 -102.5 7t-85 23.5t-76.5 42t-78 62.5l96 95q29 -25 53.5 -43.5t52 -32t60.5 -19.5t76 -6 q74 0 126 24.5t86 65.5t49 97.5t15 121.5v158q-61 -78 -130.5 -104.5t-151.5 -26.5q-78 0 -140.5 24.5t-103.5 65.5q-76 76 -99.5 186.5t-23.5 233.5zM252 1294v117h618v-117h-618zM279 512q0 -70 8 -138.5t34.5 -120.5t77 -85t131.5 -33q82 0 131.5 33t76 85t34.5 120.5 t8 138.5q0 72 -8 139.5t-34.5 119.5t-76 85t-131.5 33t-132 -33t-76.5 -85t-34.5 -119.5t-8 -139.5z" />
<glyph unicode="&#xdc;" horiz-adv-x="577" d="M211 0v1458h156v-1458h-156zM211 1610v182h145v-182h-145z" />
<glyph unicode="&#xdd;" horiz-adv-x="518" d="M184 0v1008h148v-1008h-148z" />
<glyph unicode="&#xde;" horiz-adv-x="1204" d="M86 180l107 107q90 -90 182 -125t215 -35q160 0 252 70.5t92 199.5q0 57 -17.5 104.5t-52.5 78.5t-72.5 44t-117.5 25l-170 27q-174 29 -268 110q-111 98 -111 273q0 92 32.5 169t93 130t146.5 82.5t195 29.5q139 0 239.5 -37.5t194.5 -121.5l-100 -101q-68 61 -146 93 t-194 32q-147 0 -227 -73.5t-80 -196.5q0 -111 65 -168q35 -29 87 -49.5t110 -30.5l159 -24q102 -14 162 -38t105 -65q123 -104 123 -289q0 -176 -116 -283.5t-310 -125.5v-217h-144l-2 215q-137 8 -238.5 53t-193.5 137z" />
<glyph unicode="&#xdf;" horiz-adv-x="1015" d="M88 133l98 98q59 -63 139.5 -89.5t174.5 -26.5q125 0 196.5 44t71.5 134q0 66 -40 102.5t-128 44.5l-166 15q-147 12 -224 78.5t-77 191.5q0 70 27.5 124t77 92t118 58.5t148.5 20.5q109 0 202 -26.5t160 -82.5l-96 -96q-53 41 -121.5 60.5t-146.5 19.5 q-111 0 -168.5 -44t-57.5 -122q0 -66 40 -102.5t137 -44.5l161 -15q66 -6 121.5 -22.5t94 -49t60 -80.5t21.5 -120q0 -129 -90 -208t-241 -95v-217h-142l-2 217q-104 6 -190 38.5t-158 102.5z" />
<glyph unicode="&#xe0;" horiz-adv-x="1239" d="M152 -33v131h391v813h-391v131h391v416h147v-416h397v-131h-397v-813h397v-131h-397v-418h-147v418h-391z" />
<glyph unicode="&#xe1;" horiz-adv-x="552" d="M180 457v192h193v-192h-193z" />
<glyph unicode="&#xe2;" horiz-adv-x="538" d="M180 -162v334h178v-172z" />
<glyph unicode="&#xe3;" horiz-adv-x="888" d="M180 -162v334h178v-172zM528 -162v334h181v-172z" />
<glyph unicode="&#xe4;" horiz-adv-x="2414" d="M133 981v215q0 127 78 202t199 75q119 0 197.5 -75t78.5 -202v-215q0 -125 -79 -199.5t-197 -74.5q-121 0 -199 74.5t-78 199.5zM250 985q0 -84 38 -130t122 -46t121.5 47t37.5 129v207q0 82 -37.5 130t-121.5 48q-86 0 -123 -47t-37 -131v-207zM451 0l684 1458h122 l-684 -1458h-122zM1022 262v215q0 127 78 202t198 75q119 0 198 -75t79 -202v-215q0 -127 -79 -201.5t-198 -74.5q-121 0 -198.5 74.5t-77.5 201.5zM1139 266q0 -84 36.5 -131t122.5 -47q84 0 122 48t38 130v207q0 82 -38 130t-122 48q-86 0 -122.5 -47t-36.5 -131v-207z M1731 262v215q0 127 77.5 202t198.5 75q119 0 198 -75t79 -202v-215q0 -127 -79 -201.5t-198 -74.5q-121 0 -198.5 74.5t-77.5 201.5zM1847 266q0 -84 37 -131t123 -47q84 0 122 48t38 130v207q0 82 -38 130t-122 48q-86 0 -123 -47t-37 -131v-207z" />
<glyph unicode="&#xe5;" horiz-adv-x="1251" d="M25 0l536 1458h131l535 -1458h-166l-117 330h-637l-117 -330h-165zM292 1600l256 313h140l256 -313h-142l-184 213l-184 -213h-142zM354 465h545l-270 770z" />
<glyph unicode="&#xe6;" horiz-adv-x="1228" d="M211 0v1458h905v-139h-749v-514h639v-139h-639v-527h749v-139h-905zM315 1600l256 313h140l256 -313h-142l-184 213l-184 -213h-142z" />
<glyph unicode="&#xe7;" horiz-adv-x="1251" d="M25 0l536 1458h131l535 -1458h-166l-117 330h-637l-117 -330h-165zM354 465h545l-270 770zM518 1600l180 313h176l-221 -313h-135z" />
<glyph unicode="&#xe8;" horiz-adv-x="1228" d="M211 0v1458h905v-139h-749v-514h639v-139h-639v-527h749v-139h-905zM350 1616v182h148v-182h-148zM784 1616v182h148v-182h-148z" />
<glyph unicode="&#xe9;" horiz-adv-x="1228" d="M211 0v1458h905v-139h-749v-514h639v-139h-639v-527h749v-139h-905zM385 1913h176l180 -313h-135z" />
<glyph unicode="&#xea;" horiz-adv-x="577" d="M164 1600l180 313h176l-221 -313h-135zM211 0v1458h156v-1458h-156z" />
<glyph unicode="&#xeb;" horiz-adv-x="577" d="M-39 1600l256 313h140l256 -313h-142l-184 213l-184 -213h-142zM211 0v1458h156v-1458h-156z" />
<glyph unicode="&#xec;" horiz-adv-x="577" d="M-2 1616v182h148v-182h-148zM211 0v1458h156v-1458h-156zM432 1616v182h148v-182h-148z" />
<glyph unicode="&#xed;" horiz-adv-x="577" d="M66 1913h176l180 -313h-135zM211 0v1458h156v-1458h-156z" />
<glyph unicode="&#xee;" horiz-adv-x="1331" d="M156 729q0 117 2 204t15 155.5t41 124t79 106.5q152 152 373 151q221 0 372 -151q51 -51 79 -106.5t41 -124t15.5 -155.5t2.5 -204t-2.5 -204t-15.5 -155.5t-40.5 -124t-79.5 -106.5q-74 -74 -168 -112.5t-204 -38.5q-221 0 -373 151q-51 51 -79 106.5t-41 124t-15 155.5 t-2 204zM311 729q0 -115 3 -193.5t13.5 -134t31 -95.5t55.5 -75q47 -49 113.5 -76.5t138.5 -27.5t138 27.5t114 76.5q35 35 55 75t30.5 95.5t13.5 134t3 193.5t-3 193.5t-13.5 134t-31 95.5t-54.5 75q-47 49 -114 76.5t-138 27.5q-72 0 -138.5 -27.5t-113.5 -76.5 q-35 -35 -55.5 -75t-31 -95.5t-13.5 -134t-3 -193.5zM566 1600l180 313h176l-221 -313h-135z" />
<glyph unicode="&#xef;" horiz-adv-x="1331" d="M156 729q0 117 2 204t15 155.5t41 124t79 106.5q152 152 373 151q221 0 372 -151q51 -51 79 -106.5t41 -124t15.5 -155.5t2.5 -204t-2.5 -204t-15.5 -155.5t-40.5 -124t-79.5 -106.5q-74 -74 -168 -112.5t-204 -38.5q-221 0 -373 151q-51 51 -79 106.5t-41 124t-15 155.5 t-2 204zM311 729q0 -115 3 -193.5t13.5 -134t31 -95.5t55.5 -75q47 -49 113.5 -76.5t138.5 -27.5t138 27.5t114 76.5q35 35 55 75t30.5 95.5t13.5 134t3 193.5t-3 193.5t-13.5 134t-31 95.5t-54.5 75q-47 49 -114 76.5t-138 27.5q-72 0 -138.5 -27.5t-113.5 -76.5 q-35 -35 -55.5 -75t-31 -95.5t-13.5 -134t-3 -193.5zM340 1600l256 313h140l256 -313h-142l-184 213l-184 -213h-142z" />
<glyph unicode="&#xf1;" horiz-adv-x="1331" d="M156 729q0 117 2 204t15 155.5t41 124t79 106.5q152 152 373 151q221 0 372 -151q51 -51 79 -106.5t41 -124t15.5 -155.5t2.5 -204t-2.5 -204t-15.5 -155.5t-40.5 -124t-79.5 -106.5q-74 -74 -168 -112.5t-204 -38.5q-221 0 -373 151q-51 51 -79 106.5t-41 124t-15 155.5 t-2 204zM311 729q0 -115 3 -193.5t13.5 -134t31 -95.5t55.5 -75q47 -49 113.5 -76.5t138.5 -27.5t138 27.5t114 76.5q35 35 55 75t30.5 95.5t13.5 134t3 193.5t-3 193.5t-13.5 134t-31 95.5t-54.5 75q-47 49 -114 76.5t-138 27.5q-72 0 -138.5 -27.5t-113.5 -76.5 q-35 -35 -55.5 -75t-31 -95.5t-13.5 -134t-3 -193.5zM410 1913h176l180 -313h-135z" />
<glyph unicode="&#xf2;" horiz-adv-x="1396" d="M190 481v977h156v-964q0 -82 25.5 -151t71.5 -116t110.5 -73.5t144.5 -26.5t145.5 26.5t111.5 73.5t72 116t26 151v964h155v-977q0 -109 -37.5 -200t-106.5 -156.5t-162 -101t-204 -35.5t-204 35.5t-160.5 101t-105.5 157t-38 199.5zM598 1600l180 313h176l-221 -313 h-135z" />
<glyph unicode="&#xf3;" horiz-adv-x="1396" d="M190 481v977h156v-964q0 -82 25.5 -151t71.5 -116t110.5 -73.5t144.5 -26.5t145.5 26.5t111.5 73.5t72 116t26 151v964h155v-977q0 -109 -37.5 -200t-106.5 -156.5t-162 -101t-204 -35.5t-204 35.5t-160.5 101t-105.5 157t-38 199.5zM372 1600l256 313h140l256 -313h-142 l-184 213l-184 -213h-142z" />
<glyph unicode="&#xf4;" horiz-adv-x="1396" d="M190 481v977h156v-964q0 -82 25.5 -151t71.5 -116t110.5 -73.5t144.5 -26.5t145.5 26.5t111.5 73.5t72 116t26 151v964h155v-977q0 -109 -37.5 -200t-106.5 -156.5t-162 -101t-204 -35.5t-204 35.5t-160.5 101t-105.5 157t-38 199.5zM442 1913h176l180 -313h-135z" />
<glyph unicode="&#xf5;" horiz-adv-x="518" d="M184 0v1008h148v-1008h-148z" />
<glyph unicode="&#xf6;" horiz-adv-x="1024" d="M186 1217l256 313h140l256 -313h-142l-184 213l-184 -213h-142z" />
<glyph unicode="&#xf7;" horiz-adv-x="1024" d="M182 1343q35 35 62.5 55.5t50 32t43 14.5t39.5 3q45 0 75.5 -13.5t69.5 -35.5q33 -20 58.5 -30.5t56.5 -10.5q23 0 49.5 10t71.5 55l76 -73q-70 -70 -115 -87.5t-80 -17.5q-43 0 -76 12.5t-69 34.5q-29 16 -56.5 29.5t-58.5 13.5q-12 0 -23.5 -2t-26 -8t-31.5 -19.5 t-40 -35.5z" />
<glyph unicode="&#xf8;" horiz-adv-x="1024" d="M203 1257v117h618v-117h-618z" />
<glyph unicode="&#xf9;" horiz-adv-x="1024" d="M174 1489h119q10 -80 69.5 -124t153.5 -44t152.5 44t68.5 124h113q-25 -285 -334 -285q-317 0 -342 285z" />
<glyph unicode="&#xfa;" horiz-adv-x="1024" d="M430 1298v152h164v-152h-164z" />
<glyph unicode="&#xfb;" horiz-adv-x="1024" d="M270 1407q0 49 19.5 93t52.5 77t77 52.5t93 19.5t93 -18.5t77 -51.5t52.5 -77t19.5 -95q0 -49 -19.5 -94t-52.5 -78t-77 -52.5t-93 -19.5t-93 19.5t-77 52.5t-52.5 78t-19.5 94zM371 1407q0 -59 41 -100t100 -41t100 41t41 100t-41 99t-100 40t-100 -40t-41 -99z" />
<glyph unicode="&#xfc;" horiz-adv-x="1024" d="M358 -442l146 305h137l-121 -305h-162z" />
<glyph unicode="&#xfd;" horiz-adv-x="1024" d="M225 1217l183 313h174l-222 -313h-135zM559 1217l182 313h174l-223 -313h-133z" />
<glyph unicode="&#xfe;" horiz-adv-x="1024" d="M381 -137h135l146 -305h-160z" />
<glyph unicode="&#xff;" horiz-adv-x="1024" d="M186 1530h142l184 -215l184 215h142l-256 -313h-140z" />
<glyph unicode="&#x152;" horiz-adv-x="1077" d="M104 285q0 133 89.5 211.5t259.5 78.5h303v97q0 111 -59.5 166t-198.5 55q-98 0 -153.5 -25.5t-100.5 -89.5l-101 92q68 88 151 119t206 31q205 0 304 -85t99 -251v-684h-147v96q-31 -31 -61.5 -51t-64.5 -33.5t-74 -18.5t-91 -5q-104 0 -171 21.5t-114 70.5 q-37 37 -56.5 91t-19.5 114zM248 287q0 -88 55 -130t176 -42q66 0 122 10t104 57q51 49 51 174v109h-283q-225 0 -225 -178zM274 1407q0 49 19.5 93t52.5 77t77 52.5t93 19.5t93 -18.5t77 -51.5t52.5 -77t19.5 -95q0 -49 -19.5 -94t-52.5 -78t-77 -52.5t-93 -19.5t-93 19.5 t-77 52.5t-52.5 78t-19.5 94zM375 1407q0 -59 41 -100t100 -41t100 41t41 100t-41 99t-100 40t-100 -40t-41 -99z" />
<glyph unicode="&#x153;" horiz-adv-x="1153" d="M174 365v643h148v-621q0 -135 65.5 -201.5t179.5 -66.5q115 0 183.5 67.5t68.5 200.5v621h148v-1008h-146v113q-53 -61 -125.5 -93t-158.5 -32q-166 0 -261 94q-53 53 -77.5 123.5t-24.5 159.5zM469 1217l180 313h176l-221 -313h-135z" />
<glyph unicode="&#x178;" horiz-adv-x="1153" d="M174 365v643h148v-621q0 -135 65.5 -201.5t179.5 -66.5q115 0 183.5 67.5t68.5 200.5v621h148v-1008h-146v113q-53 -61 -125.5 -93t-158.5 -32q-166 0 -261 94q-53 53 -77.5 123.5t-24.5 159.5zM278 1233v182h148v-182h-148zM712 1233v182h148v-182h-148z" />
<glyph unicode="&#x2c6;" horiz-adv-x="1077" d="M104 285q0 133 89.5 211.5t259.5 78.5h303v97q0 111 -59.5 166t-198.5 55q-98 0 -153.5 -25.5t-100.5 -89.5l-101 92q68 88 151 119t206 31q205 0 304 -85t99 -251v-684h-147v96q-31 -31 -61.5 -51t-64.5 -33.5t-74 -18.5t-91 -5q-104 0 -171 21.5t-114 70.5 q-37 37 -56.5 91t-19.5 114zM248 287q0 -88 55 -130t176 -42q66 0 122 10t104 57q51 49 51 174v109h-283q-225 0 -225 -178zM260 1530h176l180 -313h-135z" />
<glyph unicode="&#x2dc;" horiz-adv-x="1085" d="M131 504q0 117 23.5 220t99.5 181q53 53 125 84t164 31t163.5 -31t124.5 -84q39 -39 63 -85t37 -96t18 -105.5t5 -114.5q0 -57 -5 -113.5t-18 -107t-37 -96.5t-63 -85q-53 -53 -124.5 -83.5t-163.5 -30.5t-164 30.5t-125 83.5q-76 78 -99.5 181.5t-23.5 220.5zM266 1530 h176l180 -313h-135zM279 504q0 -43 2 -86t11 -84t25.5 -77t42.5 -64q74 -74 183 -74q111 0 184 74q29 29 44 64.5t23.5 76.5t10.5 84t2 86t-2 86t-10.5 84t-23.5 77.5t-44 63.5q-74 74 -184 74q-109 0 -183 -74q-27 -27 -43 -63.5t-25 -77.5t-11 -84t-2 -86z" />
<glyph unicode="&#x2000;" horiz-adv-x="1009" />
<glyph unicode="&#x2001;" horiz-adv-x="2018" />
<glyph unicode="&#x2002;" horiz-adv-x="1009" />
<glyph unicode="&#x2003;" horiz-adv-x="2018" />
<glyph unicode="&#x2004;" horiz-adv-x="672" />
<glyph unicode="&#x2005;" horiz-adv-x="504" />
<glyph unicode="&#x2006;" horiz-adv-x="336" />
<glyph unicode="&#x2007;" horiz-adv-x="336" />
<glyph unicode="&#x2008;" horiz-adv-x="252" />
<glyph unicode="&#x2009;" horiz-adv-x="403" />
<glyph unicode="&#x200a;" horiz-adv-x="112" />
<glyph unicode="&#x2010;" horiz-adv-x="872" d="M156 483v138h561v-138h-561z" />
<glyph unicode="&#x2011;" horiz-adv-x="872" d="M156 483v138h561v-138h-561z" />
<glyph unicode="&#x2012;" horiz-adv-x="872" d="M156 483v138h561v-138h-561z" />
<glyph unicode="&#x2013;" horiz-adv-x="1150" d="M184 0v1008h148v-111q109 123 282 123q164 0 258 -94q104 -102 105 -281v-645h-148v621q0 135 -66.5 201.5t-180.5 66.5q-115 0 -182.5 -67.5t-67.5 -200.5v-621h-148zM254 1343q35 35 62.5 55.5t50 32t43 14.5t39.5 3q45 0 75.5 -13.5t69.5 -35.5q33 -20 58.5 -30.5 t56.5 -10.5q23 0 49.5 10t71.5 55l76 -73q-70 -70 -115 -87.5t-80 -17.5q-43 0 -76 12.5t-69 34.5q-29 16 -56.5 29.5t-58.5 13.5q-12 0 -23.5 -2t-26 -8t-31.5 -19.5t-40 -35.5z" />
<glyph unicode="&#x2014;" horiz-adv-x="1085" d="M131 504q0 117 23.5 220t99.5 181q53 53 125 84t164 31t163.5 -31t124.5 -84q39 -39 63 -85t37 -96t18 -105.5t5 -114.5q0 -57 -5 -113.5t-18 -107t-37 -96.5t-63 -85q-53 -53 -124.5 -83.5t-163.5 -30.5t-164 30.5t-125 83.5q-76 78 -99.5 181.5t-23.5 220.5zM279 504 q0 -43 2 -86t11 -84t25.5 -77t42.5 -64q74 -74 183 -74q111 0 184 74q29 29 44 64.5t23.5 76.5t10.5 84t2 86t-2 86t-10.5 84t-23.5 77.5t-44 63.5q-74 74 -184 74q-109 0 -183 -74q-27 -27 -43 -63.5t-25 -77.5t-11 -84t-2 -86zM443 1217l180 313h176l-221 -313h-135z" />
<glyph unicode="&#x2018;" horiz-adv-x="1085" d="M129 504q0 246 110.5 381t303.5 135q197 0 305 -131t108 -357v-67h-680q0 -166 76 -257t221 -91q88 0 146.5 27.5t118.5 86.5l100 -88q-39 -39 -77 -67.5t-81 -48t-94 -29.5t-117 -10q-100 0 -181 30.5t-138 94t-89 161t-32 230.5zM258 1233v182h148v-182h-148zM276 575 h533q-2 61 -8 94t-23 74q-29 70 -92 111t-143 41t-143.5 -41t-92.5 -111q-8 -20 -13 -37.5t-8 -36t-5 -41t-5 -53.5zM692 1233v182h148v-182h-148z" />
<glyph unicode="&#x2019;" horiz-adv-x="518" d="M138 1217l180 313h176l-221 -313h-135zM184 0v1008h148v-1008h-148z" />
<glyph unicode="&#x201a;" horiz-adv-x="1304" d="M156 729q0 117 2 204t15 155.5t41 124t79 106.5q74 74 169 112.5t204 38.5q98 0 182 -29.5t150.5 -85t110.5 -136t62 -183.5h-159q-29 135 -119 215t-227 80q-72 0 -138.5 -26.5t-113.5 -75.5q-35 -35 -55.5 -75t-31 -96.5t-13.5 -135t-3 -193.5t3 -193.5t13.5 -135 t31 -96.5t55.5 -75q47 -49 113.5 -75.5t138.5 -26.5q137 0 229 80t121 215h155q-31 -182 -141 -292t-272 -136v-219h-144v217q-92 8 -174 45t-147 102q-51 51 -79 106.5t-41 124t-15 155.5t-2 204z" />
<glyph unicode="&#x201c;" horiz-adv-x="518" d="M39 1530h176l180 -313h-135zM184 0v1008h148v-1008h-148z" />
<glyph unicode="&#x201d;" horiz-adv-x="518" d="M-66 1217l256 313h140l256 -313h-142l-184 213l-184 -213h-142zM184 0v1008h148v-1008h-148z" />
<glyph unicode="&#x201e;" horiz-adv-x="1499" d="M211 0v1458h147l775 -1165v1165h155v-1458h-147l-774 1169v-1169h-156zM420 1726q35 35 62.5 55.5t50 32t43 14.5t39.5 3q45 0 75.5 -13.5t69.5 -35.5q33 -20 58.5 -30.5t56.5 -10.5q23 0 49.5 10t71.5 55l76 -73q-70 -70 -115 -87.5t-80 -17.5q-43 0 -76 12.5t-69 34.5 q-29 16 -56.5 29.5t-58.5 13.5q-12 0 -23.5 -2t-26 -8t-31.5 -19.5t-40 -35.5z" />
<glyph unicode="&#x2022;" horiz-adv-x="518" d="M-35 1233v182h148v-182h-148zM184 0v1008h148v-1008h-148zM399 1233v182h148v-182h-148z" />
<glyph unicode="&#x2026;" horiz-adv-x="1331" d="M156 729q0 117 2 204t15 155.5t41 124t79 106.5q152 152 373 151q221 0 372 -151q51 -51 79 -106.5t41 -124t15.5 -155.5t2.5 -204t-2.5 -204t-15.5 -155.5t-40.5 -124t-79.5 -106.5q-74 -74 -168 -112.5t-204 -38.5q-221 0 -373 151q-51 51 -79 106.5t-41 124t-15 155.5 t-2 204zM311 729q0 -115 3 -193.5t13.5 -134t31 -95.5t55.5 -75q47 -49 113.5 -76.5t138.5 -27.5t138 27.5t114 76.5q35 35 55 75t30.5 95.5t13.5 134t3 193.5t-3 193.5t-13.5 134t-31 95.5t-54.5 75q-47 49 -114 76.5t-138 27.5q-72 0 -138.5 -27.5t-113.5 -76.5 q-35 -35 -55.5 -75t-31 -95.5t-13.5 -134t-3 -193.5zM375 1616v182h148v-182h-148zM809 1616v182h148v-182h-148z" />
<glyph unicode="&#x202f;" horiz-adv-x="403" />
<glyph unicode="&#x2039;" horiz-adv-x="1077" d="M104 285q0 133 89.5 211.5t259.5 78.5h303v97q0 111 -59.5 166t-198.5 55q-98 0 -153.5 -25.5t-100.5 -89.5l-101 92q68 88 151 119t206 31q205 0 304 -85t99 -251v-684h-147v96q-31 -31 -61.5 -51t-64.5 -33.5t-74 -18.5t-91 -5q-104 0 -171 21.5t-114 70.5 q-37 37 -56.5 91t-19.5 114zM186 1343q35 35 62.5 55.5t50 32t43 14.5t39.5 3q45 0 75.5 -13.5t69.5 -35.5q33 -20 58.5 -30.5t56.5 -10.5q23 0 49.5 10t71.5 55l76 -73q-70 -70 -115 -87.5t-80 -17.5q-43 0 -76 12.5t-69 34.5q-29 16 -56.5 29.5t-58.5 13.5q-12 0 -23.5 -2 t-26 -8t-31.5 -19.5t-40 -35.5zM248 287q0 -88 55 -130t176 -42q66 0 122 10t104 57q51 49 51 174v109h-283q-225 0 -225 -178z" />
<glyph unicode="&#x203a;" horiz-adv-x="1085" d="M131 504q0 117 23.5 220t99.5 181q53 53 125 84t164 31t163.5 -31t124.5 -84q39 -39 63 -85t37 -96t18 -105.5t5 -114.5q0 -57 -5 -113.5t-18 -107t-37 -96.5t-63 -85q-53 -53 -124.5 -83.5t-163.5 -30.5t-164 30.5t-125 83.5q-76 78 -99.5 181.5t-23.5 220.5zM213 1343 q35 35 62.5 55.5t50 32t43 14.5t39.5 3q45 0 75.5 -13.5t69.5 -35.5q33 -20 58.5 -30.5t56.5 -10.5q23 0 49.5 10t71.5 55l76 -73q-70 -70 -115 -87.5t-80 -17.5q-43 0 -76 12.5t-69 34.5q-29 16 -56.5 29.5t-58.5 13.5q-12 0 -23.5 -2t-26 -8t-31.5 -19.5t-40 -35.5z M279 504q0 -43 2 -86t11 -84t25.5 -77t42.5 -64q74 -74 183 -74q111 0 184 74q29 29 44 64.5t23.5 76.5t10.5 84t2 86t-2 86t-10.5 84t-23.5 77.5t-44 63.5q-74 74 -184 74q-109 0 -183 -74q-27 -27 -43 -63.5t-25 -77.5t-11 -84t-2 -86z" />
<glyph unicode="&#x205f;" horiz-adv-x="504" />
<glyph unicode="&#x20ac;" horiz-adv-x="1251" d="M25 0l536 1458h131l535 -1458h-166l-117 330h-637l-117 -330h-165zM327 1616v182h148v-182h-148zM354 465h545l-270 770zM761 1616v182h148v-182h-148z" />
<glyph unicode="&#x2122;" horiz-adv-x="1085" d="M131 504q0 117 23.5 220t99.5 181q53 53 125 84t164 31t163.5 -31t124.5 -84q39 -39 63 -85t37 -96t18 -105.5t5 -114.5q0 -57 -5 -113.5t-18 -107t-37 -96.5t-63 -85q-53 -53 -124.5 -83.5t-163.5 -30.5t-164 30.5t-125 83.5q-76 78 -99.5 181.5t-23.5 220.5zM217 1217 l256 313h140l256 -313h-142l-184 213l-184 -213h-142zM279 504q0 -43 2 -86t11 -84t25.5 -77t42.5 -64q74 -74 183 -74q111 0 184 74q29 29 44 64.5t23.5 76.5t10.5 84t2 86t-2 86t-10.5 84t-23.5 77.5t-44 63.5q-74 74 -184 74q-109 0 -183 -74q-27 -27 -43 -63.5 t-25 -77.5t-11 -84t-2 -86z" />
<glyph unicode="&#x25fc;" horiz-adv-x="1003" d="M0 0v1004h1004v-1004h-1004z" />
</font>
</defs>
</svg>
