<?xml version="1.0" standalone="no"?>
<!DOCTYPE svg PUBLIC "-//W3C//DTD SVG 1.1//EN" "http://www.w3.org/Graphics/SVG/1.1/DTD/svg11.dtd" >
<svg xmlns="http://www.w3.org/2000/svg">
<metadata></metadata>
<defs>
<font id="dinbekregular" horiz-adv-x="1112" >
<font-face units-per-em="2048" ascent="1645" descent="-403" />
<missing-glyph horiz-adv-x="475" />
<glyph horiz-adv-x="0" />
<glyph horiz-adv-x="682" />
<glyph horiz-adv-x="1396" d="M76 629v217h141v612h526q123 0 225.5 -43t178.5 -129q51 -57 77.5 -115.5t38 -124t12.5 -142.5t1 -175q0 -100 -1 -179t-12.5 -144.5t-38 -123t-77.5 -112.5q-72 -80 -175.5 -125t-232.5 -45h-522v629h-141zM502 252h215q82 0 137 28.5t90 79.5q16 23 25.5 46.5 t13.5 61.5t6 98.5t2 158.5q0 96 -2 157.5t-7 102.5t-15.5 66.5t-26.5 48.5q-37 53 -90 79.5t-133 26.5h-215v-360h237v-217h-237v-377z" />
<glyph d="M115 520q0 141 23.5 235.5t94.5 168.5q66 70 183 100q37 10 75.5 14t79.5 0l-69 127h-234v187h140l-64 123h285l63 -123h189v-187h-95l82 -157q37 -74 61.5 -130.5t39 -110.5t20.5 -112.5t6 -134.5q0 -141 -23.5 -236.5t-94.5 -168.5q-49 -51 -127 -89t-195 -38 t-194.5 37.5t-127.5 89.5q-72 74 -95 169t-23 236zM381 520q0 -78 9 -142.5t48 -105.5q45 -45 117 -45q74 0 119 45q39 41 47 105.5t8 142.5t-8 141.5t-47 104.5q-45 45 -119 45q-72 0 -117 -45q-39 -41 -48 -104.5t-9 -141.5z" />
<glyph horiz-adv-x="1214" d="M76 416v237l131 84v721h285v-543l262 166v-235l-262 -166v-426h661v-254h-946v500z" />
<glyph horiz-adv-x="688" d="M61 551v223l111 70v614h266v-454l123 75v-223l-123 -78v-456q0 -47 20.5 -72t71.5 -25h103v-225h-152q-82 0 -140 26.5t-96 69.5t-55.5 97.5t-17.5 111.5v313z" />
<glyph horiz-adv-x="1210" d="M39 180l184 185q70 -70 160 -96.5t192 -26.5q127 0 193 46t66 134q0 80 -46 123q-23 20 -50 31.5t-79 19.5l-176 25q-186 27 -282 120q-104 104 -105 287q0 98 35 179t100.5 139.5t159.5 91t213 32.5q152 0 264.5 -38.5t206.5 -131.5l-180 -178q-70 66 -148.5 83.5 t-150.5 17.5q-115 0 -170 -54.5t-55 -130.5q0 -29 10 -55.5t33 -48.5q23 -20 56.5 -35.5t78.5 -21.5l172 -25q100 -14 165.5 -42t112.5 -71q59 -55 86 -133t27 -176q0 -106 -42 -188t-114.5 -138.5t-171 -86t-213.5 -29.5q-166 0 -295 42t-237 150zM225 1945h207l170 -184 l170 184h207l-271 -346h-212z" />
<glyph horiz-adv-x="1026" d="M45 141l174 174q66 -66 144.5 -83t140.5 -17q35 0 68.5 6t60 19.5t43 34t16.5 51.5q0 41 -24.5 66.5t-87.5 31.5l-168 16q-145 14 -228.5 83t-83.5 216q0 84 34 147.5t91.5 106.5t131 64.5t155.5 21.5q125 0 227.5 -26.5t180.5 -98.5l-164 -166q-47 41 -112.5 56.5 t-135.5 15.5q-80 0 -116 -30.5t-36 -71.5q0 -29 20.5 -57.5t90.5 -34.5l168 -17q160 -16 238.5 -97t78.5 -216q0 -88 -34.5 -153.5t-96 -108.5t-144.5 -64.5t-177 -21.5q-63 0 -123 5t-117 21.5t-110.5 46t-104.5 80.5zM135 1583h207l170 -184l170 184h207l-271 -346h-212z " />
<glyph horiz-adv-x="1171" d="M6 1458h309l273 -588l268 588h309l-438 -860v-598h-283v598zM471 1599l131 348h281l-233 -348h-179z" />
<glyph horiz-adv-x="1011" d="M8 1067h281l221 -659l213 659h281l-457 -1239q-35 -92 -80 -137q-47 -47 -105.5 -64.5t-123.5 -17.5h-105v239h62q57 0 84.5 18.5t48.5 78.5l45 131zM389 1237l131 348h281l-233 -348h-179z" />
<glyph horiz-adv-x="1296" d="M170 0v1458h285v-268h280q113 0 202 -36t151.5 -97.5t95.5 -144.5t33 -175t-33 -175t-95.5 -145.5t-151.5 -98t-202 -35.5h-280v-283h-285zM455 537h266q98 0 154.5 55t56.5 145t-56.5 144.5t-154.5 54.5h-266v-399z" />
<glyph horiz-adv-x="1150" d="M150 -391v1849h266v-485q53 59 114.5 82.5t143.5 23.5q78 0 146.5 -25.5t113.5 -70.5q41 -39 62.5 -92t31.5 -112.5t12 -122t2 -121.5t-2 -123t-12 -123.5t-31.5 -111.5t-62.5 -93q-45 -45 -113.5 -70.5t-146.5 -25.5q-82 0 -143.5 23.5t-114.5 82.5v-485h-266zM416 535 q0 -66 6 -122.5t24.5 -97.5t54.5 -64.5t95 -23.5t95 23.5t54.5 64.5t24.5 97.5t6 122.5t-6 121t-24.5 96t-54.5 64.5t-95 23.5t-95 -23.5t-54.5 -64.5t-24.5 -96.5t-6 -120.5z" />
<glyph horiz-adv-x="1122" d="M82 0v229l623 975h-596v254h931v-225l-624 -979h624v-254h-958zM190 1945h207l170 -184l170 184h207l-271 -346h-212z" />
<glyph horiz-adv-x="978" d="M76 0v203l473 624h-447v240h787v-203l-479 -624h479v-240h-813zM121 1583h207l170 -184l170 184h207l-271 -346h-212z" />
<glyph horiz-adv-x="671" d="M39 123v151l301 600h176l-301 -600h182v164h156v-164h80v-151h-80v-123h-156v123h-358z" />
<glyph horiz-adv-x="1765" d="M78 1081v217l184 160h195v-874h-195v657zM373 0l690 1458h207l-690 -1458h-207zM1120 0v174l320 350q25 27 36 47.5t11 49.5q0 41 -23.5 64.5t-64.5 23.5q-31 0 -57.5 -18.5t-26.5 -72.5h-195q0 63 21.5 112.5t59.5 83.5t89 51.5t109 17.5q121 0 199.5 -70t78.5 -192 q0 -68 -27.5 -113t-78.5 -100l-215 -234h321v-174h-557z" />
<glyph horiz-adv-x="1712" d="M78 1081v217l184 160h195v-874h-195v657zM381 0l690 1458h209l-690 -1458h-209zM1018 117v182l293 575h211l-295 -575h151v127h185v-127h67v-182h-67v-117h-185v117h-360z" />
<glyph horiz-adv-x="598" d="M78 1081v217l184 160h195v-874h-195v657z" />
<glyph horiz-adv-x="1771" d="M88 846h193q0 -49 27.5 -73.5t68.5 -24.5q43 0 69.5 26.5t26.5 75.5q0 43 -26.5 70.5t-73.5 27.5h-27v166h27q47 0 68.5 27.5t21.5 60.5q0 45 -25.5 67.5t-60.5 22.5t-60.5 -22.5t-25.5 -63.5h-193q0 61 21.5 109.5t59.5 82.5t89 51t109 17q59 0 110.5 -19.5t88 -53 t58 -80.5t21.5 -105q0 -72 -28.5 -110.5t-63.5 -61.5q39 -25 71 -69.5t32 -122.5q0 -68 -24 -119t-63.5 -84t-92 -49.5t-109.5 -16.5q-55 0 -106.5 15.5t-92.5 48.5t-65.5 84t-24.5 123zM446 0l691 1458h209l-691 -1458h-209zM1077 117v182l293 575h211l-295 -575h152v127 h184v-127h68v-182h-68v-117h-184v117h-361z" />
<glyph horiz-adv-x="753" d="M88 846h193q0 -49 27.5 -73.5t68.5 -24.5q43 0 69.5 26.5t26.5 75.5q0 43 -26.5 70.5t-73.5 27.5h-27v166h27q47 0 68.5 27.5t21.5 60.5q0 45 -25.5 67.5t-60.5 22.5t-60.5 -22.5t-25.5 -63.5h-193q0 61 21.5 109.5t59.5 82.5t89 51t109 17q59 0 110.5 -19.5t88 -53 t58 -80.5t21.5 -105q0 -72 -28.5 -110.5t-63.5 -61.5q39 -25 71 -69.5t32 -122.5q0 -68 -24 -119t-63.5 -84t-92 -49.5t-109.5 -16.5q-55 0 -106.5 15.5t-92.5 48.5t-65.5 84t-24.5 123z" />
<glyph horiz-adv-x="733" d="M88 584v174l320 350q25 27 35 47.5t10 48.5q0 41 -22.5 64.5t-63.5 23.5q-31 0 -58.5 -18.5t-27.5 -71.5h-193q0 63 21.5 112.5t59.5 83.5t89 51t109 17q121 0 199.5 -69.5t78.5 -192.5q0 -68 -27.5 -112.5t-78.5 -100.5l-215 -233h321v-174h-557z" />
<glyph horiz-adv-x="722" d="M225 -152v717h267v-717h-267zM225 893v717h267v-717h-267z" />
<glyph d="M102 461v248h908v-248h-908z" />
<glyph d="M100 297l289 289l-289 288l168 168l287 -288l289 288l168 -168l-289 -288l289 -289l-168 -168l-289 289l-287 -289z" />
<glyph unicode=" "  horiz-adv-x="475" />
<glyph unicode="&#x09;" horiz-adv-x="475" />
<glyph unicode="&#xa0;" horiz-adv-x="475" />
<glyph unicode="!" horiz-adv-x="710" d="M229 1458h328l-63 -1001h-201zM252 0v272h283v-272h-283z" />
<glyph unicode="&#x22;" horiz-adv-x="950" d="M139 1026v432h250v-432h-250zM561 1026v432h248v-432h-248z" />
<glyph unicode="#" horiz-adv-x="1415" d="M123 389v250h182l33 221h-143v248h182l57 362h281l-58 -362h238l57 362h279l-55 -362h141v-248h-182l-33 -221h141v-250h-182l-62 -389h-280l63 389h-237l-62 -389h-280l61 389h-141zM584 639h237l33 221h-236z" />
<glyph unicode="$" horiz-adv-x="1267" d="M39 180l184 185q66 -66 150 -92.5t176 -30.5v370l-66 9q-92 12 -163.5 43.5t-118.5 78.5q-104 104 -105 285q0 178 113 297t313 141v185h207v-183q125 -8 222.5 -48t181.5 -120l-181 -178q-51 49 -119.5 72t-132.5 27v-357l78 -12q100 -16 166 -44t113 -71 q59 -55 85.5 -132t26.5 -175q0 -94 -32.5 -169t-91 -130t-139.5 -89t-177 -46v-229h-207v221q-147 4 -265 47t-218 145zM371 1038q0 -29 10 -55.5t33 -48.5q47 -45 135 -57v342q-90 -12 -134 -62.5t-44 -118.5zM700 246q92 10 141.5 55t49.5 121q0 80 -45 123q-31 29 -68 38 t-78 15v-352z" />
<glyph unicode="%" horiz-adv-x="1736" d="M106 987v203q0 70 24 122t65 88t94 53t114 17q59 0 113.5 -17t95.5 -53t64.5 -88t23.5 -122v-203q0 -70 -23.5 -122t-64.5 -87t-95 -53t-114 -18q-61 0 -114 18t-94 53t-65 87.5t-24 121.5zM299 995q0 -59 27.5 -87.5t76.5 -28.5t77 28.5t28 87.5v187q0 59 -27.5 87.5 t-77.5 28.5q-104 0 -104 -116v-187zM420 0l690 1458h209l-690 -1458h-209zM1036 268v203q0 70 23.5 122t64.5 88t94.5 53.5t114.5 17.5q59 0 113.5 -17.5t95.5 -53.5t64.5 -88t23.5 -122v-203q0 -70 -23.5 -122t-64.5 -86.5t-95 -53t-114 -18.5q-61 0 -114.5 18.5t-94.5 53 t-64.5 87t-23.5 121.5zM1229 276q0 -117 104 -116q49 0 77 28.5t28 87.5v187q0 59 -28 88t-77 29q-104 0 -104 -117v-187z" />
<glyph unicode="&#x26;" horiz-adv-x="1476" d="M123 430q0 70 23.5 128t60.5 106.5t84 87.5t94 69q-23 25 -48.5 57.5t-47 70.5t-35.5 84t-14 97q0 74 26.5 136.5t76.5 107.5t122 70.5t164 25.5q86 0 154.5 -25.5t117.5 -71.5t74.5 -109.5t25.5 -137.5q0 -86 -40.5 -145t-108.5 -109q-18 -14 -39 -28 q-16 -12 -33.5 -24.5l-31.5 -22.5l245 -291q35 47 52.5 112.5t21.5 143.5h252q-8 -141 -43 -254t-113 -199l262 -309h-338l-106 127q-25 -20 -57.5 -44t-77.5 -45.5t-104.5 -35.5t-137.5 -14q-242 0 -361.5 117.5t-119.5 324.5zM381 434q0 -45 17.5 -83t47 -64.5t70.5 -42 t86 -15.5q66 0 116 20.5t101 65.5l-291 342q-66 -47 -106.5 -96t-40.5 -127zM508 1124q0 -41 28.5 -79.5t67.5 -83.5q8 4 18.5 11t20.5 13q10 8 23 16q35 25 59.5 54.5t24.5 68.5q0 51 -32 85t-89 34q-59 0 -90 -33.5t-31 -85.5z" />
<glyph unicode="'" horiz-adv-x="530" d="M139 1026v432h252v-432h-252z" />
<glyph unicode="(" horiz-adv-x="688" d="M164 283v893q0 68 9 135t44 129q35 59 82 109t98 102l178 -178q-37 -37 -62.5 -65t-51.5 -73q-31 -55 -31 -172v-868q0 -117 31 -172q27 -45 52.5 -72.5t61.5 -64.5l-178 -179q-51 51 -98 101.5t-82 109.5q-35 61 -44 129t-9 136z" />
<glyph unicode=")" horiz-adv-x="688" d="M111 -12q37 37 62.5 63.5t51.5 71.5q31 55 31 172v868q0 117 -31 172q-27 45 -52.5 72t-61.5 63l180 181q51 -51 98 -101.5t82 -109.5q35 -61 44 -129t9 -135v-893q0 -68 -9 -135.5t-44 -129.5q-35 -59 -82 -109t-98 -102z" />
<glyph unicode="*" horiz-adv-x="1011" d="M113 942l225 119l-225 119l92 163l217 -137l-10 256h188l-8 -256l215 137l94 -163l-227 -119l227 -119l-94 -162l-215 135l8 -256h-188l10 256l-217 -135z" />
<glyph unicode="+" d="M102 442v250h330v328h250v-328h328v-250h-328v-327h-250v327h-330z" />
<glyph unicode="," horiz-adv-x="571" d="M139 291h293v-404l-293 -225v629z" />
<glyph unicode="-" horiz-adv-x="872" d="M121 461v248h631v-248h-631z" />
<glyph unicode="." horiz-adv-x="583" d="M139 0v303h305v-303h-305z" />
<glyph unicode="/" horiz-adv-x="825" d="M0 -152l584 1762h250l-584 -1762h-250z" />
<glyph unicode="0" d="M113 422v614q0 104 35.5 185.5t97 136.5t142.5 83.5t169 28.5q90 0 170 -28.5t140.5 -83.5t96 -136t35.5 -186v-614q0 -104 -35.5 -185t-96 -136.5t-140.5 -84t-170 -28.5q-88 0 -169 28.5t-142.5 84t-97 136t-35.5 185.5zM379 424q0 -92 50 -144.5t128 -52.5t127 52.5 t49 144.5v608q0 92 -49 145.5t-127 53.5t-128 -53.5t-50 -145.5v-608z" />
<glyph unicode="1" d="M211 913v287l297 258h266v-1458h-266v1171z" />
<glyph unicode="2" d="M121 0v240l545 632q41 47 58 86t17 91q0 82 -45 132t-131 50q-33 0 -64.5 -9.5t-57 -31t-41 -57t-15.5 -89.5h-266q0 100 34.5 179.5t94 134.5t140.5 83.5t175 28.5q96 0 178 -29.5t140.5 -83.5t91.5 -133t33 -177q0 -53 -10.5 -95.5t-30 -81.5t-49 -76.5t-66.5 -80.5 l-408 -473h564v-240h-887z" />
<glyph unicode="3" d="M86 418h266q2 -49 18.5 -85t43 -59.5t62.5 -35t75 -11.5q86 0 141.5 52.5t55.5 150.5q0 92 -53.5 146.5t-151.5 54.5h-39v231h39q98 0 141 52.5t43 129.5q0 92 -53 139.5t-125 47.5q-76 0 -126 -46t-54 -130h-267q2 98 38 175t95.5 130t140.5 81.5t173 28.5 q96 0 178 -30.5t141.5 -86t92 -132t32.5 -168.5q0 -119 -48 -189.5t-120 -109.5q78 -41 133.5 -120t55.5 -212q0 -109 -37 -190.5t-100.5 -136t-147.5 -81t-178 -26.5q-88 0 -172 24.5t-148.5 76.5t-103.5 133t-41 196z" />
<glyph unicode="4" d="M63 207v252l500 999h291l-500 -999h305v272h256v-272h134v-252h-134v-207h-256v207h-596z" />
<glyph unicode="5" d="M117 408h266q10 -86 52 -133.5t126 -47.5q80 0 127 47q35 35 46 91.5t11 126.5q0 127 -39.5 194.5t-138.5 67.5q-82 0 -121.5 -38t-54.5 -81h-244v823h832v-239h-590v-314q29 29 87.5 51.5t131.5 22.5q92 0 160 -26.5t113 -71.5q86 -86 108.5 -185.5t22.5 -203.5 q0 -123 -24.5 -214.5t-104.5 -171.5q-49 -49 -128 -83.5t-194 -34.5t-196.5 34.5t-128.5 81.5q-68 68 -90.5 146t-28.5 158z" />
<glyph unicode="6" d="M98 438q0 100 37 194.5t86 194.5l307 631h291l-303 -602q27 10 54.5 14t54.5 4q74 0 142.5 -29.5t122.5 -84.5t86 -135.5t32 -182.5q0 -106 -35 -191t-96.5 -143.5t-144.5 -89t-179 -30.5t-179 29.5t-144.5 87t-96.5 141.5t-35 192zM365 440q0 -102 53 -157.5t135 -55.5 t135 55.5t53 157.5q0 98 -51 155.5t-137 57.5q-82 0 -135 -55t-53 -158z" />
<glyph unicode="7" d="M102 989v469h928v-239l-473 -1219h-289l473 1219h-385v-230h-254z" />
<glyph unicode="8" d="M90 424q0 68 17.5 119t44 91t58.5 68.5t62 49.5q-27 18 -56.5 46.5t-53 65.5t-38.5 85t-15 106q0 96 35.5 174t97 131t142.5 81.5t173 28.5t173 -28.5t141.5 -81.5t96.5 -131t36 -174q0 -57 -15.5 -105.5t-39 -85.5t-52.5 -65.5t-57 -46.5q31 -20 62.5 -49t59 -69t45 -91 t17.5 -119q0 -106 -37 -187t-100.5 -136.5t-148.5 -84t-181 -28.5t-181 28.5t-148.5 84t-100.5 136t-37 187.5zM356 428q0 -86 57.5 -143.5t143.5 -57.5t143.5 57.5t57.5 143.5t-57.5 144.5t-143.5 58.5t-143.5 -58.5t-57.5 -144.5zM375 1047q0 -80 52 -132.5t130 -52.5 t129 52.5t51 132.5q0 78 -51 131t-129 53t-130 -53.5t-52 -130.5z" />
<glyph unicode="9" d="M104 1016q0 109 35 192.5t96.5 142t144.5 89t179 30.5t179 -29.5t144.5 -87t96.5 -141t35 -192.5q0 -100 -36 -194.5t-85 -194.5l-309 -631h-289l303 602q-27 -10 -54.5 -14t-54.5 -4q-74 0 -143.5 29.5t-122.5 85t-86 136t-33 181.5zM371 1018q0 -98 51 -155.5 t137 -57.5q82 0 135.5 55.5t53.5 157.5t-53.5 157.5t-135.5 55.5t-135 -55.5t-53 -157.5z" />
<glyph unicode=":" horiz-adv-x="632" d="M190 0v303h304v-303h-304zM190 555v303h304v-303h-304z" />
<glyph unicode=";" horiz-adv-x="632" d="M190 555v303h304v-303h-304zM197 291h290v-404l-290 -225v629z" />
<glyph unicode="&#x3c;" horiz-adv-x="2103" d="M102 584l789 788h336l-668 -661h1440v-252h-1440l668 -664h-336z" />
<glyph unicode="=" d="M102 238v249h908v-249h-908zM102 682v250h908v-250h-908z" />
<glyph unicode="&#x3e;" horiz-adv-x="2103" d="M102 459v252h1442l-667 661h335l789 -788l-789 -789h-335l667 664h-1442z" />
<glyph unicode="?" horiz-adv-x="1071" d="M135 1061q0 96 34 172t92 128t137 80.5t167 28.5q86 0 165 -27.5t138.5 -79.5t94 -128t34.5 -174q0 -78 -28.5 -138.5t-71.5 -117.5l-152 -201q-16 -20 -26 -49t-10 -55v-43h-267v61q0 66 18.5 113t59.5 100l152 195q25 33 42 67.5t17 69.5q0 72 -44 120t-122 48 q-82 0 -123 -49t-41 -121h-266zM434 0v272h283v-272h-283z" />
<glyph unicode="@" horiz-adv-x="1552" d="M117 342v612q0 125 27.5 220.5t99.5 166.5q72 72 166 98.5t219 26.5h295q121 0 217 -26.5t168 -98.5t98.5 -166t26.5 -221v-960l-248 6v94q-49 -53 -104.5 -79.5t-141.5 -26.5q-162 0 -258 102q-31 35 -50.5 73t-29.5 84t-13 101t-3 125q0 137 16 224t78 155 q45 49 111.5 76.5t146.5 27.5q78 0 136.5 -24.5t105.5 -75.5v92q0 66 -15.5 117t-56.5 92t-92 56.5t-113 15.5h-254q-61 0 -111.5 -14.5t-93.5 -57.5q-45 -45 -58 -94t-13 -115v-592q0 -39 4 -66.5t15 -51t28.5 -43t42.5 -41.5l-184 -185q-43 39 -74 76t-50.5 80t-28.5 95 t-9 122zM842 473q0 -123 34.5 -193.5t133.5 -70.5q98 0 134 70.5t36 193.5t-36 192.5t-134 69.5t-133 -69.5t-35 -192.5z" />
<glyph unicode="A" horiz-adv-x="1306" d="M10 0l531 1458h223l532 -1458h-297l-86 258h-518l-88 -258h-297zM475 498h363l-179 530z" />
<glyph unicode="B" horiz-adv-x="1347" d="M170 0v1458h586q215 0 332.5 -110.5t117.5 -298.5q0 -61 -17.5 -110.5t-45 -87.5t-58 -64.5t-59.5 -38.5q33 -14 68.5 -41t64.5 -66t48.5 -93t19.5 -128q0 -102 -33 -180t-92.5 -131.5t-141 -81t-180.5 -27.5h-610zM455 254h297q98 0 144 53t46 127t-46 126t-144 52h-297 v-358zM455 868h278q92 0 140.5 46t48.5 122t-48.5 122t-140.5 46h-278v-336z" />
<glyph unicode="C" horiz-adv-x="1269" d="M121 729q0 94 2 176t14.5 153.5t42 134t84.5 118.5q78 78 175.5 118.5t217.5 40.5q102 0 191.5 -28.5t160 -87t119 -144.5t66.5 -200h-289q-23 88 -80 147.5t-166 59.5q-59 0 -105 -20.5t-77 -55.5q-20 -23 -34.5 -50.5t-22.5 -72.5t-11 -114.5t-3 -174.5q0 -104 3 -174 t11 -115t22.5 -72.5t34.5 -50.5q31 -35 77 -55t105 -20q109 0 166.5 59t79.5 148h289q-18 -115 -66.5 -201t-119 -144.5t-159.5 -87t-192 -28.5q-121 0 -218 41t-175 118q-55 55 -84.5 118t-42 134.5t-14.5 153.5t-2 176z" />
<glyph unicode="D" horiz-adv-x="1349" d="M170 0v1458h526q115 0 214.5 -33.5t170.5 -105.5q61 -61 92 -129t43.5 -141.5t12.5 -152.5v-161v-162.5t-12.5 -156.5t-43 -145.5t-92.5 -131.5q-72 -72 -171 -105.5t-214 -33.5h-526zM455 254h215q74 0 125 22.5t88 67.5q20 25 32.5 57.5t18.5 79.5t8 109.5t2 144.5 q0 84 -2 143.5t-8 104.5t-18.5 76t-32.5 55q-37 45 -88.5 67.5t-124.5 22.5h-215v-950z" />
<glyph unicode="E" horiz-adv-x="1239" d="M170 0v1458h960v-254h-675v-342h575v-254h-575v-354h675v-254h-960z" />
<glyph unicode="F" horiz-adv-x="1208" d="M170 0v1458h960v-254h-675v-358h575v-254h-575v-592h-285z" />
<glyph unicode="G" horiz-adv-x="1327" d="M121 729q0 94 2 176t14.5 153.5t42 134t84.5 118.5q78 78 174.5 118.5t218.5 40.5q127 0 223.5 -37.5t164 -102t107.5 -149.5t54 -177h-286q-25 104 -88.5 158.5t-174.5 54.5q-59 0 -105 -21.5t-77 -56.5q-20 -23 -33.5 -50.5t-21.5 -72.5t-11 -113.5t-3 -173.5 q0 -104 3 -174t11 -115t21.5 -72.5t33.5 -50.5q31 -35 77 -55t105 -20q66 0 117 21.5t86 60.5q35 41 50.5 89t15.5 105v55h-269v238h551v-213q0 -158 -30.5 -261.5t-108.5 -182.5q-88 -92 -191.5 -129t-220.5 -37q-121 0 -218 41t-175 118q-55 55 -84.5 118t-42 134.5 t-14.5 153.5t-2 176z" />
<glyph unicode="H" horiz-adv-x="1402" d="M170 0v1458h285v-596h493v596h285v-1458h-285v610h-493v-610h-285z" />
<glyph unicode="I" horiz-adv-x="624" d="M170 0v1458h285v-1458h-285z" />
<glyph unicode="J" horiz-adv-x="1046" d="M6 137l189 187q35 -35 74.5 -58.5t111.5 -23.5q104 0 166.5 61.5t62.5 188.5v966h285v-979q0 -121 -42 -213t-113.5 -153.5t-164 -93t-194.5 -31.5q-119 0 -206 33.5t-169 115.5z" />
<glyph unicode="K" horiz-adv-x="1361" d="M170 0v1458h285v-635l514 635h346l-484 -579l519 -879h-332l-375 664l-188 -226v-438h-285z" />
<glyph unicode="L" horiz-adv-x="1177" d="M170 0v1458h285v-1204h661v-254h-946z" />
<glyph unicode="M" horiz-adv-x="1660" d="M170 0v1458h281l380 -788l379 788h281v-1458h-285v850l-278 -553h-193l-280 553v-850h-285z" />
<glyph unicode="N" horiz-adv-x="1456" d="M170 0v1458h254l577 -893v893h285v-1458h-254l-577 895v-895h-285z" />
<glyph unicode="O" horiz-adv-x="1318" d="M121 729q0 94 2 176t14.5 153.5t42 134t84.5 118.5q78 78 174.5 118.5t220.5 40.5q125 0 220.5 -40.5t173.5 -118.5q55 -55 84.5 -118t43 -134.5t15.5 -153.5t2 -176t-2 -176t-15.5 -153.5t-43 -134t-84.5 -118.5q-78 -78 -173.5 -118.5t-220.5 -40.5t-221 41t-174 118 q-55 55 -84.5 118t-42 134.5t-14.5 153.5t-2 176zM406 729q0 -104 3 -173t11 -114t21.5 -72.5t33.5 -50.5q31 -35 78 -56t106 -21t105.5 21.5t77.5 55.5q20 23 34.5 50.5t22.5 72.5t11 114t3 173t-3 173t-11 114t-22.5 72.5t-34.5 50.5q-31 35 -77 56.5t-106 21.5 q-59 0 -106 -21.5t-78 -56.5q-20 -23 -33.5 -50.5t-21.5 -72.5t-11 -113.5t-3 -173.5z" />
<glyph unicode="P" horiz-adv-x="1286" d="M170 0v1458h565q113 0 202 -36t151.5 -98t95.5 -145t33 -175t-33 -175.5t-95.5 -145.5t-151.5 -98t-202 -36h-280v-549h-285zM455 805h266q98 0 154.5 54.5t56.5 144.5t-56.5 145t-154.5 55h-266v-399z" />
<glyph unicode="Q" horiz-adv-x="1316" d="M121 729q0 94 2 176t14.5 153.5t42 134t84.5 118.5q78 78 174.5 118.5t220.5 40.5q125 0 220.5 -40.5t173.5 -118.5q55 -55 84.5 -118t43 -134.5t15.5 -153.5t2 -176q0 -82 -1 -153.5t-9 -135t-26.5 -120t-53.5 -107.5l125 -125l-150 -149l-129 129q-123 -80 -295 -80 q-125 0 -221 41t-174 118q-55 55 -84.5 118t-42 134.5t-14.5 153.5t-2 176zM406 729q0 -104 3 -173t11 -114t21.5 -72.5t33.5 -50.5q31 -35 78 -56t106 -21q55 0 95 26l-127 125l151 150l109 -109q16 47 21 115.5t5 179.5q0 104 -3 173t-11 114t-22.5 72.5t-34.5 50.5 q-31 35 -77 56.5t-106 21.5q-59 0 -106 -21.5t-78 -56.5q-20 -23 -33.5 -50.5t-21.5 -72.5t-11 -113.5t-3 -173.5z" />
<glyph unicode="R" horiz-adv-x="1339" d="M170 0v1458h571q111 0 199 -36t149.5 -96t93 -141t31.5 -173q0 -76 -21.5 -138.5t-58 -110.5t-85 -82t-101.5 -52l326 -629h-330l-285 582h-204v-582h-285zM455 819h268q94 0 150.5 53.5t56.5 139.5t-56.5 139t-150.5 53h-268v-385z" />
<glyph unicode="S" horiz-adv-x="1210" d="M39 180l184 185q70 -70 160 -96.5t192 -26.5q127 0 193 46t66 134q0 80 -46 123q-23 20 -50 31.5t-79 19.5l-176 25q-186 27 -282 120q-104 104 -105 287q0 98 35 179t100.5 139.5t159.5 91t213 32.5q152 0 264.5 -38.5t206.5 -131.5l-180 -178q-70 66 -148.5 83.5 t-150.5 17.5q-115 0 -170 -54.5t-55 -130.5q0 -29 10 -55.5t33 -48.5q23 -20 56.5 -35.5t78.5 -21.5l172 -25q100 -14 165.5 -42t112.5 -71q59 -55 86 -133t27 -176q0 -106 -42 -188t-114.5 -138.5t-171 -86t-213.5 -29.5q-166 0 -295 42t-237 150z" />
<glyph unicode="T" horiz-adv-x="1169" d="M61 1204v254h1047v-254h-381v-1204h-285v1204h-381z" />
<glyph unicode="U" horiz-adv-x="1368" d="M147 500v958h285v-948q0 -127 67.5 -197.5t184.5 -70.5t185.5 70.5t68.5 197.5v948h283v-958q0 -117 -42 -211t-115 -161t-170 -103.5t-210 -36.5t-210 36.5t-170 103.5t-115 161t-42 211z" />
<glyph unicode="V" horiz-adv-x="1189" d="M6 1458h295l293 -950l293 950h297l-484 -1458h-213z" />
<glyph unicode="W" horiz-adv-x="1816" d="M12 1458h297l226 -919l266 919h213l266 -919l227 919h297l-391 -1458h-237l-269 885l-268 -885h-238z" />
<glyph unicode="X" horiz-adv-x="1234" d="M10 0l453 748l-424 710h323l254 -471l256 471h322l-424 -710l455 -748h-326l-283 508l-280 -508h-326z" />
<glyph unicode="Y" horiz-adv-x="1171" d="M6 1458h309l273 -588l268 588h309l-438 -860v-598h-283v598z" />
<glyph unicode="Z" horiz-adv-x="1122" d="M82 0v229l623 975h-596v254h931v-225l-624 -979h624v-254h-958z" />
<glyph unicode="[" horiz-adv-x="774" d="M164 -152v1762h526v-240h-260v-1282h260v-240h-526z" />
<glyph unicode="\" horiz-adv-x="825" d="M0 1583h250l575 -1735h-250z" />
<glyph unicode="]" horiz-adv-x="774" d="M86 86h260v1286h-260v238h526v-1762h-526v238z" />
<glyph unicode="^" horiz-adv-x="1232" d="M129 797l365 676h245l365 -676h-279l-209 385l-208 -385h-279z" />
<glyph unicode="_" horiz-adv-x="1232" d="M0 -186h1233v-179h-1233v179z" />
<glyph unicode="`" horiz-adv-x="1024" d="M213 1585h281l131 -348h-179z" />
<glyph unicode="a" horiz-adv-x="1093" d="M74 324q0 63 22.5 119.5t67.5 98.5t113.5 66.5t160.5 24.5h252v53q0 88 -46 128t-152 40q-76 0 -120 -20.5t-85 -67.5l-170 166q78 86 165 116.5t220 30.5q225 0 339.5 -94t114.5 -283v-702h-260v92q-53 -53 -111.5 -77.5t-150.5 -24.5q-178 0 -272 94 q-43 45 -65.5 106.5t-22.5 133.5zM330 330q0 -55 38 -89t115 -34q55 0 94 8t74 43q39 37 39 135v58h-211q-72 0 -110.5 -32t-38.5 -89z" />
<glyph unicode="b" horiz-adv-x="1146" d="M150 0v1458h266v-485q53 59 114.5 82.5t143.5 23.5q78 0 146.5 -25.5t113.5 -70.5q41 -39 62.5 -92t31.5 -112.5t12 -122t2 -121.5t-2 -123t-12 -123.5t-31.5 -111.5t-62.5 -93q-45 -45 -113.5 -70.5t-146.5 -25.5q-86 0 -148.5 25.5t-117.5 86.5v-100h-258zM416 535 q0 -66 6 -122.5t24.5 -97.5t54.5 -64.5t95 -23.5t95 23.5t54.5 64.5t24.5 97.5t6 122.5t-6 121t-24.5 96t-54.5 64.5t-95 23.5t-95 -23.5t-54.5 -64.5t-24.5 -96.5t-6 -120.5z" />
<glyph unicode="c" horiz-adv-x="983" d="M96 535q0 162 45 267t114 166.5t154 86t164 24.5q111 0 196 -34.5t157 -108.5l-181 -180q-41 45 -79.5 64.5t-92.5 19.5q-94 0 -151 -70q-31 -39 -45.5 -94t-14.5 -141q0 -164 60 -238q57 -70 151 -70q53 0 92.5 19.5t79.5 64.5l181 -178q-72 -74 -157 -109.5t-196 -35.5 q-80 0 -164.5 24.5t-153.5 87t-114 168t-45 267.5z" />
<glyph unicode="d" horiz-adv-x="1148" d="M104 535q0 59 2.5 121.5t12.5 122t32.5 112.5t61.5 92q45 45 113.5 70.5t146.5 25.5q82 0 144.5 -23.5t115.5 -82.5v485h266v-1458h-260v100q-55 -61 -116.5 -86.5t-147.5 -25.5q-78 0 -147.5 25.5t-114.5 70.5q-39 41 -61.5 93t-32.5 111.5t-12.5 123t-2.5 123.5z M371 535q0 -66 6 -122.5t24.5 -97.5t54.5 -64.5t95 -23.5t95 23.5t55.5 64.5t25.5 97.5t6 122.5t-6 121t-25.5 96t-55.5 64.5t-95 23.5t-95 -23.5t-54.5 -64.5t-24.5 -96.5t-6 -120.5z" />
<glyph unicode="e" horiz-adv-x="1122" d="M96 535q0 131 34 232t95.5 171t146.5 105.5t189 35.5q111 0 198 -39t146.5 -106.5t90 -160.5t30.5 -204v-118h-668q0 -104 60.5 -171t173.5 -67q88 0 139 24.5t103 75.5l161 -157q-41 -41 -82 -72t-89 -52.5t-105 -32.5t-129 -11q-94 0 -183.5 24.5t-158 87t-110.5 168 t-42 267.5zM358 633h406q-2 35 -7 60.5t-18 54.5q-23 47 -66.5 78.5t-111.5 31.5t-111.5 -31.5t-66.5 -78.5q-12 -29 -17.5 -54.5t-7.5 -60.5z" />
<glyph unicode="f" horiz-adv-x="700" d="M72 834v202h110v133q0 57 18.5 111.5t56.5 97.5t96.5 70t140.5 27h151v-226h-104q-92 0 -92 -96v-117h196v-202h-196v-834h-267v834h-110z" />
<glyph unicode="g" horiz-adv-x="1136" d="M104 563q0 70 3.5 130.5t13.5 112.5t32.5 97t59.5 82q45 45 111.5 69.5t144.5 24.5q86 0 145.5 -25.5t114.5 -86.5v100h258v-1028q0 -96 -32.5 -177t-94 -140.5t-147.5 -92t-195 -32.5q-123 0 -213 29.5t-174 109.5l166 168q45 -43 93 -62.5t116 -19.5q59 0 100 19.5 t66.5 50t37 70.5t11.5 81v109q-53 -59 -114.5 -83t-139.5 -24t-143.5 24.5t-110.5 69.5q-37 37 -59.5 82t-32.5 97.5t-13.5 114t-3.5 130.5zM371 563q0 -53 5 -103t22.5 -89t52 -62.5t94.5 -23.5q59 0 94 23.5t53.5 62.5t23.5 89t5 103t-5 103.5t-23.5 88.5t-53.5 61.5 t-94 23.5t-94 -23.5t-52.5 -61.5t-22.5 -88.5t-5 -103.5z" />
<glyph unicode="h" horiz-adv-x="1165" d="M150 0v1458h266v-489q53 55 118.5 82.5t137.5 27.5q88 0 154.5 -28.5t111.5 -80.5t67.5 -124t22.5 -156v-690h-266v651q0 53 -15.5 89t-40 58.5t-56.5 32t-62 9.5q-31 0 -61.5 -10.5t-55.5 -32t-40 -57t-15 -89.5v-651h-266z" />
<glyph unicode="i" horiz-adv-x="563" d="M145 1249v217h273v-217h-273zM150 0v1067h266v-1067h-266z" />
<glyph unicode="j" horiz-adv-x="563" d="M-47 -174h102q51 0 73 24.5t22 71.5v1145h266v-1161q0 -57 -17.5 -111.5t-55.5 -97.5t-97.5 -69.5t-141.5 -26.5h-151v225zM145 1249v217h273v-217h-273z" />
<glyph unicode="k" horiz-adv-x="1144" d="M150 0v1458h266v-827l354 436h322l-381 -430l409 -637h-329l-263 444l-112 -127v-317h-266z" />
<glyph unicode="l" horiz-adv-x="665" d="M139 305v1153h267v-1136q0 -47 21.5 -72t72.5 -25h102v-225h-151q-82 0 -141.5 26.5t-97.5 69.5t-55.5 97.5t-17.5 111.5z" />
<glyph unicode="m" horiz-adv-x="1794" d="M150 0v1067h260v-98q53 53 122.5 81.5t143.5 28.5q90 0 160.5 -32.5t121.5 -102.5q68 72 144 103.5t176 31.5q80 0 148.5 -24.5t113.5 -69.5q66 -66 91.5 -140.5t25.5 -162.5v-682h-266v645q0 55 -15.5 92t-41 59.5t-57.5 33t-63 10.5t-62.5 -10.5t-57 -32t-42 -57 t-16.5 -89.5v-651h-266v645q0 55 -15.5 92t-41 59.5t-57 33t-62.5 10.5t-62.5 -10.5t-57 -33t-42 -59.5t-16.5 -92v-645h-266z" />
<glyph unicode="n" horiz-adv-x="1173" d="M150 0v1067h260v-98q53 55 122.5 82.5t143.5 27.5q80 0 143.5 -24.5t108.5 -69.5q66 -66 87 -140.5t21 -162.5v-682h-266v645q0 55 -15.5 92t-41 59.5t-57 33t-62.5 10.5t-62.5 -10.5t-57 -33t-42 -59.5t-16.5 -92v-645h-266z" />
<glyph unicode="o" d="M104 535q0 145 25 241t96 172q49 53 130 92t200 39t201 -39t131 -92q72 -76 96.5 -172t24.5 -241t-25 -242.5t-96 -173.5q-49 -53 -131 -92t-201 -39t-200 39t-130 92q-72 76 -96.5 173t-24.5 243zM371 535q0 -84 10 -152t51 -109q47 -47 123 -47q78 0 125 47 q41 41 51 109t10 152t-10 150.5t-51 107.5q-47 47 -125 47q-76 0 -123 -47q-41 -41 -51 -108t-10 -150z" />
<glyph unicode="p" horiz-adv-x="1146" d="M150 -391v1458h258v-100q55 61 117.5 86.5t148.5 25.5q78 0 146.5 -25.5t113.5 -70.5q41 -39 62.5 -92t31.5 -112.5t12 -122t2 -121.5t-2 -123t-12 -123.5t-31.5 -111.5t-62.5 -93q-45 -45 -113.5 -70.5t-146.5 -25.5q-82 0 -143.5 23.5t-114.5 82.5v-485h-266zM416 535 q0 -66 6 -122.5t24.5 -97.5t54.5 -64.5t95 -23.5t95 23.5t54.5 64.5t24.5 97.5t6 122.5t-6 121t-24.5 96t-54.5 64.5t-95 23.5t-95 -23.5t-54.5 -64.5t-24.5 -96.5t-6 -120.5z" />
<glyph unicode="q" horiz-adv-x="1148" d="M104 535q0 59 2.5 121.5t12.5 122t32.5 112.5t61.5 92q45 45 114.5 70.5t147.5 25.5q86 0 147.5 -25.5t116.5 -86.5v100h260v-1458h-266v485q-53 -59 -115.5 -82.5t-144.5 -23.5q-78 0 -146.5 25.5t-113.5 70.5q-39 41 -61.5 93t-32.5 111.5t-12.5 123t-2.5 123.5z M371 535q0 -66 6 -122.5t24.5 -97.5t54.5 -64.5t95 -23.5t95 23.5t55.5 64.5t25.5 97.5t6 122.5t-6 121t-25.5 96t-55.5 64.5t-95 23.5t-95 -23.5t-54.5 -64.5t-24.5 -96.5t-6 -120.5z" />
<glyph unicode="r" horiz-adv-x="931" d="M150 0v1067h260v-102q39 47 110.5 80.5t157.5 33.5q78 0 137 -22.5t115 -77.5l-201 -203q-31 31 -61.5 47.5t-79.5 16.5q-31 0 -61.5 -11.5t-55.5 -36t-40 -61.5t-15 -88v-643h-266z" />
<glyph unicode="s" horiz-adv-x="1026" d="M45 141l174 174q66 -66 144.5 -83t140.5 -17q35 0 68.5 6t60 19.5t43 34t16.5 51.5q0 41 -24.5 66.5t-87.5 31.5l-168 16q-145 14 -228.5 83t-83.5 216q0 84 34 147.5t91.5 106.5t131 64.5t155.5 21.5q125 0 227.5 -26.5t180.5 -98.5l-164 -166q-47 41 -112.5 56.5 t-135.5 15.5q-80 0 -116 -30.5t-36 -71.5q0 -29 20.5 -57.5t90.5 -34.5l168 -17q160 -16 238.5 -97t78.5 -216q0 -88 -34.5 -153.5t-96 -108.5t-144.5 -64.5t-177 -21.5q-63 0 -123 5t-117 21.5t-110.5 46t-104.5 80.5z" />
<glyph unicode="t" horiz-adv-x="720" d="M61 834v202h113v316h266v-316h189v-202h-189v-512q0 -96 92 -97h97v-225h-146q-82 0 -140 26.5t-96 69.5t-55.5 97.5t-17.5 111.5v529h-113z" />
<glyph unicode="u" horiz-adv-x="1173" d="M137 385v682h266v-645q0 -55 15.5 -92t41 -59.5t57.5 -33t63 -10.5t62.5 10.5t57 33t42 59.5t16.5 92v645h266v-1067h-260v98q-53 -55 -123 -82.5t-143 -27.5q-80 0 -143.5 24.5t-108.5 69.5q-66 66 -87.5 140.5t-21.5 162.5z" />
<glyph unicode="v" horiz-adv-x="1009" d="M8 1067h281l217 -659l215 659h280l-391 -1067h-209z" />
<glyph unicode="w" horiz-adv-x="1554" d="M8 1067h283l172 -659l217 659h194l220 -659l172 659h280l-325 -1067h-220l-223 670l-223 -670h-219z" />
<glyph unicode="x" horiz-adv-x="1079" d="M25 0l368 545l-354 522h319l181 -305l182 305h319l-354 -522l369 -545h-320l-196 319l-195 -319h-319z" />
<glyph unicode="y" horiz-adv-x="1011" d="M8 1067h281l221 -659l213 659h281l-457 -1239q-35 -92 -80 -137q-47 -47 -105.5 -64.5t-123.5 -17.5h-105v239h62q57 0 84.5 18.5t48.5 78.5l45 131z" />
<glyph unicode="z" horiz-adv-x="978" d="M76 0v203l473 624h-447v240h787v-203l-479 -624h479v-240h-813z" />
<glyph unicode="{" horiz-adv-x="935" d="M88 610v238h94q37 0 63.5 11t43.5 28q35 35 35 123v297q0 141 86 227q37 37 93 56.5t136 19.5h209v-240h-109q-47 0 -73.5 -6t-42.5 -23q-16 -18 -24.5 -47.5t-8.5 -83.5v-276q0 -55 -14.5 -91t-36 -58.5t-46 -35t-44.5 -20.5q20 -8 44.5 -20.5t46 -35t36 -58t14.5 -91.5 v-276q0 -53 8 -83t25 -48q16 -16 42.5 -22.5t73.5 -6.5h109v-240h-209q-80 0 -136.5 19.5t-92.5 56.5q-86 86 -86 228v297q0 88 -35 122q-16 16 -43 27.5t-64 11.5h-94z" />
<glyph unicode="|" horiz-adv-x="716" d="M225 -152v1762h267v-1762h-267z" />
<glyph unicode="}" horiz-adv-x="935" d="M88 88h109q47 0 73.5 6t42.5 23q16 18 24.5 48t8.5 83v276q0 55 14.5 91t36 58.5t46 35t44.5 20.5q-20 8 -44.5 20.5t-46 35t-36 58.5t-14.5 91v276q0 53 -8 83t-25 48q-16 16 -42.5 22.5t-73.5 6.5h-109v240h209q80 0 136 -19.5t93 -56.5q86 -86 86 -227v-297 q0 -88 35 -123q16 -16 43 -27.5t64 -11.5h94v-238h-94q-37 0 -63.5 -11t-43.5 -28q-35 -35 -35 -122v-297q0 -141 -86 -228q-37 -37 -93 -56.5t-136 -19.5h-209v240z" />
<glyph unicode="~" horiz-adv-x="1241" d="M76 600q47 47 88 81t81 55.5t80 30.5t87 9q63 0 118.5 -17.5t120.5 -51.5q45 -23 83 -36.5t83 -13.5q41 0 81 14.5t97 71.5l170 -168q-47 -47 -88 -80.5t-81 -55t-81 -31t-88 -9.5q-63 0 -118.5 17.5t-120.5 52.5q-45 23 -84 36t-84 13q-41 0 -80 -14.5t-96 -71.5z" />
<glyph horiz-adv-x="1306" d="M10 0l531 1458h223l532 -1458h-297l-86 258h-518l-88 -258h-297zM381 1810q0 55 21.5 104.5t57 85.5t85 57.5t104.5 21.5t104.5 -20.5t85 -57.5t57 -86.5t21.5 -104.5t-21.5 -104t-57 -85t-85 -57.5t-104.5 -21.5t-104.5 21.5t-85 57.5t-57 85t-21.5 104zM475 498h363 l-179 530zM530 1810q0 -49 35 -85t84 -36t84 36t35 85t-35 84t-84 35t-84 -35t-35 -84z" />
<glyph horiz-adv-x="987" d="M96 535q0 162 45 267t114 166.5t154 86t164 24.5q111 0 196 -34.5t157 -108.5l-181 -180q-41 45 -79.5 64.5t-92.5 19.5q-94 0 -151 -70q-31 -39 -45.5 -94t-14.5 -141q0 -164 60 -238q57 -70 151 -70q53 0 92.5 19.5t79.5 64.5l183 -178q-104 -109 -242 -135v-272h-244 v276q-66 16 -128 53t-110 99.5t-78 157t-30 223.5z" />
<glyph horiz-adv-x="1122" d="M96 535q0 131 34 232t95.5 171t146.5 105.5t189 35.5q111 0 198 -39t146.5 -106.5t90 -160.5t30.5 -204v-118h-668q0 -104 60.5 -171t173.5 -67q88 0 139 24.5t103 75.5l161 -157q-41 -41 -82 -72t-89 -52.5t-105 -32.5t-129 -11q-94 0 -183.5 24.5t-158 87t-110.5 168 t-42 267.5zM358 633h406q-2 35 -7 60.5t-18 54.5q-23 47 -66.5 78.5t-111.5 31.5t-111.5 -31.5t-66.5 -78.5q-12 -29 -17.5 -54.5t-7.5 -60.5zM454 1237l131 348h281l-233 -348h-179z" />
<glyph horiz-adv-x="1122" d="M96 535q0 131 34 232t95.5 171t146.5 105.5t189 35.5q111 0 198 -39t146.5 -106.5t90 -160.5t30.5 -204v-118h-668q0 -104 60.5 -171t173.5 -67q88 0 139 24.5t103 75.5l161 -157q-41 -41 -82 -72t-89 -52.5t-105 -32.5t-129 -11q-94 0 -183.5 24.5t-158 87t-110.5 168 t-42 267.5zM268 1585h281l131 -348h-179zM358 633h406q-2 35 -7 60.5t-18 54.5q-23 47 -66.5 78.5t-111.5 31.5t-111.5 -31.5t-66.5 -78.5q-12 -29 -17.5 -54.5t-7.5 -60.5z" />
<glyph horiz-adv-x="1122" d="M96 535q0 131 34 232t95.5 171t146.5 105.5t189 35.5q111 0 198 -39t146.5 -106.5t90 -160.5t30.5 -204v-118h-668q0 -104 60.5 -171t173.5 -67q88 0 139 24.5t103 75.5l161 -157q-41 -41 -82 -72t-89 -52.5t-105 -32.5t-129 -11q-94 0 -183.5 24.5t-158 87t-110.5 168 t-42 267.5zM190 1237l271 346h212l271 -346h-207l-170 186l-170 -186h-207zM358 633h406q-2 35 -7 60.5t-18 54.5q-23 47 -66.5 78.5t-111.5 31.5t-111.5 -31.5t-66.5 -78.5q-12 -29 -17.5 -54.5t-7.5 -60.5z" />
<glyph horiz-adv-x="1173" d="M137 385v682h266v-645q0 -55 15.5 -92t41 -59.5t57.5 -33t63 -10.5t62.5 10.5t57 33t42 59.5t16.5 92v645h266v-1067h-260v98q-53 -55 -123 -82.5t-143 -27.5q-80 0 -143.5 24.5t-108.5 69.5q-66 66 -87.5 140.5t-21.5 162.5zM281 1585h281l131 -348h-179z" />
<glyph horiz-adv-x="1173" d="M137 385v682h266v-645q0 -55 15.5 -92t41 -59.5t57.5 -33t63 -10.5t62.5 10.5t57 33t42 59.5t16.5 92v645h266v-1067h-260v98q-53 -55 -123 -82.5t-143 -27.5q-80 0 -143.5 24.5t-108.5 69.5q-66 66 -87.5 140.5t-21.5 162.5zM203 1237l271 346h212l271 -346h-207 l-170 186l-170 -186h-207z" />
<glyph unicode="&#xa0;" horiz-adv-x="1185" d="M117 840v239h342v379h266v-379h344v-239h-344v-840h-266v840h-342z" />
<glyph unicode="&#xa1;" horiz-adv-x="978" d="M113 1110q0 78 29.5 147.5t80.5 121t120 81t146 29.5q78 0 147 -29.5t120 -81t80.5 -121t29.5 -147.5t-29.5 -146.5t-80.5 -119.5t-120 -81t-147 -30t-146.5 30t-119.5 81t-80.5 119.5t-29.5 146.5zM328 1110q0 -70 47 -117t114 -47q68 0 115 47t47 117t-48 117t-116 47 t-113.5 -47t-45.5 -117z" />
<glyph unicode="&#xa2;" horiz-adv-x="1021" d="M96 750q0 119 29 211t80 158.5t120.5 107.5t149.5 57v174h207v-174q86 -16 152.5 -54t126.5 -100l-177 -172q-31 33 -60.5 53.5t-70.5 30.5v-585q41 10 71 30.5t60 53.5l177 -172q-59 -61 -126 -99.5t-153 -54.5v-215h-207v215q-80 16 -149.5 57t-120.5 107.5t-80 159 t-29 211.5zM362 750q0 -86 16.5 -141.5t47.5 -94.5q31 -41 78 -53v577q-43 -12 -78 -53q-31 -39 -47.5 -94t-16.5 -141z" />
<glyph unicode="&#xa3;" horiz-adv-x="1185" d="M82 608v205h125v166q0 121 42 213t113.5 153.5t165 93t193.5 31.5q119 0 205 -33.5t168 -115.5l-187 -186q-35 35 -74.5 58.5t-111.5 23.5q-104 0 -168 -61.5t-64 -188.5v-154h232v-205h-232v-354h605v-254h-887v608h-125z" />
<glyph unicode="&#xa4;" horiz-adv-x="1087" d="M125 543q0 57 17.5 105t45 87t60.5 67.5t63 45.5q-66 35 -110.5 95.5t-44.5 172.5q0 70 23.5 133.5t72.5 112.5t123 78.5t174 29.5t174 -27.5t122 -74.5t72.5 -111.5t24.5 -138.5h-250q-4 68 -44 96.5t-99 28.5q-72 0 -107.5 -33.5t-35.5 -87.5q0 -90 137 -135l127 -41 q147 -47 223 -135t76 -250q0 -57 -18.5 -105t-46 -87t-59.5 -68t-61 -45q68 -35 117 -100.5t49 -184.5q0 -94 -34.5 -164.5t-92 -116.5t-130 -69.5t-148.5 -23.5q-74 0 -146.5 20.5t-130 64.5t-93.5 112.5t-38 166.5h256q4 -57 43 -93t109 -36q72 0 110.5 36t38.5 95 q0 41 -29.5 82t-113.5 70l-127 43q-147 49 -223 136t-76 249zM381 551q0 -55 15.5 -87t33.5 -50t48 -30.5t69 -12.5t67.5 12t47.5 31q18 18 34.5 50t16.5 87q0 53 -14.5 85t-36.5 54q-20 18 -48 30.5t-67 12.5t-68.5 -12t-48.5 -31q-23 -23 -36 -54.5t-13 -84.5z" />
<glyph unicode="&#xa5;" horiz-adv-x="1009" d="M170 684q0 70 26.5 130t71.5 105.5t105.5 72t130.5 26.5t130 -26.5t105 -72t72 -105.5t27 -130t-27 -130t-72 -105.5t-105.5 -72t-129.5 -26.5q-70 0 -130.5 26.5t-105.5 72t-71.5 105.5t-26.5 130z" />
<glyph unicode="&#xa6;" horiz-adv-x="1368" d="M72 1042q0 100 33.5 178t96 130.5t149.5 80t194 27.5h653v-1849h-266v1595h-205v-1595h-266v1022q-76 0 -146.5 32.5t-125 88t-86 130t-31.5 160.5z" />
<glyph unicode="&#xa7;" horiz-adv-x="1175" d="M150 0v1067q0 106 34.5 183t96 126t146.5 71.5t183 22.5q96 0 178 -21.5t141.5 -65.5t92.5 -111.5t33 -159.5q0 -94 -39 -148.5t-86 -82.5q57 -29 92 -78t35 -146v-327q0 -162 -84 -244q-43 -43 -105.5 -64.5t-152.5 -21.5h-107v225h54q59 0 92 31q35 31 34 96v295 q0 61 -30 92q-33 33 -92 33h-58v209h58q49 0 85.5 28.5t36.5 94.5q0 57 -38 92q-45 43 -144 43q-109 0 -149.5 -50t-40.5 -142v-1047h-266z" />
<glyph unicode="&#xa8;" horiz-adv-x="1728" d="M123 729q0 154 58.5 289t158.5 235.5t235.5 158.5t288.5 58q154 0 289 -58t235.5 -158.5t159 -235.5t58.5 -289t-58.5 -289t-159 -235.5t-235.5 -158.5t-289 -58t-289 58t-235 158.5t-158.5 235.5t-58.5 289zM299 729q0 -123 43 -228.5t120 -182t180 -120.5t222 -44 q121 0 223.5 44t179 120.5t120 182t43.5 228.5t-43.5 228.5t-120 182.5t-179 121t-223.5 44q-119 0 -222 -44t-180 -121t-120 -182.5t-43 -228.5zM594 336v788h321q59 0 108.5 -20.5t83.5 -54t52.5 -78.5t18.5 -94q0 -82 -44 -134.5t-102 -74.5l166 -332h-201l-143 305h-84 v-305h-176zM770 774h123q49 0 78.5 31t29.5 72t-29.5 71.5t-78.5 30.5h-123v-205z" />
<glyph unicode="&#xa9;" horiz-adv-x="1728" d="M123 729q0 154 58.5 289t158.5 235.5t235.5 158.5t288.5 58q154 0 289 -58t235.5 -158.5t159 -235.5t58.5 -289t-58.5 -289t-159 -235.5t-235.5 -158.5t-289 -58t-289 58t-235 158.5t-158.5 235.5t-58.5 289zM299 729q0 -123 44 -228.5t120 -182t179 -120.5t222 -44 t222.5 44t179 120.5t118.5 182t43 228.5t-43 228.5t-118.5 182.5t-179 121t-222.5 44t-222 -44t-179 -121t-120 -182.5t-44 -228.5zM512 729q0 98 28.5 174t78 126t117 77t143.5 27q86 0 148.5 -29t121.5 -80l-115 -115q-41 35 -74.5 50.5t-80.5 15.5q-98 0 -145.5 -66.5 t-47.5 -179.5t47 -179.5t146 -66.5q47 0 80.5 15.5t74.5 50.5l115 -115q-57 -51 -120.5 -78.5t-149.5 -27.5q-76 0 -143.5 25.5t-117 76.5t-78 126t-28.5 173z" />
<glyph unicode="&#xaa;" horiz-adv-x="1892" d="M92 1284v174h645v-174h-225v-700h-195v700h-225zM872 584v874h195l250 -467l250 467h194v-874h-194v516l-164 -322h-172l-164 322v-516h-195z" />
<glyph unicode="&#xab;" horiz-adv-x="1024" d="M399 1237l131 348h281l-233 -348h-179z" />
<glyph unicode="&#xac;" horiz-adv-x="1024" d="M172 1241v256h227v-256h-227zM625 1241v256h227v-256h-227z" />
<glyph unicode="&#xad;" horiz-adv-x="1232" d="M102 100l113 138h-113v249h306l159 195h-465v250h656l211 264l161 -127l-112 -137h112v-250h-303l-159 -195h462v-249h-655l-211 -265z" />
<glyph unicode="&#xae;" horiz-adv-x="2004" d="M6 0l762 1458h1128v-254h-675v-344h577v-254h-577v-352h675v-254h-958v319h-461l-166 -319h-305zM600 559h338v645z" />
<glyph unicode="&#xaf;" horiz-adv-x="1335" d="M121 729q0 94 2 176t14.5 153.5t42 134t84.5 118.5q78 78 174.5 118.5t220.5 40.5q133 0 232 -45l59 123h201l-109 -227l11 -10q55 -55 84.5 -118t43 -134.5t15.5 -153.5t2 -176t-2 -176t-15.5 -153.5t-43 -134t-84.5 -118.5q-78 -78 -173.5 -118.5t-220.5 -40.5 q-133 0 -231 45l-59 -123h-203l108 227l-10 10q-55 55 -84.5 118t-42 134.5t-14.5 153.5t-2 176zM406 729q0 -121 4 -192.5t14 -116.5l364 764q-53 33 -129 33q-59 0 -106 -21.5t-78 -56.5q-20 -23 -33.5 -50.5t-21.5 -72.5t-11 -113.5t-3 -173.5zM528 276q57 -35 131 -34 q59 0 105.5 21.5t77.5 55.5q20 23 34.5 50.5t22.5 72.5t11 114t3 173q0 121 -5 192.5t-15 116.5z" />
<glyph unicode="&#xb0;" horiz-adv-x="1742" d="M113 582q0 80 25.5 151.5t74.5 123.5t122 83t167 31q109 0 200 -52.5t168 -142.5q78 90 169 142.5t202 52.5q96 0 169 -31t122 -83t73.5 -123.5t24.5 -151.5t-24.5 -151t-73.5 -123t-122 -81.5t-169 -29.5q-111 0 -202 51t-169 141q-78 -90 -169 -141t-199 -51 q-94 0 -167 29.5t-122 81.5t-74.5 123t-25.5 151zM371 575q0 -63 39 -98t92 -35q55 0 98 39t90 94q-47 55 -90 95.5t-98 40.5q-53 0 -92 -36t-39 -100zM1053 575q47 -55 89 -94t97 -39q53 0 93 35t40 98t-40 98.5t-93 35.5q-55 0 -97 -39t-89 -95z" />
<glyph unicode="&#xb1;" d="M102 0v250h908v-250h-908zM102 698v248h330v330h250v-330h328v-248h-328v-329h-250v329h-330z" />
<glyph unicode="&#xb2;" horiz-adv-x="2103" d="M379 139v1116h1118l238 -237l-942 4l1017 -1020l-178 -178l-1018 1020l2 -942z" />
<glyph unicode="&#xb3;" horiz-adv-x="2103" d="M291 2l1020 1020l-942 -4l237 237h1116v-1114l-237 -237l4 940l-1020 -1020z" />
<glyph unicode="&#xb4;" horiz-adv-x="1169" d="M6 1458h309l271 -590l270 590h307l-278 -553h151v-205h-256l-53 -102v-104h309v-205h-309v-289h-283v289h-311v205h311v104l-53 102h-258v205h154z" />
<glyph unicode="&#xb5;" horiz-adv-x="1179" d="M143 -391v1458h267v-645q0 -55 15 -92t41 -59.5t57.5 -33t62.5 -10.5t62.5 10.5t57 33t42 59.5t16.5 92v645h266v-1067h-260v98q-53 -55 -122.5 -82.5t-143.5 -27.5q-55 0 -94 28v-407h-267z" />
<glyph unicode="&#xb6;" horiz-adv-x="1136" d="M115 520q0 145 24.5 239.5t93.5 168.5q45 47 119 85t189 38q47 0 93 -12.5t85 -47.5v56q0 29 -10.5 62.5t-35 64t-65.5 51t-102 20.5q-68 0 -116 -19.5t-93 -62.5l-166 168q84 80 174 109.5t213 29.5q117 0 205 -35.5t146.5 -100t88 -153.5t29.5 -196v-465 q0 -141 -23.5 -236.5t-93.5 -168.5q-47 -51 -125.5 -89t-193.5 -38t-192.5 37.5t-125.5 89.5q-70 74 -94 169t-24 236zM381 520q0 -78 9 -142.5t46 -105.5q45 -45 115 -45t115 45q37 41 46 105.5t9 142.5t-9.5 141.5t-45.5 104.5q-45 45 -115 45t-115 -45 q-37 -41 -46 -104.5t-9 -141.5z" />
<glyph unicode="&#xb8;" horiz-adv-x="1402" d="M170 -391v1947h1063v-1947h-285v1696h-493v-1696h-285z" />
<glyph unicode="&#xb9;" horiz-adv-x="1212" d="M156 0v1067h899v-1067h-264v817h-369v-817h-266z" />
<glyph unicode="&#xba;" horiz-adv-x="1003" d="M117 -156h100q70 0 107.5 35t37.5 109v1124q0 180 108 276.5t284 96.5h133v-225h-101q-70 0 -107.5 -36t-37.5 -110v-1124q0 -180 -107.5 -275.5t-283.5 -95.5h-133v225z" />
<glyph unicode="&#xbb;" horiz-adv-x="929" d="M98 864q0 51 17.5 96.5t53.5 79t91 53t129 19.5h199v41q0 70 -36 101.5t-122 31.5q-59 0 -93 -15.5t-69 -53.5l-137 133q63 70 133 94t176 24q180 0 271.5 -75.5t91.5 -225.5v-561h-211v74q-43 -43 -88 -62.5t-119 -19.5q-141 0 -215 78q-72 72 -72 188zM307 870 q0 -43 29 -68.5t88 -25.5q45 0 75.5 7.5t57.5 31.5q31 29 31 105v47h-166q-57 0 -86 -27t-29 -70z" />
<glyph unicode="&#xbc;" horiz-adv-x="946" d="M113 1032q0 117 19.5 194t78.5 138q41 41 104.5 72.5t157.5 31.5t157.5 -31.5t104.5 -72.5q59 -61 79 -138t20 -194t-19.5 -192.5t-79.5 -137.5q-41 -41 -104.5 -72.5t-157.5 -31.5t-157.5 32t-104.5 72q-59 61 -78.5 137t-19.5 193zM328 1032q0 -66 7 -119t40 -86 q37 -37 98 -36q61 0 98 36q33 33 40 86t7 119t-7 120t-40 87q-37 37 -98 37t-98 -37q-33 -33 -40 -87t-7 -120z" />
<glyph unicode="&#xbd;" horiz-adv-x="1318" d="M121 0v252h121q-27 29 -44.5 56.5t-29.5 56.5q-31 76 -39 169t-8 195q0 94 2 176t14.5 153.5t42 134t84.5 118.5q78 78 174.5 118.5t220.5 40.5q125 0 220.5 -40.5t173.5 -118.5q55 -55 84.5 -118t43 -134.5t15.5 -153.5t2 -176q0 -102 -8 -195.5t-39 -168.5 q-12 -29 -29.5 -56.5t-44.5 -56.5h121v-252h-448v223q72 33 110 90q14 20 24.5 50t16.5 77t9 114t3 161q0 104 -4 175t-12 118t-21.5 76.5t-33.5 52.5q-31 35 -77 57.5t-106 22.5q-59 0 -106 -23t-78 -57q-20 -23 -33.5 -52.5t-21.5 -76.5t-11 -118t-3 -175q0 -94 3 -161 t9 -114t16 -76.5t25 -50.5q39 -57 110 -90v-223h-448z" />
<glyph unicode="&#xbe;" horiz-adv-x="1716" d="M74 324q0 63 22.5 119.5t67.5 98.5t113.5 66.5t160.5 24.5h252v53q0 88 -46 128t-152 40q-76 0 -120 -20.5t-85 -67.5l-170 166q78 86 165 116.5t220 30.5q244 0 350 -116q115 117 303 116q111 0 198 -39t146.5 -106.5t90 -160.5t30.5 -204v-118h-668q0 -104 60.5 -171 t173.5 -67q88 0 139 24.5t102 75.5l162 -157q-41 -41 -82 -72t-89 -52.5t-105.5 -32.5t-128.5 -11q-109 0 -206 33.5t-169 115.5q-43 -47 -86 -76.5t-89 -46t-95.5 -21.5t-104.5 -5q-176 0 -272 96q-43 45 -65.5 106.5t-22.5 133.5zM330 330q0 -55 38 -89t115 -34q55 0 94 8 t74 43q39 37 39 135v58h-211q-72 0 -110.5 -32t-38.5 -89zM952 633h406q-2 35 -7 60.5t-18 54.5q-23 47 -66.5 78.5t-111.5 31.5t-112 -31.5t-66 -78.5q-12 -29 -17.5 -54.5t-7.5 -60.5z" />
<glyph unicode="&#xbf;" d="M104 535q0 145 25 241t96 172q49 53 130 92t200 39q125 0 215 -45l72 123h164l-123 -207l4 -2q72 -76 96.5 -172t24.5 -241t-25 -242.5t-96 -173.5q-49 -53 -131 -92t-201 -39q-66 0 -118 12t-95 35l-74 -125h-162l121 207l-2 2q-74 74 -97.5 172t-23.5 244zM371 535 q0 -49 2 -94.5t12 -82.5l270 455q-43 27 -100 27q-76 0 -123 -47q-41 -41 -51 -108t-10 -150zM457 254q43 -27 98 -27q78 0 125 47q41 41 51 109t10 152q0 49 -3 93t-13 81z" />
<glyph unicode="&#xc0;" horiz-adv-x="1071" d="M74 6q0 78 28.5 138.5t71.5 117.5l152 203q16 20 26 49t10 55v41h267v-61q0 -66 -18.5 -113t-59.5 -100l-152 -195q-25 -33 -42 -67.5t-17 -69.5q0 -72 43 -120t121 -48q82 0 124 50.5t42 121.5h266q0 -96 -34 -172t-93 -129t-137 -81.5t-168 -28.5q-86 0 -165 27.5 t-137.5 79.5t-93 128t-34.5 174zM354 795v272h283v-272h-283z" />
<glyph unicode="&#xc1;" horiz-adv-x="710" d="M154 -391l65 1001h199l65 -1001h-329zM178 795v272h281v-272h-281z" />
<glyph unicode="&#xc2;" d="M94 489v248h924v-544h-248v296h-676z" />
<glyph unicode="&#xc3;" horiz-adv-x="1220" d="M6 1067h289l172 -559l293 950h399v-254h-188l-398 -1204h-215z" />
<glyph unicode="&#xc4;" horiz-adv-x="874" d="M23 -391l178 999h-138v205h173l63 356q10 57 38 112.5t73 98.5t107.5 69t144.5 26l151 -2v-224h-141q-94 0 -111 -96l-59 -340h196v-205h-231l-178 -999h-266z" />
<glyph unicode="&#xc5;" horiz-adv-x="1241" d="M76 365q47 47 89 80.5t82 55t81 31t88 9.5q63 0 117.5 -16.5t119.5 -51.5q45 -23 84 -36t84 -13q41 0 80 14.5t96 71.5l168 -168q-47 -47 -88 -81t-81 -55.5t-79.5 -30.5t-87.5 -9q-63 0 -118.5 16.5t-120.5 50.5q-45 23 -83 37.5t-83 14.5q-41 0 -81 -15.5t-97 -72.5z M76 827q47 47 88 81t81 55.5t80 31t87 9.5q63 0 118.5 -16.5t120.5 -51.5q45 -23 83 -37t83 -14q41 0 81 15t97 73l170 -168q-47 -47 -88 -81t-81 -55.5t-81 -30.5t-88 -9q-63 0 -118.5 16.5t-120.5 50.5q-45 23 -84 36t-84 13q-41 0 -80 -14t-96 -72z" />
<glyph unicode="&#xc6;" horiz-adv-x="1298" d="M6 0l533 1458h221l532 -1458h-1286zM381 240h541l-267 788z" />
<glyph unicode="&#xc7;" horiz-adv-x="1286" d="M70 563l510 508v-317l-193 -191l193 -190v-318zM639 563l512 508v-317l-197 -191l197 -190v-318z" />
<glyph unicode="&#xc8;" horiz-adv-x="1286" d="M137 55v318l195 190l-195 191v317l510 -508zM707 55v318l192 190l-192 191v317l512 -508z" />
<glyph unicode="&#xc9;" horiz-adv-x="1732" d="M139 0v289h291v-289h-291zM721 0v289h289v-289h-289zM1305 0v289h288v-289h-288z" />
<glyph unicode="&#xca;" horiz-adv-x="475" />
<glyph unicode="&#xcb;" horiz-adv-x="1306" d="M10 0l531 1458h223l532 -1458h-297l-86 258h-518l-88 -258h-297zM350 1947h281l131 -348h-179zM475 498h363l-179 530z" />
<glyph unicode="&#xcc;" horiz-adv-x="1306" d="M10 0l531 1458h223l532 -1458h-297l-86 258h-518l-88 -258h-297zM278 1763q68 68 119 94.5t111 26.5q47 0 80.5 -10.5t76.5 -36.5q31 -18 56.5 -27.5t56.5 -9.5q27 0 53.5 9t67.5 50l119 -117q-68 -68 -120 -94t-112 -26q-45 0 -79.5 11t-77.5 36q-29 16 -56.5 26 t-58.5 10q-27 0 -53.5 -9t-67.5 -50zM475 498h363l-179 530z" />
<glyph unicode="&#xcd;" horiz-adv-x="1318" d="M121 729q0 94 2 176t14.5 153.5t42 134t84.5 118.5q78 78 174.5 118.5t220.5 40.5q125 0 220.5 -40.5t173.5 -118.5q55 -55 84.5 -118t43 -134.5t15.5 -153.5t2 -176t-2 -176t-15.5 -153.5t-43 -134t-84.5 -118.5q-78 -78 -173.5 -118.5t-220.5 -40.5t-221 41t-174 118 q-55 55 -84.5 118t-42 134.5t-14.5 153.5t-2 176zM288 1763q68 68 119 94.5t111 26.5q47 0 80.5 -10.5t76.5 -36.5q31 -18 56.5 -27.5t56.5 -9.5q27 0 53.5 9t67.5 50l119 -117q-68 -68 -120 -94t-112 -26q-45 0 -79.5 11t-77.5 36q-29 16 -56.5 26t-58.5 10q-27 0 -53.5 -9 t-67.5 -50zM406 729q0 -104 3 -173t11 -114t21.5 -72.5t33.5 -50.5q31 -35 78 -56t106 -21t105.5 21.5t77.5 55.5q20 23 34.5 50.5t22.5 72.5t11 114t3 173t-3 173t-11 114t-22.5 72.5t-34.5 50.5q-31 35 -77 56.5t-106 21.5q-59 0 -106 -21.5t-78 -56.5 q-20 -23 -33.5 -50.5t-21.5 -72.5t-11 -113.5t-3 -173.5z" />
<glyph unicode="&#xce;" horiz-adv-x="1978" d="M121 729q0 94 2 177t15.5 157t42 136.5t83.5 117.5q78 78 170 115.5t217 37.5q68 0 138.5 -23.5t123.5 -78.5v90h953v-252h-670v-71t1 -102t1 -102v-71h569v-250h-569v-73t-1 -106t-1 -106.5v-72.5h672v-252h-955v90q-53 -55 -124.5 -78.5t-137.5 -23.5q-125 0 -217 37.5 t-170 115.5q-55 55 -83.5 118t-42 136.5t-15.5 156.5t-2 177zM406 729q0 -104 3 -173t11 -114t21.5 -72.5t33.5 -50.5q31 -35 78 -56t106 -21t105.5 21.5t77.5 55.5q20 23 34.5 50.5t22.5 72.5t11 114t3 173t-3 173t-11 114t-22.5 72.5t-34.5 50.5q-31 35 -77 56.5 t-106 21.5q-59 0 -106 -21.5t-78 -56.5q-20 -23 -33.5 -50.5t-21.5 -72.5t-11 -113.5t-3 -173.5z" />
<glyph unicode="&#xcf;" horiz-adv-x="1767" d="M104 535q0 145 25 241t96 172q49 53 130 92t200 39q115 0 198 -40t132 -101q117 141 321 141q111 0 198 -39t146.5 -106.5t90 -160.5t30.5 -204v-118h-667q0 -104 60 -171t173 -67q88 0 138 24.5t102 75.5l163 -157q-41 -41 -81.5 -72t-89 -52.5t-105.5 -32.5t-129 -11 q-104 0 -197.5 30.5t-158.5 104.5q-49 -59 -131 -97t-193 -38q-119 0 -200 39t-130 92q-72 76 -96.5 173t-24.5 243zM371 535q0 -84 10 -152t51 -109q47 -47 123 -47q78 0 125 47q41 41 51 109t10 152t-10 150.5t-51 107.5q-47 47 -125 47q-76 0 -123 -47q-41 -41 -51 -108 t-10 -150zM1004 633h403q-2 35 -6 60.5t-17 54.5q-23 47 -66.5 78.5t-111.5 31.5t-112.5 -31.5t-67.5 -78.5q-12 -29 -16 -54.5t-6 -60.5z" />
<glyph unicode="&#xd0;" d="M102 461v248h908v-248h-908z" />
<glyph unicode="&#xd1;" horiz-adv-x="2103" d="M121 463v256h1861v-256h-1861z" />
<glyph unicode="&#xd2;" horiz-adv-x="987" d="M139 1206v252l277 215v-467h-277zM569 1206v252l279 215v-467h-279z" />
<glyph unicode="&#xd3;" horiz-adv-x="987" d="M139 993v465h277v-254zM569 993v465h279v-254z" />
<glyph unicode="&#xd4;" horiz-adv-x="559" d="M139 1206v252l279 215v-467h-279z" />
<glyph unicode="&#xd5;" horiz-adv-x="559" d="M139 993v465h279v-254z" />
<glyph unicode="&#xd6;" d="M94 461v248h924v-248h-924zM424 37v266h266v-266h-266zM424 866v267h266v-267h-266z" />
<glyph unicode="&#xd7;" horiz-adv-x="1302" d="M113 698l538 750l539 -750l-539 -751zM412 698l239 -338l240 338l-240 336z" />
<glyph unicode="&#xd8;" horiz-adv-x="1011" d="M8 1067h281l221 -659l213 659h281l-457 -1239q-35 -92 -80 -137q-47 -47 -105.5 -64.5t-123.5 -17.5h-105v239h62q57 0 84.5 18.5t48.5 78.5l45 131zM162 1241v256h227v-256h-227zM615 1241v256h227v-256h-227z" />
<glyph unicode="&#xd9;" horiz-adv-x="1171" d="M6 1458h309l273 -588l268 588h309l-438 -860v-598h-283v598zM244 1603v256h227v-256h-227zM697 1603v256h227v-256h-227z" />
<glyph unicode="&#xda;" horiz-adv-x="1327" d="M121 729q0 94 2 176t14.5 153.5t42 134t84.5 118.5q78 78 174.5 118.5t218.5 40.5q127 0 223.5 -37.5t164 -102t107.5 -149.5t54 -177h-286q-25 104 -88.5 158.5t-174.5 54.5q-59 0 -105 -21.5t-77 -56.5q-20 -23 -33.5 -50.5t-21.5 -72.5t-11 -113.5t-3 -173.5 q0 -104 3 -174t11 -115t21.5 -72.5t33.5 -50.5q31 -35 77 -55t105 -20q66 0 117 21.5t86 60.5q35 41 50.5 89t15.5 105v55h-269v238h551v-213q0 -158 -30.5 -261.5t-108.5 -182.5q-88 -92 -191.5 -129t-220.5 -37q-121 0 -218 41t-175 118q-55 55 -84.5 118t-42 134.5 t-14.5 153.5t-2 176zM328 1860h180q8 -66 53 -94.5t105 -28.5q59 0 103 28.5t52 94.5h178q-4 -82 -31.5 -141.5t-72.5 -96.5t-104.5 -54.5t-124.5 -17.5q-66 0 -125.5 17.5t-105.5 54.5t-74.5 96.5t-32.5 141.5z" />
<glyph unicode="&#xdb;" horiz-adv-x="1136" d="M104 563q0 70 3.5 130.5t13.5 112.5t32.5 97t59.5 82q45 45 111.5 69.5t144.5 24.5q86 0 145.5 -25.5t114.5 -86.5v100h258v-1028q0 -96 -32.5 -177t-94 -140.5t-147.5 -92t-195 -32.5q-123 0 -213 29.5t-174 109.5l166 168q45 -43 93 -62.5t116 -19.5q59 0 100 19.5 t66.5 50t37 70.5t11.5 81v109q-53 -59 -114.5 -83t-139.5 -24t-143.5 24.5t-110.5 69.5q-37 37 -59.5 82t-32.5 97.5t-13.5 114t-3.5 130.5zM219 1493h180q8 -66 53.5 -94.5t104.5 -28.5t103.5 28.5t52.5 94.5h178q-4 -82 -32 -141.5t-73 -96t-104 -54t-125 -17.5t-125 17.5 t-105 54t-75 96t-33 141.5zM371 563q0 -53 5 -103t22.5 -89t52 -62.5t94.5 -23.5q59 0 94 23.5t53.5 62.5t23.5 89t5 103t-5 103.5t-23.5 88.5t-53.5 61.5t-94 23.5t-94 -23.5t-52.5 -61.5t-22.5 -88.5t-5 -103.5z" />
<glyph unicode="&#xdc;" horiz-adv-x="624" d="M170 0v1458h285v-1458h-285zM174 1608v256h285v-256h-285z" />
<glyph unicode="&#xdd;" horiz-adv-x="563" d="M150 0v1067h266v-1067h-266z" />
<glyph unicode="&#xde;" horiz-adv-x="1210" d="M39 180l184 185q70 -70 160 -96.5t192 -26.5q127 0 193 46t66 134q0 80 -46 123q-23 20 -50 31.5t-79 19.5l-176 25q-186 27 -282 120q-104 104 -105 287q0 98 35 179t100.5 139.5t159.5 91t213 32.5q152 0 264.5 -38.5t206.5 -131.5l-180 -178q-70 66 -148.5 83.5 t-150.5 17.5q-115 0 -170 -54.5t-55 -130.5q0 -29 10 -55.5t33 -48.5q23 -20 56.5 -35.5t78.5 -21.5l172 -25q100 -14 165.5 -42t112.5 -71q59 -55 86 -133t27 -176q0 -90 -29.5 -162.5t-84 -128t-128 -90.5t-163.5 -51v-272h-244v266q-129 10 -231.5 53t-192.5 135z" />
<glyph unicode="&#xdf;" horiz-adv-x="1026" d="M45 141l174 174q66 -66 144.5 -83t140.5 -17q35 0 68.5 6t60 19.5t43 34t16.5 51.5q0 41 -24.5 66.5t-87.5 31.5l-168 16q-145 14 -228.5 83t-83.5 216q0 84 34 147.5t91.5 106.5t131 64.5t155.5 21.5q125 0 227.5 -26.5t180.5 -98.5l-164 -166q-47 41 -112.5 56.5 t-135.5 15.5q-80 0 -116 -30.5t-36 -71.5q0 -29 20.5 -57.5t90.5 -34.5l168 -17q160 -16 238.5 -96t78.5 -215q0 -141 -86 -224t-221 -112v-276h-244v266q-98 6 -186 36.5t-170 112.5z" />
<glyph unicode="&#xe0;" horiz-adv-x="1185" d="M117 -12v239h342v613h-342v239h342v379h266v-379h344v-239h-344v-613h344v-239h-344v-379h-266v379h-342z" />
<glyph unicode="&#xe1;" horiz-adv-x="583" d="M139 434v303h305v-303h-305z" />
<glyph unicode="&#xe2;" horiz-adv-x="555" d="M139 -213v467h279v-254z" />
<glyph unicode="&#xe3;" horiz-adv-x="993" d="M139 -213v467h277v-254zM569 -213v467h279v-254z" />
<glyph unicode="&#xe4;" horiz-adv-x="2480" d="M106 987v203q0 70 24 122t65 88t94 53t114 17q59 0 113.5 -17t95.5 -53t64.5 -88t23.5 -122v-203q0 -70 -23.5 -122t-64.5 -87t-95 -53t-114 -18q-61 0 -114 18t-94 53t-65 87.5t-24 121.5zM299 995q0 -59 27.5 -87.5t76.5 -28.5t77 28.5t28 87.5v187q0 59 -27.5 87.5 t-77.5 28.5q-104 0 -104 -116v-187zM420 0l690 1458h209l-690 -1458h-209zM1036 268v203q0 70 23.5 122t64.5 88t94.5 53.5t114.5 17.5q59 0 113.5 -17.5t95.5 -53.5t64.5 -88t23.5 -122v-203q0 -70 -23.5 -122t-64.5 -86.5t-95 -53t-114 -18.5q-61 0 -114.5 18.5t-94.5 53 t-64.5 87t-23.5 121.5zM1229 276q0 -117 104 -116q49 0 77 28.5t28 87.5v187q0 59 -28 88t-77 29q-104 0 -104 -117v-187zM1778 268v203q0 70 23.5 122t64.5 88t94 53.5t115 17.5q59 0 113.5 -17.5t95 -53.5t64.5 -88t24 -122v-203q0 -70 -24 -122t-64.5 -86.5t-95 -53 t-113.5 -18.5q-61 0 -114.5 18.5t-94.5 53t-64.5 87t-23.5 121.5zM1970 276q0 -117 105 -116q49 0 76.5 27.5t27.5 86.5v189q0 59 -27.5 88t-76.5 29q-104 0 -105 -117v-187z" />
<glyph unicode="&#xe5;" horiz-adv-x="1306" d="M10 0l531 1458h223l532 -1458h-297l-86 258h-518l-88 -258h-297zM272 1599l271 346h212l271 -346h-207l-170 186l-170 -186h-207zM475 498h363l-179 530z" />
<glyph unicode="&#xe6;" horiz-adv-x="1239" d="M170 0v1458h960v-254h-675v-342h575v-254h-575v-354h675v-254h-960zM258 1599l271 346h212l271 -346h-207l-170 186l-170 -186h-207z" />
<glyph unicode="&#xe7;" horiz-adv-x="1306" d="M10 0l531 1458h223l532 -1458h-297l-86 258h-518l-88 -258h-297zM475 498h363l-179 530zM536 1599l131 348h281l-233 -348h-179z" />
<glyph unicode="&#xe8;" horiz-adv-x="1239" d="M170 0v1458h960v-254h-675v-342h575v-254h-575v-354h675v-254h-960zM295 1603v256h227v-256h-227zM748 1603v256h227v-256h-227z" />
<glyph unicode="&#xe9;" horiz-adv-x="1239" d="M170 0v1458h960v-254h-675v-342h575v-254h-575v-354h675v-254h-960zM336 1947h281l131 -348h-179z" />
<glyph unicode="&#xea;" horiz-adv-x="624" d="M153 1599l131 348h281l-233 -348h-179zM170 0v1458h285v-1458h-285z" />
<glyph unicode="&#xeb;" horiz-adv-x="624" d="M-66 1599l271 346h212l271 -346h-207l-170 186l-170 -186h-207zM170 0v1458h285v-1458h-285z" />
<glyph unicode="&#xec;" horiz-adv-x="624" d="M-25 1603v256h227v-256h-227zM170 0v1458h285v-1458h-285zM428 1603v256h227v-256h-227z" />
<glyph unicode="&#xed;" horiz-adv-x="624" d="M70 1947h281l131 -348h-179zM170 0v1458h285v-1458h-285z" />
<glyph unicode="&#xee;" horiz-adv-x="1318" d="M121 729q0 94 2 176t14.5 153.5t42 134t84.5 118.5q78 78 174.5 118.5t220.5 40.5q125 0 220.5 -40.5t173.5 -118.5q55 -55 84.5 -118t43 -134.5t15.5 -153.5t2 -176t-2 -176t-15.5 -153.5t-43 -134t-84.5 -118.5q-78 -78 -173.5 -118.5t-220.5 -40.5t-221 41t-174 118 q-55 55 -84.5 118t-42 134.5t-14.5 153.5t-2 176zM406 729q0 -104 3 -173t11 -114t21.5 -72.5t33.5 -50.5q31 -35 78 -56t106 -21t105.5 21.5t77.5 55.5q20 23 34.5 50.5t22.5 72.5t11 114t3 173t-3 173t-11 114t-22.5 72.5t-34.5 50.5q-31 35 -77 56.5t-106 21.5 q-59 0 -106 -21.5t-78 -56.5q-20 -23 -33.5 -50.5t-21.5 -72.5t-11 -113.5t-3 -173.5zM546 1599l131 348h281l-233 -348h-179z" />
<glyph unicode="&#xef;" horiz-adv-x="1318" d="M121 729q0 94 2 176t14.5 153.5t42 134t84.5 118.5q78 78 174.5 118.5t220.5 40.5q125 0 220.5 -40.5t173.5 -118.5q55 -55 84.5 -118t43 -134.5t15.5 -153.5t2 -176t-2 -176t-15.5 -153.5t-43 -134t-84.5 -118.5q-78 -78 -173.5 -118.5t-220.5 -40.5t-221 41t-174 118 q-55 55 -84.5 118t-42 134.5t-14.5 153.5t-2 176zM282 1599l271 346h212l271 -346h-207l-170 186l-170 -186h-207zM406 729q0 -104 3 -173t11 -114t21.5 -72.5t33.5 -50.5q31 -35 78 -56t106 -21t105.5 21.5t77.5 55.5q20 23 34.5 50.5t22.5 72.5t11 114t3 173t-3 173 t-11 114t-22.5 72.5t-34.5 50.5q-31 35 -77 56.5t-106 21.5q-59 0 -106 -21.5t-78 -56.5q-20 -23 -33.5 -50.5t-21.5 -72.5t-11 -113.5t-3 -173.5z" />
<glyph unicode="&#xf1;" horiz-adv-x="1318" d="M121 729q0 94 2 176t14.5 153.5t42 134t84.5 118.5q78 78 174.5 118.5t220.5 40.5q125 0 220.5 -40.5t173.5 -118.5q55 -55 84.5 -118t43 -134.5t15.5 -153.5t2 -176t-2 -176t-15.5 -153.5t-43 -134t-84.5 -118.5q-78 -78 -173.5 -118.5t-220.5 -40.5t-221 41t-174 118 q-55 55 -84.5 118t-42 134.5t-14.5 153.5t-2 176zM360 1947h281l131 -348h-179zM406 729q0 -104 3 -173t11 -114t21.5 -72.5t33.5 -50.5q31 -35 78 -56t106 -21t105.5 21.5t77.5 55.5q20 23 34.5 50.5t22.5 72.5t11 114t3 173t-3 173t-11 114t-22.5 72.5t-34.5 50.5 q-31 35 -77 56.5t-106 21.5q-59 0 -106 -21.5t-78 -56.5q-20 -23 -33.5 -50.5t-21.5 -72.5t-11 -113.5t-3 -173.5z" />
<glyph unicode="&#xf2;" horiz-adv-x="1368" d="M147 500v958h285v-948q0 -127 67.5 -197.5t184.5 -70.5t185.5 70.5t68.5 197.5v948h283v-958q0 -117 -42 -211t-115 -161t-170 -103.5t-210 -36.5t-210 36.5t-170 103.5t-115 161t-42 211zM571 1599l131 348h281l-233 -348h-179z" />
<glyph unicode="&#xf3;" horiz-adv-x="1368" d="M147 500v958h285v-948q0 -127 67.5 -197.5t184.5 -70.5t185.5 70.5t68.5 197.5v948h283v-958q0 -117 -42 -211t-115 -161t-170 -103.5t-210 -36.5t-210 36.5t-170 103.5t-115 161t-42 211zM307 1599l271 346h212l271 -346h-207l-170 186l-170 -186h-207z" />
<glyph unicode="&#xf4;" horiz-adv-x="1368" d="M147 500v958h285v-948q0 -127 67.5 -197.5t184.5 -70.5t185.5 70.5t68.5 197.5v948h283v-958q0 -117 -42 -211t-115 -161t-170 -103.5t-210 -36.5t-210 36.5t-170 103.5t-115 161t-42 211zM385 1947h281l131 -348h-179z" />
<glyph unicode="&#xf5;" horiz-adv-x="563" d="M150 0v1067h266v-1067h-266z" />
<glyph unicode="&#xf6;" horiz-adv-x="1024" d="M135 1237l271 346h212l271 -346h-207l-170 186l-170 -186h-207z" />
<glyph unicode="&#xf7;" horiz-adv-x="1024" d="M141 1401q68 68 119 94.5t111 26.5q47 0 80.5 -10.5t76.5 -36.5q31 -18 56.5 -27.5t56.5 -9.5q27 0 53.5 9t67.5 50l119 -117q-68 -68 -120 -94t-112 -26q-45 0 -79.5 11t-77.5 36q-29 16 -56.5 26t-58.5 10q-27 0 -53.5 -9t-67.5 -50z" />
<glyph unicode="&#xf8;" horiz-adv-x="1024" d="M188 1290v178h648v-178h-648z" />
<glyph unicode="&#xf9;" horiz-adv-x="1024" d="M176 1520h180q8 -66 53.5 -94.5t104.5 -28.5t103.5 28.5t52.5 94.5h178q-4 -82 -32 -141.5t-73 -96.5t-104 -54.5t-125 -17.5t-125 17.5t-105 54.5t-75 96.5t-33 141.5z" />
<glyph unicode="&#xfa;" horiz-adv-x="1024" d="M375 1245v217h274v-217h-274z" />
<glyph unicode="&#xfb;" horiz-adv-x="1024" d="M244 1464q0 55 21.5 104.5t57 85.5t85 57.5t104.5 21.5t104.5 -20.5t85 -57.5t57 -86.5t21.5 -104.5t-21.5 -104t-57 -85t-85 -57.5t-104.5 -21.5t-104.5 21.5t-85 57.5t-57 85t-21.5 104zM393 1464q0 -49 35 -85t84 -36t84 36t35 85t-35 84t-84 35t-84 -35t-35 -84z" />
<glyph unicode="&#xfc;" horiz-adv-x="1024" d="M328 -422l141 299h197l-91 -299h-247z" />
<glyph unicode="&#xfd;" horiz-adv-x="1024" d="M117 1237l129 348h282l-233 -348h-178zM541 1237l129 348h282l-235 -348h-176z" />
<glyph unicode="&#xfe;" horiz-adv-x="1024" d="M346 -123h199l139 -299h-248z" />
<glyph unicode="&#xff;" horiz-adv-x="1024" d="M135 1583h207l170 -184l170 184h207l-271 -346h-212z" />
<glyph unicode="&#x152;" horiz-adv-x="1093" d="M74 324q0 63 22.5 119.5t67.5 98.5t113.5 66.5t160.5 24.5h252v53q0 88 -46 128t-152 40q-76 0 -120 -20.5t-85 -67.5l-170 166q78 86 165 116.5t220 30.5q225 0 339.5 -94t114.5 -283v-702h-260v92q-53 -53 -111.5 -77.5t-150.5 -24.5q-178 0 -272 94 q-43 45 -65.5 106.5t-22.5 133.5zM267 1464q0 55 21.5 104.5t57 85.5t85 57.5t104.5 21.5t104.5 -20.5t85 -57.5t57 -86.5t21.5 -104.5t-21.5 -104t-57 -85t-85 -57.5t-104.5 -21.5t-104.5 21.5t-85 57.5t-57 85t-21.5 104zM330 330q0 -55 38 -89t115 -34q55 0 94 8t74 43 q39 37 39 135v58h-211q-72 0 -110.5 -32t-38.5 -89zM416 1464q0 -49 35 -85t84 -36t84 36t35 85t-35 84t-84 35t-84 -35t-35 -84z" />
<glyph unicode="&#x153;" horiz-adv-x="1173" d="M137 385v682h266v-645q0 -55 15.5 -92t41 -59.5t57.5 -33t63 -10.5t62.5 10.5t57 33t42 59.5t16.5 92v645h266v-1067h-260v98q-53 -55 -123 -82.5t-143 -27.5q-80 0 -143.5 24.5t-108.5 69.5q-66 66 -87.5 140.5t-21.5 162.5zM467 1237l131 348h281l-233 -348h-179z" />
<glyph unicode="&#x178;" horiz-adv-x="1173" d="M137 385v682h266v-645q0 -55 15.5 -92t41 -59.5t57.5 -33t63 -10.5t62.5 10.5t57 33t42 59.5t16.5 92v645h266v-1067h-260v98q-53 -55 -123 -82.5t-143 -27.5q-80 0 -143.5 24.5t-108.5 69.5q-66 66 -87.5 140.5t-21.5 162.5zM240 1241v256h227v-256h-227zM693 1241v256 h227v-256h-227z" />
<glyph unicode="&#x2c6;" horiz-adv-x="1093" d="M74 324q0 63 22.5 119.5t67.5 98.5t113.5 66.5t160.5 24.5h252v53q0 88 -46 128t-152 40q-76 0 -120 -20.5t-85 -67.5l-170 166q78 86 165 116.5t220 30.5q225 0 339.5 -94t114.5 -283v-702h-260v92q-53 -53 -111.5 -77.5t-150.5 -24.5q-178 0 -272 94 q-43 45 -65.5 106.5t-22.5 133.5zM236 1585h281l131 -348h-179zM330 330q0 -55 38 -89t115 -34q55 0 94 8t74 43q39 37 39 135v58h-211q-72 0 -110.5 -32t-38.5 -89z" />
<glyph unicode="&#x2dc;" d="M104 535q0 145 25 241t96 172q49 53 130 92t200 39t201 -39t131 -92q72 -76 96.5 -172t24.5 -241t-25 -242.5t-96 -173.5q-49 -53 -131 -92t-201 -39t-200 39t-130 92q-72 76 -96.5 173t-24.5 243zM250 1585h281l131 -348h-179zM371 535q0 -84 10 -152t51 -109 q47 -47 123 -47q78 0 125 47q41 41 51 109t10 152t-10 150.5t-51 107.5q-47 47 -125 47q-76 0 -123 -47q-41 -41 -51 -108t-10 -150z" />
<glyph unicode="&#x2000;" horiz-adv-x="1039" />
<glyph unicode="&#x2001;" horiz-adv-x="2079" />
<glyph unicode="&#x2002;" horiz-adv-x="1039" />
<glyph unicode="&#x2003;" horiz-adv-x="2079" />
<glyph unicode="&#x2004;" horiz-adv-x="693" />
<glyph unicode="&#x2005;" horiz-adv-x="519" />
<glyph unicode="&#x2006;" horiz-adv-x="346" />
<glyph unicode="&#x2007;" horiz-adv-x="346" />
<glyph unicode="&#x2008;" horiz-adv-x="259" />
<glyph unicode="&#x2009;" horiz-adv-x="415" />
<glyph unicode="&#x200a;" horiz-adv-x="115" />
<glyph unicode="&#x2010;" horiz-adv-x="872" d="M121 461v248h631v-248h-631z" />
<glyph unicode="&#x2011;" horiz-adv-x="872" d="M121 461v248h631v-248h-631z" />
<glyph unicode="&#x2012;" horiz-adv-x="872" d="M121 461v248h631v-248h-631z" />
<glyph unicode="&#x2013;" horiz-adv-x="1173" d="M150 0v1067h260v-98q53 55 122.5 82.5t143.5 27.5q80 0 143.5 -24.5t108.5 -69.5q66 -66 87 -140.5t21 -162.5v-682h-266v645q0 55 -15.5 92t-41 59.5t-57 33t-62.5 10.5t-62.5 -10.5t-57 -33t-42 -59.5t-16.5 -92v-645h-266zM223 1401q68 68 119 94.5t111 26.5 q47 0 80.5 -10.5t76.5 -36.5q31 -18 56.5 -27.5t56.5 -9.5q27 0 53.5 9t67.5 50l119 -117q-68 -68 -120 -94t-112 -26q-45 0 -79.5 11t-77.5 36q-29 16 -56.5 26t-58.5 10q-27 0 -53.5 -9t-67.5 -50z" />
<glyph unicode="&#x2014;" d="M104 535q0 145 25 241t96 172q49 53 130 92t200 39t201 -39t131 -92q72 -76 96.5 -172t24.5 -241t-25 -242.5t-96 -173.5q-49 -53 -131 -92t-201 -39t-200 39t-130 92q-72 76 -96.5 173t-24.5 243zM371 535q0 -84 10 -152t51 -109q47 -47 123 -47q78 0 125 47 q41 41 51 109t10 152t-10 150.5t-51 107.5q-47 47 -125 47q-76 0 -123 -47q-41 -41 -51 -108t-10 -150zM444 1237l131 348h281l-233 -348h-179z" />
<glyph unicode="&#x2018;" horiz-adv-x="1122" d="M96 535q0 131 34 232t95.5 171t146.5 105.5t189 35.5q111 0 198 -39t146.5 -106.5t90 -160.5t30.5 -204v-118h-668q0 -104 60.5 -171t173.5 -67q88 0 139 24.5t103 75.5l161 -157q-41 -41 -82 -72t-89 -52.5t-105 -32.5t-129 -11q-94 0 -183.5 24.5t-158 87t-110.5 168 t-42 267.5zM227 1241v256h227v-256h-227zM358 633h406q-2 35 -7 60.5t-18 54.5q-23 47 -66.5 78.5t-111.5 31.5t-111.5 -31.5t-66.5 -78.5q-12 -29 -17.5 -54.5t-7.5 -60.5zM680 1241v256h227v-256h-227z" />
<glyph unicode="&#x2019;" horiz-adv-x="563" d="M123 1237l131 348h281l-233 -348h-179zM150 0v1067h266v-1067h-266z" />
<glyph unicode="&#x201a;" horiz-adv-x="1269" d="M121 729q0 94 2 176t14.5 153.5t42 134t84.5 118.5q78 78 175.5 118.5t217.5 40.5q102 0 191.5 -28.5t160 -87t119 -144.5t66.5 -200h-289q-23 88 -80 147.5t-166 59.5q-59 0 -105 -20.5t-77 -55.5q-20 -23 -34.5 -50.5t-22.5 -72.5t-11 -114.5t-3 -174.5q0 -104 3 -174 t11 -115t22.5 -72.5t34.5 -50.5q31 -35 77 -55t105 -20q109 0 166.5 59t79.5 148h289v-3q-33 -193 -141.5 -303t-264.5 -143v-274h-243l2 272q-164 31 -283 149q-55 55 -84.5 118t-42 134.5t-14.5 153.5t-2 176z" />
<glyph unicode="&#x201c;" horiz-adv-x="563" d="M41 1585h281l131 -348h-179zM150 0v1067h266v-1067h-266z" />
<glyph unicode="&#x201d;" horiz-adv-x="563" d="M-88 1237l271 346h212l271 -346h-207l-170 186l-170 -186h-207zM150 0v1067h266v-1067h-266z" />
<glyph unicode="&#x201e;" horiz-adv-x="1456" d="M170 0v1458h254l577 -893v893h285v-1458h-254l-577 895v-895h-285zM358 1763q68 68 119 94.5t111 26.5q47 0 80.5 -10.5t76.5 -36.5q31 -18 56.5 -27.5t56.5 -9.5q27 0 53.5 9t67.5 50l119 -117q-68 -68 -120 -94t-112 -26q-45 0 -79.5 11t-77.5 36q-29 16 -56.5 26 t-58.5 10q-27 0 -53.5 -9t-67.5 -50z" />
<glyph unicode="&#x2022;" horiz-adv-x="563" d="M-57 1241v256h227v-256h-227zM150 0v1067h266v-1067h-266zM396 1241v256h227v-256h-227z" />
<glyph unicode="&#x2026;" horiz-adv-x="1318" d="M121 729q0 94 2 176t14.5 153.5t42 134t84.5 118.5q78 78 174.5 118.5t220.5 40.5q125 0 220.5 -40.5t173.5 -118.5q55 -55 84.5 -118t43 -134.5t15.5 -153.5t2 -176t-2 -176t-15.5 -153.5t-43 -134t-84.5 -118.5q-78 -78 -173.5 -118.5t-220.5 -40.5t-221 41t-174 118 q-55 55 -84.5 118t-42 134.5t-14.5 153.5t-2 176zM319 1603v256h227v-256h-227zM406 729q0 -104 3 -173t11 -114t21.5 -72.5t33.5 -50.5q31 -35 78 -56t106 -21t105.5 21.5t77.5 55.5q20 23 34.5 50.5t22.5 72.5t11 114t3 173t-3 173t-11 114t-22.5 72.5t-34.5 50.5 q-31 35 -77 56.5t-106 21.5q-59 0 -106 -21.5t-78 -56.5q-20 -23 -33.5 -50.5t-21.5 -72.5t-11 -113.5t-3 -173.5zM772 1603v256h227v-256h-227z" />
<glyph unicode="&#x202f;" horiz-adv-x="415" />
<glyph unicode="&#x2039;" horiz-adv-x="1093" d="M74 324q0 63 22.5 119.5t67.5 98.5t113.5 66.5t160.5 24.5h252v53q0 88 -46 128t-152 40q-76 0 -120 -20.5t-85 -67.5l-170 166q78 86 165 116.5t220 30.5q225 0 339.5 -94t114.5 -283v-702h-260v92q-53 -53 -111.5 -77.5t-150.5 -24.5q-178 0 -272 94 q-43 45 -65.5 106.5t-22.5 133.5zM164 1401q68 68 119 94.5t111 26.5q47 0 80.5 -10.5t76.5 -36.5q31 -18 56.5 -27.5t56.5 -9.5q27 0 53.5 9t67.5 50l119 -117q-68 -68 -120 -94t-112 -26q-45 0 -79.5 11t-77.5 36q-29 16 -56.5 26t-58.5 10q-27 0 -53.5 -9t-67.5 -50z M330 330q0 -55 38 -89t115 -34q55 0 94 8t74 43q39 37 39 135v58h-211q-72 0 -110.5 -32t-38.5 -89z" />
<glyph unicode="&#x203a;" d="M104 535q0 145 25 241t96 172q49 53 130 92t200 39t201 -39t131 -92q72 -76 96.5 -172t24.5 -241t-25 -242.5t-96 -173.5q-49 -53 -131 -92t-201 -39t-200 39t-130 92q-72 76 -96.5 173t-24.5 243zM186 1401q68 68 119 94.5t111 26.5q47 0 80.5 -10.5t76.5 -36.5 q31 -18 56.5 -27.5t56.5 -9.5q27 0 53.5 9t67.5 50l119 -117q-68 -68 -120 -94t-112 -26q-45 0 -79.5 11t-77.5 36q-29 16 -56.5 26t-58.5 10q-27 0 -53.5 -9t-67.5 -50zM371 535q0 -84 10 -152t51 -109q47 -47 123 -47q78 0 125 47q41 41 51 109t10 152t-10 150.5 t-51 107.5q-47 47 -125 47q-76 0 -123 -47q-41 -41 -51 -108t-10 -150z" />
<glyph unicode="&#x205f;" horiz-adv-x="519" />
<glyph unicode="&#x20ac;" horiz-adv-x="1306" d="M10 0l531 1458h223l532 -1458h-297l-86 258h-518l-88 -258h-297zM309 1603v256h227v-256h-227zM475 498h363l-179 530zM762 1603v256h227v-256h-227z" />
<glyph unicode="&#x2122;" d="M104 535q0 145 25 241t96 172q49 53 130 92t200 39t201 -39t131 -92q72 -76 96.5 -172t24.5 -241t-25 -242.5t-96 -173.5q-49 -53 -131 -92t-201 -39t-200 39t-130 92q-72 76 -96.5 173t-24.5 243zM180 1237l271 346h212l271 -346h-207l-170 186l-170 -186h-207zM371 535 q0 -84 10 -152t51 -109q47 -47 123 -47q78 0 125 47q41 41 51 109t10 152t-10 150.5t-51 107.5q-47 47 -125 47q-76 0 -123 -47q-41 -41 -51 -108t-10 -150z" />
<glyph unicode="&#x25fc;" horiz-adv-x="1064" d="M0 0v1065h1065v-1065h-1065z" />
</font>
</defs>
</svg>
